<ttFont>
    <TTGlyph name=".notdef" xMin="100" yMin="118" xMax="474" yMax="818">
      <contour>
        <pt x="100" y="818" on="1"/>
        <pt x="474" y="818" on="1"/>
        <pt x="474" y="118" on="1"/>
        <pt x="100" y="118" on="1"/>
      </contour>
      <contour>
        <pt x="150" y="166" on="1"/>
        <pt x="424" y="166" on="1"/>
        <pt x="424" y="768" on="1"/>
        <pt x="150" y="768" on="1"/>
      </contour>
    </TTGlyph>
    <TTGlyph name="A" xMin="332" yMin="-2" xMax="2714" yMax="1512">
      <contour>
        <pt x="1558" y="710" on="1"/>
        <pt x="1330" y="710" on="1"/>
        <pt x="1394" y="800" on="1"/>
        <pt x="1638" y="788" on="1"/>
        <pt x="1750" y="898" on="1"/>
        <pt x="1957" y="1102" on="0"/>
        <pt x="2410" y="1406" on="0"/>
        <pt x="2656" y="1506" on="1"/>
        <pt x="2661" y="1508" on="0"/>
        <pt x="2681" y="1512" on="0"/>
        <pt x="2692" y="1512" on="1"/>
        <pt x="2701" y="1512" on="0"/>
        <pt x="2714" y="1507" on="0"/>
        <pt x="2714" y="1498" on="1"/>
        <pt x="2714" y="1482" on="0"/>
        <pt x="2703" y="1460" on="0"/>
        <pt x="2687" y="1445" on="0"/>
        <pt x="2670" y="1435" on="0"/>
        <pt x="2664" y="1432" on="1"/>
        <pt x="2626" y="1414" on="0"/>
        <pt x="2525" y="1334" on="0"/>
        <pt x="2411" y="1227" on="0"/>
        <pt x="2289" y="1100" on="0"/>
        <pt x="2168" y="965" on="0"/>
        <pt x="2054" y="831" on="0"/>
        <pt x="2006" y="772" on="1"/>
        <pt x="2164" y="766" on="1"/>
        <pt x="2130" y="710" on="1"/>
        <pt x="1954" y="710" on="1"/>
        <pt x="1904" y="651" on="0"/>
        <pt x="1795" y="532" on="0"/>
        <pt x="1689" y="416" on="0"/>
        <pt x="1593" y="307" on="0"/>
        <pt x="1519" y="213" on="0"/>
        <pt x="1476" y="137" on="0"/>
        <pt x="1476" y="112" on="1"/>
        <pt x="1476" y="71" on="0"/>
        <pt x="1504" y="46" on="0"/>
        <pt x="1542" y="46" on="1"/>
        <pt x="1584" y="46" on="0"/>
        <pt x="1692" y="73" on="0"/>
        <pt x="1805" y="113" on="0"/>
        <pt x="1914" y="161" on="0"/>
        <pt x="1958" y="182" on="1"/>
        <pt x="1968" y="158" on="1"/>
        <pt x="1816" y="84" on="0"/>
        <pt x="1570" y="-2" on="0"/>
        <pt x="1484" y="-2" on="1"/>
        <pt x="1460" y="-2" on="0"/>
        <pt x="1408" y="6" on="0"/>
        <pt x="1364" y="32" on="0"/>
        <pt x="1336" y="80" on="0"/>
        <pt x="1336" y="120" on="1"/>
        <pt x="1336" y="155" on="0"/>
        <pt x="1408" y="271" on="0"/>
        <pt x="1531" y="423" on="0"/>
        <pt x="1693" y="606" on="0"/>
        <pt x="1784" y="710" on="1"/>
        <pt x="1626" y="710" on="1"/>
        <pt x="1543" y="624" on="0"/>
        <pt x="1367" y="452" on="0"/>
        <pt x="1181" y="291" on="0"/>
        <pt x="984" y="150" on="0"/>
        <pt x="878" y="96" on="1"/>
        <pt x="822" y="68" on="0"/>
        <pt x="726" y="31" on="0"/>
        <pt x="639" y="8" on="0"/>
        <pt x="558" y="-2" on="0"/>
        <pt x="518" y="-2" on="1"/>
        <pt x="467" y="-2" on="0"/>
        <pt x="396" y="27" on="0"/>
        <pt x="352" y="72" on="0"/>
        <pt x="332" y="126" on="0"/>
        <pt x="332" y="152" on="1"/>
        <pt x="332" y="183" on="0"/>
        <pt x="354" y="236" on="0"/>
        <pt x="390" y="275" on="0"/>
        <pt x="437" y="296" on="0"/>
        <pt x="462" y="296" on="1"/>
        <pt x="476" y="296" on="0"/>
        <pt x="504" y="289" on="0"/>
        <pt x="525" y="272" on="0"/>
        <pt x="538" y="242" on="0"/>
        <pt x="538" y="220" on="1"/>
        <pt x="538" y="188" on="0"/>
        <pt x="507" y="148" on="0"/>
        <pt x="471" y="120" on="0"/>
        <pt x="440" y="97" on="0"/>
        <pt x="440" y="82" on="1"/>
        <pt x="440" y="71" on="0"/>
        <pt x="458" y="56" on="0"/>
        <pt x="484" y="47" on="0"/>
        <pt x="514" y="44" on="0"/>
        <pt x="526" y="44" on="1"/>
        <pt x="574" y="44" on="0"/>
        <pt x="655" y="55" on="0"/>
        <pt x="732" y="77" on="0"/>
        <pt x="811" y="110" on="0"/>
        <pt x="858" y="132" on="1"/>
        <pt x="886" y="145" on="0"/>
        <pt x="965" y="193" on="0"/>
        <pt x="1054" y="255" on="0"/>
        <pt x="1146" y="325" on="0"/>
        <pt x="1232" y="395" on="0"/>
        <pt x="1305" y="460" on="0"/>
        <pt x="1330" y="486" on="1"/>
      </contour>
      <contour>
        <pt x="1700" y="786" on="1"/>
        <pt x="1846" y="780" on="1"/>
        <pt x="1890" y="830" on="0"/>
        <pt x="1965" y="914" on="0"/>
        <pt x="2035" y="991" on="0"/>
        <pt x="2104" y="1066" on="0"/>
        <pt x="2183" y="1149" on="0"/>
        <pt x="2275" y="1242" on="0"/>
        <pt x="2332" y="1300" on="1"/>
        <pt x="2271" y="1265" on="0"/>
        <pt x="2123" y="1162" on="0"/>
        <pt x="1973" y="1044" on="0"/>
        <pt x="1834" y="922" on="0"/>
        <pt x="1782" y="870" on="1"/>
      </contour>
    </TTGlyph>
    <TTGlyph name="AE" xMin="594" yMin="4" xMax="3076" yMax="1484">
      <contour>
        <pt x="1560" y="502" on="1"/>
        <pt x="1666" y="608" on="0"/>
        <pt x="1855" y="798" on="0"/>
        <pt x="1944" y="884" on="1"/>
        <pt x="1891" y="894" on="0"/>
        <pt x="1807" y="938" on="0"/>
        <pt x="1748" y="996" on="0"/>
        <pt x="1716" y="1066" on="0"/>
        <pt x="1716" y="1104" on="1"/>
        <pt x="1716" y="1151" on="0"/>
        <pt x="1761" y="1243" on="0"/>
        <pt x="1843" y="1318" on="0"/>
        <pt x="1958" y="1366" on="0"/>
        <pt x="2028" y="1370" on="1"/>
        <pt x="2034" y="1360" on="1"/>
        <pt x="2025" y="1358" on="0"/>
        <pt x="1983" y="1347" on="0"/>
        <pt x="1931" y="1324" on="0"/>
        <pt x="1876" y="1288" on="0"/>
        <pt x="1830" y="1234" on="0"/>
        <pt x="1800" y="1159" on="0"/>
        <pt x="1800" y="1110" on="1"/>
        <pt x="1800" y="1069" on="0"/>
        <pt x="1830" y="1008" on="0"/>
        <pt x="1882" y="966" on="0"/>
        <pt x="1954" y="941" on="0"/>
        <pt x="1996" y="934" on="1"/>
        <pt x="2129" y="1061" on="0"/>
        <pt x="2369" y="1262" on="0"/>
        <pt x="2596" y="1402" on="0"/>
        <pt x="2817" y="1478" on="0"/>
        <pt x="2932" y="1482" on="1"/>
        <pt x="2938" y="1484" on="0"/>
        <pt x="2950" y="1484" on="0"/>
        <pt x="2956" y="1484" on="1"/>
        <pt x="2964" y="1484" on="1"/>
        <pt x="2995" y="1482" on="0"/>
        <pt x="3038" y="1461" on="0"/>
        <pt x="3065" y="1428" on="0"/>
        <pt x="3076" y="1389" on="0"/>
        <pt x="3076" y="1370" on="1"/>
        <pt x="3076" y="1324" on="0"/>
        <pt x="2998" y="1225" on="0"/>
        <pt x="2864" y="1126" on="0"/>
        <pt x="2686" y="1033" on="0"/>
        <pt x="2586" y="994" on="1"/>
        <pt x="2586" y="984" on="1"/>
        <pt x="2586" y="942" on="0"/>
        <pt x="2613" y="874" on="0"/>
        <pt x="2630" y="851" on="1"/>
        <pt x="2649" y="823" on="0"/>
        <pt x="2674" y="802" on="1"/>
        <pt x="2650" y="778" on="1"/>
        <pt x="2630" y="792" on="0"/>
        <pt x="2571" y="812" on="0"/>
        <pt x="2526" y="812" on="1"/>
        <pt x="2498" y="810" on="1"/>
        <pt x="2446" y="805" on="0"/>
        <pt x="2316" y="754" on="0"/>
        <pt x="2181" y="672" on="0"/>
        <pt x="2053" y="566" on="0"/>
        <pt x="1953" y="447" on="0"/>
        <pt x="1892" y="322" on="0"/>
        <pt x="1892" y="262" on="1"/>
        <pt x="1892" y="229" on="0"/>
        <pt x="1903" y="162" on="0"/>
        <pt x="1942" y="108" on="0"/>
        <pt x="2019" y="74" on="0"/>
        <pt x="2084" y="74" on="1"/>
        <pt x="2144" y="74" on="0"/>
        <pt x="2264" y="114" on="0"/>
        <pt x="2372" y="181" on="0"/>
        <pt x="2464" y="268" on="0"/>
        <pt x="2532" y="362" on="0"/>
        <pt x="2570" y="457" on="0"/>
        <pt x="2570" y="498" on="1"/>
        <pt x="2570" y="530" on="0"/>
        <pt x="2548" y="575" on="0"/>
        <pt x="2512" y="602" on="0"/>
        <pt x="2465" y="614" on="0"/>
        <pt x="2440" y="614" on="1"/>
        <pt x="2386" y="614" on="0"/>
        <pt x="2265" y="566" on="0"/>
        <pt x="2150" y="481" on="0"/>
        <pt x="2048" y="362" on="0"/>
        <pt x="2014" y="292" on="1"/>
        <pt x="2006" y="300" on="1"/>
        <pt x="2018" y="335" on="0"/>
        <pt x="2066" y="423" on="0"/>
        <pt x="2130" y="513" on="0"/>
        <pt x="2209" y="598" on="0"/>
        <pt x="2297" y="664" on="0"/>
        <pt x="2392" y="704" on="0"/>
        <pt x="2440" y="704" on="1"/>
        <pt x="2475" y="704" on="0"/>
        <pt x="2535" y="672" on="0"/>
        <pt x="2578" y="619" on="0"/>
        <pt x="2602" y="551" on="0"/>
        <pt x="2602" y="516" on="1"/>
        <pt x="2602" y="453" on="0"/>
        <pt x="2554" y="330" on="0"/>
        <pt x="2470" y="220" on="0"/>
        <pt x="2360" y="125" on="0"/>
        <pt x="2236" y="57" on="0"/>
        <pt x="2105" y="18" on="0"/>
        <pt x="2044" y="18" on="1"/>
        <pt x="1995" y="18" on="0"/>
        <pt x="1899" y="50" on="0"/>
        <pt x="1823" y="111" on="0"/>
        <pt x="1776" y="198" on="0"/>
        <pt x="1776" y="254" on="1"/>
        <pt x="1776" y="343" on="0"/>
        <pt x="1838" y="501" on="0"/>
        <pt x="1944" y="635" on="0"/>
        <pt x="2088" y="743" on="0"/>
        <pt x="2253" y="819" on="0"/>
        <pt x="2429" y="863" on="0"/>
        <pt x="2516" y="866" on="1"/>
        <pt x="2505" y="884" on="0"/>
        <pt x="2484" y="927" on="0"/>
        <pt x="2478" y="956" on="1"/>
        <pt x="2365" y="920" on="0"/>
        <pt x="2140" y="876" on="0"/>
        <pt x="2040" y="876" on="1"/>
        <pt x="1942" y="775" on="0"/>
        <pt x="1734" y="559" on="0"/>
        <pt x="1512" y="353" on="0"/>
        <pt x="1271" y="169" on="0"/>
        <pt x="1140" y="102" on="1"/>
        <pt x="1084" y="74" on="0"/>
        <pt x="988" y="37" on="0"/>
        <pt x="901" y="14" on="0"/>
        <pt x="820" y="4" on="0"/>
        <pt x="780" y="4" on="1"/>
        <pt x="729" y="4" on="0"/>
        <pt x="658" y="33" on="0"/>
        <pt x="614" y="78" on="0"/>
        <pt x="594" y="132" on="0"/>
        <pt x="594" y="158" on="1"/>
        <pt x="594" y="189" on="0"/>
        <pt x="616" y="242" on="0"/>
        <pt x="652" y="281" on="0"/>
        <pt x="699" y="302" on="0"/>
        <pt x="724" y="302" on="1"/>
        <pt x="738" y="302" on="0"/>
        <pt x="766" y="295" on="0"/>
        <pt x="787" y="278" on="0"/>
        <pt x="800" y="248" on="0"/>
        <pt x="800" y="226" on="1"/>
        <pt x="800" y="194" on="0"/>
        <pt x="773" y="158" on="0"/>
        <pt x="741" y="134" on="0"/>
        <pt x="714" y="115" on="0"/>
        <pt x="714" y="100" on="1"/>
        <pt x="714" y="89" on="0"/>
        <pt x="732" y="74" on="0"/>
        <pt x="758" y="65" on="0"/>
        <pt x="788" y="62" on="0"/>
        <pt x="800" y="62" on="1"/>
        <pt x="863" y="62" on="0"/>
        <pt x="1000" y="104" on="0"/>
        <pt x="1141" y="173" on="0"/>
        <pt x="1279" y="263" on="0"/>
        <pt x="1407" y="361" on="0"/>
        <pt x="1517" y="459" on="0"/>
      </contour>
      <contour>
        <pt x="2702" y="1244" on="1"/>
        <pt x="2664" y="1202" on="0"/>
        <pt x="2602" y="1096" on="0"/>
        <pt x="2590" y="1036" on="1"/>
        <pt x="2672" y="1069" on="0"/>
        <pt x="2822" y="1147" on="0"/>
        <pt x="2937" y="1230" on="0"/>
        <pt x="3006" y="1315" on="0"/>
        <pt x="3006" y="1356" on="1"/>
        <pt x="3006" y="1380" on="0"/>
        <pt x="2974" y="1404" on="0"/>
        <pt x="2950" y="1404" on="1"/>
        <pt x="2927" y="1404" on="0"/>
        <pt x="2866" y="1379" on="0"/>
        <pt x="2799" y="1335" on="0"/>
        <pt x="2731" y="1277" on="0"/>
      </contour>
      <contour>
        <pt x="2476" y="1000" on="1"/>
        <pt x="2476" y="1091" on="0"/>
        <pt x="2545" y="1246" on="0"/>
        <pt x="2602" y="1308" on="1"/>
        <pt x="2598" y="1306" on="0"/>
        <pt x="2594" y="1306" on="1"/>
        <pt x="2540" y="1275" on="0"/>
        <pt x="2409" y="1186" on="0"/>
        <pt x="2274" y="1083" on="0"/>
        <pt x="2143" y="974" on="0"/>
        <pt x="2090" y="924" on="1"/>
        <pt x="2140" y="924" on="1"/>
        <pt x="2203" y="924" on="0"/>
        <pt x="2380" y="960" on="0"/>
        <pt x="2476" y="992" on="1"/>
      </contour>
    </TTGlyph>
    <TTGlyph name="Aacute" xMin="-168" yMin="-2" xMax="2622" yMax="1756">
      <contour>
        <pt x="2582" y="1756" on="1"/>
        <pt x="2622" y="1664" on="1"/>
        <pt x="2298" y="1554" on="1"/>
        <pt x="2320" y="1614" on="1"/>
      </contour>
      <contour>
        <pt x="1058" y="710" on="1"/>
        <pt x="830" y="710" on="1"/>
        <pt x="894" y="800" on="1"/>
        <pt x="1138" y="788" on="1"/>
        <pt x="1250" y="898" on="1"/>
        <pt x="1457" y="1102" on="0"/>
        <pt x="1910" y="1406" on="0"/>
        <pt x="2156" y="1506" on="1"/>
        <pt x="2161" y="1508" on="0"/>
        <pt x="2181" y="1512" on="0"/>
        <pt x="2192" y="1512" on="1"/>
        <pt x="2201" y="1512" on="0"/>
        <pt x="2214" y="1507" on="0"/>
        <pt x="2214" y="1498" on="1"/>
        <pt x="2214" y="1482" on="0"/>
        <pt x="2203" y="1460" on="0"/>
        <pt x="2187" y="1445" on="0"/>
        <pt x="2170" y="1435" on="0"/>
        <pt x="2164" y="1432" on="1"/>
        <pt x="2125" y="1414" on="0"/>
        <pt x="2025" y="1334" on="0"/>
        <pt x="1911" y="1227" on="0"/>
        <pt x="1789" y="1100" on="0"/>
        <pt x="1668" y="965" on="0"/>
        <pt x="1554" y="831" on="0"/>
        <pt x="1506" y="772" on="1"/>
        <pt x="1664" y="766" on="1"/>
        <pt x="1630" y="710" on="1"/>
        <pt x="1454" y="710" on="1"/>
        <pt x="1404" y="651" on="0"/>
        <pt x="1295" y="532" on="0"/>
        <pt x="1189" y="416" on="0"/>
        <pt x="1093" y="307" on="0"/>
        <pt x="1019" y="213" on="0"/>
        <pt x="976" y="137" on="0"/>
        <pt x="976" y="112" on="1"/>
        <pt x="976" y="71" on="0"/>
        <pt x="1004" y="46" on="0"/>
        <pt x="1042" y="46" on="1"/>
        <pt x="1084" y="46" on="0"/>
        <pt x="1192" y="73" on="0"/>
        <pt x="1305" y="113" on="0"/>
        <pt x="1414" y="161" on="0"/>
        <pt x="1458" y="182" on="1"/>
        <pt x="1468" y="158" on="1"/>
        <pt x="1316" y="84" on="0"/>
        <pt x="1070" y="-2" on="0"/>
        <pt x="984" y="-2" on="1"/>
        <pt x="960" y="-2" on="0"/>
        <pt x="908" y="6" on="0"/>
        <pt x="864" y="32" on="0"/>
        <pt x="836" y="80" on="0"/>
        <pt x="836" y="120" on="1"/>
        <pt x="836" y="155" on="0"/>
        <pt x="908" y="271" on="0"/>
        <pt x="1031" y="423" on="0"/>
        <pt x="1193" y="606" on="0"/>
        <pt x="1284" y="710" on="1"/>
        <pt x="1126" y="710" on="1"/>
        <pt x="1043" y="624" on="0"/>
        <pt x="868" y="451" on="0"/>
        <pt x="682" y="291" on="0"/>
        <pt x="484" y="150" on="0"/>
        <pt x="378" y="96" on="1"/>
        <pt x="322" y="68" on="0"/>
        <pt x="226" y="30" on="0"/>
        <pt x="139" y="8" on="0"/>
        <pt x="58" y="-2" on="0"/>
        <pt x="18" y="-2" on="1"/>
        <pt x="-33" y="-2" on="0"/>
        <pt x="-104" y="27" on="0"/>
        <pt x="-148" y="72" on="0"/>
        <pt x="-168" y="126" on="0"/>
        <pt x="-168" y="152" on="1"/>
        <pt x="-168" y="183" on="0"/>
        <pt x="-146" y="236" on="0"/>
        <pt x="-110" y="275" on="0"/>
        <pt x="-63" y="296" on="0"/>
        <pt x="-38" y="296" on="1"/>
        <pt x="-24" y="296" on="0"/>
        <pt x="4" y="289" on="0"/>
        <pt x="25" y="272" on="0"/>
        <pt x="38" y="242" on="0"/>
        <pt x="38" y="220" on="1"/>
        <pt x="38" y="188" on="0"/>
        <pt x="7" y="148" on="0"/>
        <pt x="-29" y="120" on="0"/>
        <pt x="-60" y="97" on="0"/>
        <pt x="-60" y="82" on="1"/>
        <pt x="-60" y="71" on="0"/>
        <pt x="-42" y="56" on="0"/>
        <pt x="-16" y="47" on="0"/>
        <pt x="14" y="44" on="0"/>
        <pt x="26" y="44" on="1"/>
        <pt x="74" y="44" on="0"/>
        <pt x="155" y="55" on="0"/>
        <pt x="232" y="77" on="0"/>
        <pt x="311" y="110" on="0"/>
        <pt x="358" y="132" on="1"/>
        <pt x="387" y="145" on="0"/>
        <pt x="465" y="193" on="0"/>
        <pt x="554" y="255" on="0"/>
        <pt x="646" y="325" on="0"/>
        <pt x="732" y="395" on="0"/>
        <pt x="805" y="460" on="0"/>
        <pt x="830" y="486" on="1"/>
      </contour>
      <contour>
        <pt x="1200" y="786" on="1"/>
        <pt x="1346" y="780" on="1"/>
        <pt x="1390" y="830" on="0"/>
        <pt x="1465" y="914" on="0"/>
        <pt x="1535" y="991" on="0"/>
        <pt x="1604" y="1066" on="0"/>
        <pt x="1683" y="1149" on="0"/>
        <pt x="1775" y="1242" on="0"/>
        <pt x="1832" y="1300" on="1"/>
        <pt x="1771" y="1265" on="0"/>
        <pt x="1623" y="1162" on="0"/>
        <pt x="1473" y="1044" on="0"/>
        <pt x="1334" y="922" on="0"/>
        <pt x="1282" y="870" on="1"/>
      </contour>
    </TTGlyph>
    <TTGlyph name="Acircumflex" xMin="-168" yMin="-2" xMax="2394" yMax="1734">
      <contour>
        <pt x="2242" y="1624" on="1"/>
        <pt x="1976" y="1534" on="1"/>
        <pt x="1998" y="1594" on="1"/>
        <pt x="2256" y="1734" on="1"/>
        <pt x="2372" y="1566" on="1"/>
        <pt x="2394" y="1506" on="1"/>
      </contour>
      <contour>
        <pt x="1058" y="710" on="1"/>
        <pt x="830" y="710" on="1"/>
        <pt x="894" y="800" on="1"/>
        <pt x="1138" y="788" on="1"/>
        <pt x="1250" y="898" on="1"/>
        <pt x="1457" y="1102" on="0"/>
        <pt x="1910" y="1406" on="0"/>
        <pt x="2156" y="1506" on="1"/>
        <pt x="2161" y="1508" on="0"/>
        <pt x="2181" y="1512" on="0"/>
        <pt x="2192" y="1512" on="1"/>
        <pt x="2201" y="1512" on="0"/>
        <pt x="2214" y="1507" on="0"/>
        <pt x="2214" y="1498" on="1"/>
        <pt x="2214" y="1482" on="0"/>
        <pt x="2203" y="1460" on="0"/>
        <pt x="2187" y="1445" on="0"/>
        <pt x="2170" y="1435" on="0"/>
        <pt x="2164" y="1432" on="1"/>
        <pt x="2125" y="1414" on="0"/>
        <pt x="2025" y="1334" on="0"/>
        <pt x="1911" y="1227" on="0"/>
        <pt x="1789" y="1100" on="0"/>
        <pt x="1668" y="965" on="0"/>
        <pt x="1554" y="831" on="0"/>
        <pt x="1506" y="772" on="1"/>
        <pt x="1664" y="766" on="1"/>
        <pt x="1630" y="710" on="1"/>
        <pt x="1454" y="710" on="1"/>
        <pt x="1404" y="651" on="0"/>
        <pt x="1295" y="532" on="0"/>
        <pt x="1189" y="416" on="0"/>
        <pt x="1093" y="307" on="0"/>
        <pt x="1019" y="213" on="0"/>
        <pt x="976" y="137" on="0"/>
        <pt x="976" y="112" on="1"/>
        <pt x="976" y="71" on="0"/>
        <pt x="1004" y="46" on="0"/>
        <pt x="1042" y="46" on="1"/>
        <pt x="1084" y="46" on="0"/>
        <pt x="1192" y="73" on="0"/>
        <pt x="1305" y="113" on="0"/>
        <pt x="1414" y="161" on="0"/>
        <pt x="1458" y="182" on="1"/>
        <pt x="1468" y="158" on="1"/>
        <pt x="1316" y="84" on="0"/>
        <pt x="1070" y="-2" on="0"/>
        <pt x="984" y="-2" on="1"/>
        <pt x="960" y="-2" on="0"/>
        <pt x="908" y="6" on="0"/>
        <pt x="864" y="32" on="0"/>
        <pt x="836" y="80" on="0"/>
        <pt x="836" y="120" on="1"/>
        <pt x="836" y="155" on="0"/>
        <pt x="908" y="271" on="0"/>
        <pt x="1031" y="423" on="0"/>
        <pt x="1193" y="606" on="0"/>
        <pt x="1284" y="710" on="1"/>
        <pt x="1126" y="710" on="1"/>
        <pt x="1043" y="624" on="0"/>
        <pt x="868" y="451" on="0"/>
        <pt x="682" y="291" on="0"/>
        <pt x="484" y="150" on="0"/>
        <pt x="378" y="96" on="1"/>
        <pt x="322" y="68" on="0"/>
        <pt x="226" y="30" on="0"/>
        <pt x="139" y="8" on="0"/>
        <pt x="58" y="-2" on="0"/>
        <pt x="18" y="-2" on="1"/>
        <pt x="-33" y="-2" on="0"/>
        <pt x="-104" y="27" on="0"/>
        <pt x="-148" y="72" on="0"/>
        <pt x="-168" y="126" on="0"/>
        <pt x="-168" y="152" on="1"/>
        <pt x="-168" y="183" on="0"/>
        <pt x="-146" y="236" on="0"/>
        <pt x="-110" y="275" on="0"/>
        <pt x="-63" y="296" on="0"/>
        <pt x="-38" y="296" on="1"/>
        <pt x="-24" y="296" on="0"/>
        <pt x="4" y="289" on="0"/>
        <pt x="25" y="272" on="0"/>
        <pt x="38" y="242" on="0"/>
        <pt x="38" y="220" on="1"/>
        <pt x="38" y="188" on="0"/>
        <pt x="7" y="148" on="0"/>
        <pt x="-29" y="120" on="0"/>
        <pt x="-60" y="97" on="0"/>
        <pt x="-60" y="82" on="1"/>
        <pt x="-60" y="71" on="0"/>
        <pt x="-42" y="56" on="0"/>
        <pt x="-16" y="47" on="0"/>
        <pt x="14" y="44" on="0"/>
        <pt x="26" y="44" on="1"/>
        <pt x="74" y="44" on="0"/>
        <pt x="155" y="55" on="0"/>
        <pt x="232" y="77" on="0"/>
        <pt x="311" y="110" on="0"/>
        <pt x="358" y="132" on="1"/>
        <pt x="387" y="145" on="0"/>
        <pt x="465" y="193" on="0"/>
        <pt x="554" y="255" on="0"/>
        <pt x="646" y="325" on="0"/>
        <pt x="732" y="395" on="0"/>
        <pt x="805" y="460" on="0"/>
        <pt x="830" y="486" on="1"/>
      </contour>
      <contour>
        <pt x="1200" y="786" on="1"/>
        <pt x="1346" y="780" on="1"/>
        <pt x="1390" y="830" on="0"/>
        <pt x="1465" y="914" on="0"/>
        <pt x="1535" y="991" on="0"/>
        <pt x="1604" y="1066" on="0"/>
        <pt x="1683" y="1149" on="0"/>
        <pt x="1775" y="1242" on="0"/>
        <pt x="1832" y="1300" on="1"/>
        <pt x="1771" y="1265" on="0"/>
        <pt x="1623" y="1162" on="0"/>
        <pt x="1473" y="1044" on="0"/>
        <pt x="1334" y="922" on="0"/>
        <pt x="1282" y="870" on="1"/>
      </contour>
    </TTGlyph>
    <TTGlyph name="Adieresis" xMin="-168" yMin="-2" xMax="2456" yMax="1694">
      <contour>
        <pt x="2218" y="1638" on="1"/>
        <pt x="2218" y="1621" on="0"/>
        <pt x="2200" y="1591" on="0"/>
        <pt x="2171" y="1569" on="0"/>
        <pt x="2133" y="1556" on="0"/>
        <pt x="2114" y="1556" on="1"/>
        <pt x="2100" y="1556" on="0"/>
        <pt x="2073" y="1562" on="0"/>
        <pt x="2050" y="1578" on="0"/>
        <pt x="2036" y="1605" on="0"/>
        <pt x="2036" y="1626" on="1"/>
        <pt x="2036" y="1644" on="0"/>
        <pt x="2056" y="1670" on="0"/>
        <pt x="2086" y="1686" on="0"/>
        <pt x="2124" y="1694" on="0"/>
        <pt x="2142" y="1694" on="1"/>
        <pt x="2172" y="1694" on="0"/>
        <pt x="2213" y="1667" on="0"/>
      </contour>
      <contour>
        <pt x="2456" y="1636" on="1"/>
        <pt x="2456" y="1619" on="0"/>
        <pt x="2438" y="1589" on="0"/>
        <pt x="2409" y="1567" on="0"/>
        <pt x="2371" y="1554" on="0"/>
        <pt x="2352" y="1554" on="1"/>
        <pt x="2338" y="1554" on="0"/>
        <pt x="2311" y="1560" on="0"/>
        <pt x="2288" y="1576" on="0"/>
        <pt x="2274" y="1603" on="0"/>
        <pt x="2274" y="1624" on="1"/>
        <pt x="2274" y="1642" on="0"/>
        <pt x="2294" y="1668" on="0"/>
        <pt x="2324" y="1684" on="0"/>
        <pt x="2362" y="1692" on="0"/>
        <pt x="2380" y="1692" on="1"/>
        <pt x="2410" y="1692" on="0"/>
        <pt x="2451" y="1665" on="0"/>
      </contour>
      <contour>
        <pt x="1058" y="710" on="1"/>
        <pt x="830" y="710" on="1"/>
        <pt x="894" y="800" on="1"/>
        <pt x="1138" y="788" on="1"/>
        <pt x="1250" y="898" on="1"/>
        <pt x="1457" y="1102" on="0"/>
        <pt x="1910" y="1406" on="0"/>
        <pt x="2156" y="1506" on="1"/>
        <pt x="2161" y="1508" on="0"/>
        <pt x="2181" y="1512" on="0"/>
        <pt x="2192" y="1512" on="1"/>
        <pt x="2201" y="1512" on="0"/>
        <pt x="2214" y="1507" on="0"/>
        <pt x="2214" y="1498" on="1"/>
        <pt x="2214" y="1482" on="0"/>
        <pt x="2203" y="1460" on="0"/>
        <pt x="2187" y="1445" on="0"/>
        <pt x="2170" y="1435" on="0"/>
        <pt x="2164" y="1432" on="1"/>
        <pt x="2125" y="1414" on="0"/>
        <pt x="2025" y="1334" on="0"/>
        <pt x="1911" y="1227" on="0"/>
        <pt x="1789" y="1100" on="0"/>
        <pt x="1668" y="965" on="0"/>
        <pt x="1554" y="831" on="0"/>
        <pt x="1506" y="772" on="1"/>
        <pt x="1664" y="766" on="1"/>
        <pt x="1630" y="710" on="1"/>
        <pt x="1454" y="710" on="1"/>
        <pt x="1404" y="651" on="0"/>
        <pt x="1295" y="532" on="0"/>
        <pt x="1189" y="416" on="0"/>
        <pt x="1093" y="307" on="0"/>
        <pt x="1019" y="213" on="0"/>
        <pt x="976" y="137" on="0"/>
        <pt x="976" y="112" on="1"/>
        <pt x="976" y="71" on="0"/>
        <pt x="1004" y="46" on="0"/>
        <pt x="1042" y="46" on="1"/>
        <pt x="1084" y="46" on="0"/>
        <pt x="1192" y="73" on="0"/>
        <pt x="1305" y="113" on="0"/>
        <pt x="1414" y="161" on="0"/>
        <pt x="1458" y="182" on="1"/>
        <pt x="1468" y="158" on="1"/>
        <pt x="1316" y="84" on="0"/>
        <pt x="1070" y="-2" on="0"/>
        <pt x="984" y="-2" on="1"/>
        <pt x="960" y="-2" on="0"/>
        <pt x="908" y="6" on="0"/>
        <pt x="864" y="32" on="0"/>
        <pt x="836" y="80" on="0"/>
        <pt x="836" y="120" on="1"/>
        <pt x="836" y="155" on="0"/>
        <pt x="908" y="271" on="0"/>
        <pt x="1031" y="423" on="0"/>
        <pt x="1193" y="606" on="0"/>
        <pt x="1284" y="710" on="1"/>
        <pt x="1126" y="710" on="1"/>
        <pt x="1043" y="624" on="0"/>
        <pt x="868" y="451" on="0"/>
        <pt x="682" y="291" on="0"/>
        <pt x="484" y="150" on="0"/>
        <pt x="378" y="96" on="1"/>
        <pt x="322" y="68" on="0"/>
        <pt x="226" y="30" on="0"/>
        <pt x="139" y="8" on="0"/>
        <pt x="58" y="-2" on="0"/>
        <pt x="18" y="-2" on="1"/>
        <pt x="-33" y="-2" on="0"/>
        <pt x="-104" y="27" on="0"/>
        <pt x="-148" y="72" on="0"/>
        <pt x="-168" y="126" on="0"/>
        <pt x="-168" y="152" on="1"/>
        <pt x="-168" y="183" on="0"/>
        <pt x="-146" y="236" on="0"/>
        <pt x="-110" y="275" on="0"/>
        <pt x="-63" y="296" on="0"/>
        <pt x="-38" y="296" on="1"/>
        <pt x="-24" y="296" on="0"/>
        <pt x="4" y="289" on="0"/>
        <pt x="25" y="272" on="0"/>
        <pt x="38" y="242" on="0"/>
        <pt x="38" y="220" on="1"/>
        <pt x="38" y="188" on="0"/>
        <pt x="7" y="148" on="0"/>
        <pt x="-29" y="120" on="0"/>
        <pt x="-60" y="97" on="0"/>
        <pt x="-60" y="82" on="1"/>
        <pt x="-60" y="71" on="0"/>
        <pt x="-42" y="56" on="0"/>
        <pt x="-16" y="47" on="0"/>
        <pt x="14" y="44" on="0"/>
        <pt x="26" y="44" on="1"/>
        <pt x="74" y="44" on="0"/>
        <pt x="155" y="55" on="0"/>
        <pt x="232" y="77" on="0"/>
        <pt x="311" y="110" on="0"/>
        <pt x="358" y="132" on="1"/>
        <pt x="387" y="145" on="0"/>
        <pt x="465" y="193" on="0"/>
        <pt x="554" y="255" on="0"/>
        <pt x="646" y="325" on="0"/>
        <pt x="732" y="395" on="0"/>
        <pt x="805" y="460" on="0"/>
        <pt x="830" y="486" on="1"/>
      </contour>
      <contour>
        <pt x="1200" y="786" on="1"/>
        <pt x="1346" y="780" on="1"/>
        <pt x="1390" y="830" on="0"/>
        <pt x="1465" y="914" on="0"/>
        <pt x="1535" y="991" on="0"/>
        <pt x="1604" y="1066" on="0"/>
        <pt x="1683" y="1149" on="0"/>
        <pt x="1775" y="1242" on="0"/>
        <pt x="1832" y="1300" on="1"/>
        <pt x="1771" y="1265" on="0"/>
        <pt x="1623" y="1162" on="0"/>
        <pt x="1473" y="1044" on="0"/>
        <pt x="1334" y="922" on="0"/>
        <pt x="1282" y="870" on="1"/>
      </contour>
    </TTGlyph>
    <TTGlyph name="Agrave" xMin="-168" yMin="-2" xMax="2298" yMax="1756">
      <contour>
        <pt x="1974" y="1664" on="1"/>
        <pt x="2014" y="1756" on="1"/>
        <pt x="2276" y="1614" on="1"/>
        <pt x="2298" y="1554" on="1"/>
      </contour>
      <contour>
        <pt x="1058" y="710" on="1"/>
        <pt x="830" y="710" on="1"/>
        <pt x="894" y="800" on="1"/>
        <pt x="1138" y="788" on="1"/>
        <pt x="1250" y="898" on="1"/>
        <pt x="1457" y="1102" on="0"/>
        <pt x="1910" y="1406" on="0"/>
        <pt x="2156" y="1506" on="1"/>
        <pt x="2161" y="1508" on="0"/>
        <pt x="2181" y="1512" on="0"/>
        <pt x="2192" y="1512" on="1"/>
        <pt x="2201" y="1512" on="0"/>
        <pt x="2214" y="1507" on="0"/>
        <pt x="2214" y="1498" on="1"/>
        <pt x="2214" y="1482" on="0"/>
        <pt x="2203" y="1460" on="0"/>
        <pt x="2187" y="1445" on="0"/>
        <pt x="2170" y="1435" on="0"/>
        <pt x="2164" y="1432" on="1"/>
        <pt x="2125" y="1414" on="0"/>
        <pt x="2025" y="1334" on="0"/>
        <pt x="1911" y="1227" on="0"/>
        <pt x="1789" y="1100" on="0"/>
        <pt x="1668" y="965" on="0"/>
        <pt x="1554" y="831" on="0"/>
        <pt x="1506" y="772" on="1"/>
        <pt x="1664" y="766" on="1"/>
        <pt x="1630" y="710" on="1"/>
        <pt x="1454" y="710" on="1"/>
        <pt x="1404" y="651" on="0"/>
        <pt x="1295" y="532" on="0"/>
        <pt x="1189" y="416" on="0"/>
        <pt x="1093" y="307" on="0"/>
        <pt x="1019" y="213" on="0"/>
        <pt x="976" y="137" on="0"/>
        <pt x="976" y="112" on="1"/>
        <pt x="976" y="71" on="0"/>
        <pt x="1004" y="46" on="0"/>
        <pt x="1042" y="46" on="1"/>
        <pt x="1084" y="46" on="0"/>
        <pt x="1192" y="73" on="0"/>
        <pt x="1305" y="113" on="0"/>
        <pt x="1414" y="161" on="0"/>
        <pt x="1458" y="182" on="1"/>
        <pt x="1468" y="158" on="1"/>
        <pt x="1316" y="84" on="0"/>
        <pt x="1070" y="-2" on="0"/>
        <pt x="984" y="-2" on="1"/>
        <pt x="960" y="-2" on="0"/>
        <pt x="908" y="6" on="0"/>
        <pt x="864" y="32" on="0"/>
        <pt x="836" y="80" on="0"/>
        <pt x="836" y="120" on="1"/>
        <pt x="836" y="155" on="0"/>
        <pt x="908" y="271" on="0"/>
        <pt x="1031" y="423" on="0"/>
        <pt x="1193" y="606" on="0"/>
        <pt x="1284" y="710" on="1"/>
        <pt x="1126" y="710" on="1"/>
        <pt x="1043" y="624" on="0"/>
        <pt x="868" y="451" on="0"/>
        <pt x="682" y="291" on="0"/>
        <pt x="484" y="150" on="0"/>
        <pt x="378" y="96" on="1"/>
        <pt x="322" y="68" on="0"/>
        <pt x="226" y="30" on="0"/>
        <pt x="139" y="8" on="0"/>
        <pt x="58" y="-2" on="0"/>
        <pt x="18" y="-2" on="1"/>
        <pt x="-33" y="-2" on="0"/>
        <pt x="-104" y="27" on="0"/>
        <pt x="-148" y="72" on="0"/>
        <pt x="-168" y="126" on="0"/>
        <pt x="-168" y="152" on="1"/>
        <pt x="-168" y="183" on="0"/>
        <pt x="-146" y="236" on="0"/>
        <pt x="-110" y="275" on="0"/>
        <pt x="-63" y="296" on="0"/>
        <pt x="-38" y="296" on="1"/>
        <pt x="-24" y="296" on="0"/>
        <pt x="4" y="289" on="0"/>
        <pt x="25" y="272" on="0"/>
        <pt x="38" y="242" on="0"/>
        <pt x="38" y="220" on="1"/>
        <pt x="38" y="188" on="0"/>
        <pt x="7" y="148" on="0"/>
        <pt x="-29" y="120" on="0"/>
        <pt x="-60" y="97" on="0"/>
        <pt x="-60" y="82" on="1"/>
        <pt x="-60" y="71" on="0"/>
        <pt x="-42" y="56" on="0"/>
        <pt x="-16" y="47" on="0"/>
        <pt x="14" y="44" on="0"/>
        <pt x="26" y="44" on="1"/>
        <pt x="74" y="44" on="0"/>
        <pt x="155" y="55" on="0"/>
        <pt x="232" y="77" on="0"/>
        <pt x="311" y="110" on="0"/>
        <pt x="358" y="132" on="1"/>
        <pt x="387" y="145" on="0"/>
        <pt x="465" y="193" on="0"/>
        <pt x="554" y="255" on="0"/>
        <pt x="646" y="325" on="0"/>
        <pt x="732" y="395" on="0"/>
        <pt x="805" y="460" on="0"/>
        <pt x="830" y="486" on="1"/>
      </contour>
      <contour>
        <pt x="1200" y="786" on="1"/>
        <pt x="1346" y="780" on="1"/>
        <pt x="1390" y="830" on="0"/>
        <pt x="1465" y="914" on="0"/>
        <pt x="1535" y="991" on="0"/>
        <pt x="1604" y="1066" on="0"/>
        <pt x="1683" y="1149" on="0"/>
        <pt x="1775" y="1242" on="0"/>
        <pt x="1832" y="1300" on="1"/>
        <pt x="1771" y="1265" on="0"/>
        <pt x="1623" y="1162" on="0"/>
        <pt x="1473" y="1044" on="0"/>
        <pt x="1334" y="922" on="0"/>
        <pt x="1282" y="870" on="1"/>
      </contour>
    </TTGlyph>
    <TTGlyph name="Aring" xMin="-168" yMin="-2" xMax="2560" yMax="1752">
      <contour>
        <pt x="2560" y="1672" on="1"/>
        <pt x="2560" y="1647" on="0"/>
        <pt x="2535" y="1604" on="0"/>
        <pt x="2493" y="1572" on="0"/>
        <pt x="2440" y="1554" on="0"/>
        <pt x="2412" y="1554" on="1"/>
        <pt x="2392" y="1554" on="0"/>
        <pt x="2353" y="1563" on="0"/>
        <pt x="2320" y="1586" on="0"/>
        <pt x="2300" y="1625" on="0"/>
        <pt x="2300" y="1656" on="1"/>
        <pt x="2300" y="1681" on="0"/>
        <pt x="2328" y="1718" on="0"/>
        <pt x="2373" y="1741" on="0"/>
        <pt x="2426" y="1752" on="0"/>
        <pt x="2452" y="1752" on="1"/>
        <pt x="2494" y="1752" on="0"/>
        <pt x="2554" y="1713" on="0"/>
      </contour>
      <contour>
        <pt x="2508" y="1664" on="1"/>
        <pt x="2505" y="1690" on="0"/>
        <pt x="2469" y="1714" on="0"/>
        <pt x="2442" y="1714" on="1"/>
        <pt x="2426" y="1714" on="0"/>
        <pt x="2394" y="1707" on="0"/>
        <pt x="2367" y="1692" on="0"/>
        <pt x="2350" y="1670" on="0"/>
        <pt x="2350" y="1654" on="1"/>
        <pt x="2350" y="1618" on="0"/>
        <pt x="2394" y="1592" on="0"/>
        <pt x="2418" y="1592" on="1"/>
        <pt x="2435" y="1592" on="0"/>
        <pt x="2468" y="1603" on="0"/>
        <pt x="2493" y="1623" on="0"/>
        <pt x="2508" y="1649" on="0"/>
      </contour>
      <contour>
        <pt x="1058" y="710" on="1"/>
        <pt x="830" y="710" on="1"/>
        <pt x="894" y="800" on="1"/>
        <pt x="1138" y="788" on="1"/>
        <pt x="1250" y="898" on="1"/>
        <pt x="1457" y="1102" on="0"/>
        <pt x="1910" y="1406" on="0"/>
        <pt x="2156" y="1506" on="1"/>
        <pt x="2161" y="1508" on="0"/>
        <pt x="2181" y="1512" on="0"/>
        <pt x="2192" y="1512" on="1"/>
        <pt x="2201" y="1512" on="0"/>
        <pt x="2214" y="1507" on="0"/>
        <pt x="2214" y="1498" on="1"/>
        <pt x="2214" y="1482" on="0"/>
        <pt x="2203" y="1460" on="0"/>
        <pt x="2187" y="1445" on="0"/>
        <pt x="2170" y="1435" on="0"/>
        <pt x="2164" y="1432" on="1"/>
        <pt x="2125" y="1414" on="0"/>
        <pt x="2025" y="1334" on="0"/>
        <pt x="1911" y="1227" on="0"/>
        <pt x="1789" y="1100" on="0"/>
        <pt x="1668" y="965" on="0"/>
        <pt x="1554" y="831" on="0"/>
        <pt x="1506" y="772" on="1"/>
        <pt x="1664" y="766" on="1"/>
        <pt x="1630" y="710" on="1"/>
        <pt x="1454" y="710" on="1"/>
        <pt x="1404" y="651" on="0"/>
        <pt x="1295" y="532" on="0"/>
        <pt x="1189" y="416" on="0"/>
        <pt x="1093" y="307" on="0"/>
        <pt x="1019" y="213" on="0"/>
        <pt x="976" y="137" on="0"/>
        <pt x="976" y="112" on="1"/>
        <pt x="976" y="71" on="0"/>
        <pt x="1004" y="46" on="0"/>
        <pt x="1042" y="46" on="1"/>
        <pt x="1084" y="46" on="0"/>
        <pt x="1192" y="73" on="0"/>
        <pt x="1305" y="113" on="0"/>
        <pt x="1414" y="161" on="0"/>
        <pt x="1458" y="182" on="1"/>
        <pt x="1468" y="158" on="1"/>
        <pt x="1316" y="84" on="0"/>
        <pt x="1070" y="-2" on="0"/>
        <pt x="984" y="-2" on="1"/>
        <pt x="960" y="-2" on="0"/>
        <pt x="908" y="6" on="0"/>
        <pt x="864" y="32" on="0"/>
        <pt x="836" y="80" on="0"/>
        <pt x="836" y="120" on="1"/>
        <pt x="836" y="155" on="0"/>
        <pt x="908" y="271" on="0"/>
        <pt x="1031" y="423" on="0"/>
        <pt x="1193" y="606" on="0"/>
        <pt x="1284" y="710" on="1"/>
        <pt x="1126" y="710" on="1"/>
        <pt x="1043" y="624" on="0"/>
        <pt x="868" y="451" on="0"/>
        <pt x="682" y="291" on="0"/>
        <pt x="484" y="150" on="0"/>
        <pt x="378" y="96" on="1"/>
        <pt x="322" y="68" on="0"/>
        <pt x="226" y="30" on="0"/>
        <pt x="139" y="8" on="0"/>
        <pt x="58" y="-2" on="0"/>
        <pt x="18" y="-2" on="1"/>
        <pt x="-33" y="-2" on="0"/>
        <pt x="-104" y="27" on="0"/>
        <pt x="-148" y="72" on="0"/>
        <pt x="-168" y="126" on="0"/>
        <pt x="-168" y="152" on="1"/>
        <pt x="-168" y="183" on="0"/>
        <pt x="-146" y="236" on="0"/>
        <pt x="-110" y="275" on="0"/>
        <pt x="-63" y="296" on="0"/>
        <pt x="-38" y="296" on="1"/>
        <pt x="-24" y="296" on="0"/>
        <pt x="4" y="289" on="0"/>
        <pt x="25" y="272" on="0"/>
        <pt x="38" y="242" on="0"/>
        <pt x="38" y="220" on="1"/>
        <pt x="38" y="188" on="0"/>
        <pt x="7" y="148" on="0"/>
        <pt x="-29" y="120" on="0"/>
        <pt x="-60" y="97" on="0"/>
        <pt x="-60" y="82" on="1"/>
        <pt x="-60" y="71" on="0"/>
        <pt x="-42" y="56" on="0"/>
        <pt x="-16" y="47" on="0"/>
        <pt x="14" y="44" on="0"/>
        <pt x="26" y="44" on="1"/>
        <pt x="74" y="44" on="0"/>
        <pt x="155" y="55" on="0"/>
        <pt x="232" y="77" on="0"/>
        <pt x="311" y="110" on="0"/>
        <pt x="358" y="132" on="1"/>
        <pt x="387" y="145" on="0"/>
        <pt x="465" y="193" on="0"/>
        <pt x="554" y="255" on="0"/>
        <pt x="646" y="325" on="0"/>
        <pt x="732" y="395" on="0"/>
        <pt x="805" y="460" on="0"/>
        <pt x="830" y="486" on="1"/>
      </contour>
      <contour>
        <pt x="1200" y="786" on="1"/>
        <pt x="1346" y="780" on="1"/>
        <pt x="1390" y="830" on="0"/>
        <pt x="1465" y="914" on="0"/>
        <pt x="1535" y="991" on="0"/>
        <pt x="1604" y="1066" on="0"/>
        <pt x="1683" y="1149" on="0"/>
        <pt x="1775" y="1242" on="0"/>
        <pt x="1832" y="1300" on="1"/>
        <pt x="1771" y="1265" on="0"/>
        <pt x="1623" y="1162" on="0"/>
        <pt x="1473" y="1044" on="0"/>
        <pt x="1334" y="922" on="0"/>
        <pt x="1282" y="870" on="1"/>
      </contour>
    </TTGlyph>
    <TTGlyph name="Atilde" xMin="-168" yMin="-2" xMax="2456" yMax="1644">
      <contour>
        <pt x="2456" y="1610" on="1"/>
        <pt x="2422" y="1554" on="1"/>
        <pt x="2060" y="1554" on="1"/>
        <pt x="2124" y="1644" on="1"/>
      </contour>
      <contour>
        <pt x="1058" y="710" on="1"/>
        <pt x="830" y="710" on="1"/>
        <pt x="894" y="800" on="1"/>
        <pt x="1138" y="788" on="1"/>
        <pt x="1250" y="898" on="1"/>
        <pt x="1457" y="1102" on="0"/>
        <pt x="1910" y="1406" on="0"/>
        <pt x="2156" y="1506" on="1"/>
        <pt x="2161" y="1508" on="0"/>
        <pt x="2181" y="1512" on="0"/>
        <pt x="2192" y="1512" on="1"/>
        <pt x="2201" y="1512" on="0"/>
        <pt x="2214" y="1507" on="0"/>
        <pt x="2214" y="1498" on="1"/>
        <pt x="2214" y="1482" on="0"/>
        <pt x="2203" y="1460" on="0"/>
        <pt x="2187" y="1445" on="0"/>
        <pt x="2170" y="1435" on="0"/>
        <pt x="2164" y="1432" on="1"/>
        <pt x="2125" y="1414" on="0"/>
        <pt x="2025" y="1334" on="0"/>
        <pt x="1911" y="1227" on="0"/>
        <pt x="1789" y="1100" on="0"/>
        <pt x="1668" y="965" on="0"/>
        <pt x="1554" y="831" on="0"/>
        <pt x="1506" y="772" on="1"/>
        <pt x="1664" y="766" on="1"/>
        <pt x="1630" y="710" on="1"/>
        <pt x="1454" y="710" on="1"/>
        <pt x="1404" y="651" on="0"/>
        <pt x="1295" y="532" on="0"/>
        <pt x="1189" y="416" on="0"/>
        <pt x="1093" y="307" on="0"/>
        <pt x="1019" y="213" on="0"/>
        <pt x="976" y="137" on="0"/>
        <pt x="976" y="112" on="1"/>
        <pt x="976" y="71" on="0"/>
        <pt x="1004" y="46" on="0"/>
        <pt x="1042" y="46" on="1"/>
        <pt x="1084" y="46" on="0"/>
        <pt x="1192" y="73" on="0"/>
        <pt x="1305" y="113" on="0"/>
        <pt x="1414" y="161" on="0"/>
        <pt x="1458" y="182" on="1"/>
        <pt x="1468" y="158" on="1"/>
        <pt x="1316" y="84" on="0"/>
        <pt x="1070" y="-2" on="0"/>
        <pt x="984" y="-2" on="1"/>
        <pt x="960" y="-2" on="0"/>
        <pt x="908" y="6" on="0"/>
        <pt x="864" y="32" on="0"/>
        <pt x="836" y="80" on="0"/>
        <pt x="836" y="120" on="1"/>
        <pt x="836" y="155" on="0"/>
        <pt x="908" y="271" on="0"/>
        <pt x="1031" y="423" on="0"/>
        <pt x="1193" y="606" on="0"/>
        <pt x="1284" y="710" on="1"/>
        <pt x="1126" y="710" on="1"/>
        <pt x="1043" y="624" on="0"/>
        <pt x="868" y="451" on="0"/>
        <pt x="682" y="291" on="0"/>
        <pt x="484" y="150" on="0"/>
        <pt x="378" y="96" on="1"/>
        <pt x="322" y="68" on="0"/>
        <pt x="226" y="30" on="0"/>
        <pt x="139" y="8" on="0"/>
        <pt x="58" y="-2" on="0"/>
        <pt x="18" y="-2" on="1"/>
        <pt x="-33" y="-2" on="0"/>
        <pt x="-104" y="27" on="0"/>
        <pt x="-148" y="72" on="0"/>
        <pt x="-168" y="126" on="0"/>
        <pt x="-168" y="152" on="1"/>
        <pt x="-168" y="183" on="0"/>
        <pt x="-146" y="236" on="0"/>
        <pt x="-110" y="275" on="0"/>
        <pt x="-63" y="296" on="0"/>
        <pt x="-38" y="296" on="1"/>
        <pt x="-24" y="296" on="0"/>
        <pt x="4" y="289" on="0"/>
        <pt x="25" y="272" on="0"/>
        <pt x="38" y="242" on="0"/>
        <pt x="38" y="220" on="1"/>
        <pt x="38" y="188" on="0"/>
        <pt x="7" y="148" on="0"/>
        <pt x="-29" y="120" on="0"/>
        <pt x="-60" y="97" on="0"/>
        <pt x="-60" y="82" on="1"/>
        <pt x="-60" y="71" on="0"/>
        <pt x="-42" y="56" on="0"/>
        <pt x="-16" y="47" on="0"/>
        <pt x="14" y="44" on="0"/>
        <pt x="26" y="44" on="1"/>
        <pt x="74" y="44" on="0"/>
        <pt x="155" y="55" on="0"/>
        <pt x="232" y="77" on="0"/>
        <pt x="311" y="110" on="0"/>
        <pt x="358" y="132" on="1"/>
        <pt x="387" y="145" on="0"/>
        <pt x="465" y="193" on="0"/>
        <pt x="554" y="255" on="0"/>
        <pt x="646" y="325" on="0"/>
        <pt x="732" y="395" on="0"/>
        <pt x="805" y="460" on="0"/>
        <pt x="830" y="486" on="1"/>
      </contour>
      <contour>
        <pt x="1200" y="786" on="1"/>
        <pt x="1346" y="780" on="1"/>
        <pt x="1390" y="830" on="0"/>
        <pt x="1465" y="914" on="0"/>
        <pt x="1535" y="991" on="0"/>
        <pt x="1604" y="1066" on="0"/>
        <pt x="1683" y="1149" on="0"/>
        <pt x="1775" y="1242" on="0"/>
        <pt x="1832" y="1300" on="1"/>
        <pt x="1771" y="1265" on="0"/>
        <pt x="1623" y="1162" on="0"/>
        <pt x="1473" y="1044" on="0"/>
        <pt x="1334" y="922" on="0"/>
        <pt x="1282" y="870" on="1"/>
      </contour>
    </TTGlyph>
    <TTGlyph name="B" xMin="592" yMin="-4" xMax="2598" yMax="1494">
      <contour>
        <pt x="2260" y="1398" on="1"/>
        <pt x="2216" y="1398" on="0"/>
        <pt x="2116" y="1394" on="0"/>
        <pt x="2008" y="1381" on="0"/>
        <pt x="1896" y="1356" on="0"/>
        <pt x="1840" y="1336" on="1"/>
        <pt x="1788" y="1317" on="0"/>
        <pt x="1690" y="1266" on="0"/>
        <pt x="1613" y="1201" on="0"/>
        <pt x="1566" y="1123" on="0"/>
        <pt x="1566" y="1078" on="1"/>
        <pt x="1566" y="1052" on="0"/>
        <pt x="1584" y="1018" on="0"/>
        <pt x="1596" y="1018" on="1"/>
        <pt x="1632" y="1018" on="0"/>
        <pt x="1709" y="1048" on="0"/>
        <pt x="1785" y="1097" on="0"/>
        <pt x="1858" y="1160" on="0"/>
        <pt x="1922" y="1225" on="0"/>
        <pt x="1975" y="1287" on="0"/>
        <pt x="1994" y="1312" on="1"/>
        <pt x="2010" y="1286" on="1"/>
        <pt x="1961" y="1192" on="0"/>
        <pt x="1899" y="1118" on="1"/>
        <pt x="1872" y="1086" on="0"/>
        <pt x="1808" y="1026" on="0"/>
        <pt x="1733" y="979" on="0"/>
        <pt x="1647" y="950" on="0"/>
        <pt x="1600" y="950" on="1"/>
        <pt x="1579" y="950" on="0"/>
        <pt x="1544" y="971" on="0"/>
        <pt x="1518" y="1005" on="0"/>
        <pt x="1504" y="1049" on="0"/>
        <pt x="1504" y="1072" on="1"/>
        <pt x="1504" y="1100" on="0"/>
        <pt x="1526" y="1157" on="0"/>
        <pt x="1563" y="1212" on="0"/>
        <pt x="1613" y="1262" on="0"/>
        <pt x="1642" y="1282" on="1"/>
        <pt x="1698" y="1321" on="0"/>
        <pt x="1840" y="1381" on="0"/>
        <pt x="1999" y="1421" on="0"/>
        <pt x="2166" y="1442" on="0"/>
        <pt x="2248" y="1442" on="1"/>
        <pt x="2263" y="1442" on="0"/>
        <pt x="2293" y="1442" on="0"/>
        <pt x="2308" y="1440" on="1"/>
        <pt x="2356" y="1437" on="0"/>
        <pt x="2398" y="1428" on="1"/>
        <pt x="2479" y="1470" on="0"/>
        <pt x="2566" y="1494" on="1"/>
        <pt x="2582" y="1468" on="1"/>
        <pt x="2555" y="1451" on="0"/>
        <pt x="2502" y="1420" on="0"/>
        <pt x="2478" y="1402" on="1"/>
        <pt x="2538" y="1375" on="0"/>
        <pt x="2598" y="1289" on="0"/>
        <pt x="2598" y="1236" on="1"/>
        <pt x="2598" y="1195" on="0"/>
        <pt x="2568" y="1112" on="0"/>
        <pt x="2514" y="1035" on="0"/>
        <pt x="2441" y="969" on="0"/>
        <pt x="2398" y="944" on="1"/>
        <pt x="2427" y="909" on="0"/>
        <pt x="2456" y="822" on="0"/>
        <pt x="2456" y="780" on="1"/>
        <pt x="2456" y="710" on="0"/>
        <pt x="2408" y="556" on="0"/>
        <pt x="2324" y="404" on="0"/>
        <pt x="2209" y="260" on="0"/>
        <pt x="2073" y="139" on="0"/>
        <pt x="1923" y="46" on="0"/>
        <pt x="1846" y="22" on="1"/>
        <pt x="1832" y="17" on="0"/>
        <pt x="1795" y="10" on="0"/>
        <pt x="1756" y="5" on="0"/>
        <pt x="1719" y="2" on="0"/>
        <pt x="1706" y="2" on="1"/>
        <pt x="1677" y="2" on="0"/>
        <pt x="1627" y="17" on="0"/>
        <pt x="1590" y="51" on="0"/>
        <pt x="1568" y="107" on="0"/>
        <pt x="1568" y="148" on="1"/>
        <pt x="1568" y="185" on="0"/>
        <pt x="1586" y="267" on="0"/>
        <pt x="1634" y="360" on="0"/>
        <pt x="1716" y="466" on="0"/>
        <pt x="1780" y="528" on="1"/>
        <pt x="1794" y="506" on="1"/>
        <pt x="1770" y="480" on="0"/>
        <pt x="1709" y="408" on="0"/>
        <pt x="1655" y="322" on="0"/>
        <pt x="1618" y="227" on="0"/>
        <pt x="1618" y="180" on="1"/>
        <pt x="1618" y="126" on="0"/>
        <pt x="1661" y="84" on="0"/>
        <pt x="1696" y="84" on="1"/>
        <pt x="1752" y="84" on="0"/>
        <pt x="1861" y="126" on="0"/>
        <pt x="1964" y="195" on="0"/>
        <pt x="2059" y="284" on="0"/>
        <pt x="2142" y="381" on="0"/>
        <pt x="2209" y="477" on="0"/>
        <pt x="2234" y="518" on="1"/>
        <pt x="2247" y="540" on="0"/>
        <pt x="2279" y="605" on="0"/>
        <pt x="2308" y="682" on="0"/>
        <pt x="2328" y="764" on="0"/>
        <pt x="2328" y="802" on="1"/>
        <pt x="2328" y="831" on="0"/>
        <pt x="2319" y="885" on="0"/>
        <pt x="2310" y="906" on="1"/>
        <pt x="2286" y="898" on="0"/>
        <pt x="2238" y="892" on="0"/>
        <pt x="2214" y="892" on="1"/>
        <pt x="2206" y="892" on="1"/>
        <pt x="2185" y="893" on="0"/>
        <pt x="2153" y="908" on="0"/>
        <pt x="2131" y="929" on="0"/>
        <pt x="2120" y="953" on="0"/>
        <pt x="2120" y="964" on="1"/>
        <pt x="2120" y="991" on="0"/>
        <pt x="2167" y="1034" on="0"/>
        <pt x="2218" y="1034" on="1"/>
        <pt x="2254" y="1034" on="0"/>
        <pt x="2318" y="1014" on="0"/>
        <pt x="2344" y="996" on="1"/>
        <pt x="2371" y="1019" on="0"/>
        <pt x="2425" y="1076" on="0"/>
        <pt x="2467" y="1137" on="0"/>
        <pt x="2494" y="1199" on="0"/>
        <pt x="2494" y="1228" on="1"/>
        <pt x="2494" y="1270" on="0"/>
        <pt x="2467" y="1342" on="0"/>
        <pt x="2426" y="1366" on="1"/>
        <pt x="2359" y="1315" on="0"/>
        <pt x="2244" y="1207" on="0"/>
        <pt x="2142" y="1100" on="0"/>
        <pt x="2054" y="998" on="0"/>
        <pt x="2014" y="954" on="1"/>
        <pt x="1984" y="921" on="0"/>
        <pt x="1904" y="828" on="0"/>
        <pt x="1810" y="721" on="0"/>
        <pt x="1708" y="605" on="0"/>
        <pt x="1605" y="488" on="0"/>
        <pt x="1503" y="377" on="0"/>
        <pt x="1458" y="330" on="1"/>
        <pt x="1388" y="257" on="0"/>
        <pt x="1242" y="135" on="0"/>
        <pt x="1084" y="46" on="0"/>
        <pt x="914" y="-4" on="0"/>
        <pt x="820" y="-4" on="1"/>
        <pt x="711" y="-4" on="0"/>
        <pt x="592" y="80" on="0"/>
        <pt x="592" y="148" on="1"/>
        <pt x="592" y="173" on="0"/>
        <pt x="608" y="226" on="0"/>
        <pt x="641" y="269" on="0"/>
        <pt x="690" y="296" on="0"/>
        <pt x="722" y="296" on="1"/>
        <pt x="758" y="296" on="0"/>
        <pt x="798" y="258" on="0"/>
        <pt x="798" y="222" on="1"/>
        <pt x="798" y="189" on="0"/>
        <pt x="767" y="148" on="0"/>
        <pt x="731" y="120" on="0"/>
        <pt x="700" y="97" on="0"/>
        <pt x="700" y="82" on="1"/>
        <pt x="700" y="61" on="0"/>
        <pt x="748" y="40" on="0"/>
        <pt x="790" y="40" on="1"/>
        <pt x="870" y="40" on="0"/>
        <pt x="1008" y="88" on="0"/>
        <pt x="1134" y="174" on="0"/>
        <pt x="1255" y="294" on="0"/>
        <pt x="1318" y="366" on="1"/>
        <pt x="1415" y="476" on="0"/>
        <pt x="1640" y="728" on="0"/>
        <pt x="1758" y="862" on="1"/>
        <pt x="1816" y="928" on="0"/>
        <pt x="1949" y="1072" on="0"/>
        <pt x="2095" y="1213" on="0"/>
        <pt x="2253" y="1342" on="0"/>
        <pt x="2336" y="1392" on="1"/>
        <pt x="2303" y="1398" on="0"/>
      </contour>
    </TTGlyph>
    <TTGlyph name="C" xMin="912" yMin="-2" xMax="2438" yMax="1494">
      <contour>
        <pt x="2376" y="1452" on="1"/>
        <pt x="2405" y="1429" on="0"/>
        <pt x="2438" y="1359" on="0"/>
        <pt x="2438" y="1320" on="1"/>
        <pt x="2438" y="1273" on="0"/>
        <pt x="2392" y="1191" on="0"/>
        <pt x="2320" y="1130" on="0"/>
        <pt x="2235" y="1094" on="0"/>
        <pt x="2196" y="1094" on="1"/>
        <pt x="2179" y="1094" on="0"/>
        <pt x="2139" y="1100" on="0"/>
        <pt x="2105" y="1116" on="0"/>
        <pt x="2082" y="1145" on="0"/>
        <pt x="2082" y="1168" on="1"/>
        <pt x="2082" y="1187" on="0"/>
        <pt x="2099" y="1222" on="0"/>
        <pt x="2128" y="1249" on="0"/>
        <pt x="2166" y="1266" on="0"/>
        <pt x="2186" y="1266" on="1"/>
        <pt x="2212" y="1266" on="0"/>
        <pt x="2234" y="1242" on="0"/>
        <pt x="2234" y="1230" on="1"/>
        <pt x="2234" y="1210" on="0"/>
        <pt x="2209" y="1188" on="0"/>
        <pt x="2179" y="1173" on="0"/>
        <pt x="2154" y="1161" on="0"/>
        <pt x="2154" y="1152" on="1"/>
        <pt x="2154" y="1136" on="0"/>
        <pt x="2186" y="1136" on="1"/>
        <pt x="2208" y="1136" on="0"/>
        <pt x="2264" y="1159" on="0"/>
        <pt x="2314" y="1205" on="0"/>
        <pt x="2348" y="1274" on="0"/>
        <pt x="2348" y="1320" on="1"/>
        <pt x="2348" y="1362" on="0"/>
        <pt x="2292" y="1414" on="0"/>
        <pt x="2238" y="1414" on="1"/>
        <pt x="2184" y="1414" on="0"/>
        <pt x="2033" y="1361" on="0"/>
        <pt x="1859" y="1267" on="0"/>
        <pt x="1670" y="1136" on="0"/>
        <pt x="1487" y="978" on="0"/>
        <pt x="1317" y="799" on="0"/>
        <pt x="1179" y="610" on="0"/>
        <pt x="1084" y="415" on="0"/>
        <pt x="1066" y="320" on="1"/>
        <pt x="1054" y="251" on="0"/>
        <pt x="1054" y="204" on="1"/>
        <pt x="1054" y="166" on="0"/>
        <pt x="1083" y="114" on="0"/>
        <pt x="1134" y="82" on="0"/>
        <pt x="1203" y="68" on="0"/>
        <pt x="1242" y="68" on="1"/>
        <pt x="1302" y="68" on="0"/>
        <pt x="1431" y="96" on="0"/>
        <pt x="1547" y="135" on="0"/>
        <pt x="1637" y="176" on="0"/>
        <pt x="1658" y="190" on="1"/>
        <pt x="1661" y="182" on="0"/>
        <pt x="1666" y="171" on="0"/>
        <pt x="1668" y="166" on="1"/>
        <pt x="1639" y="146" on="0"/>
        <pt x="1527" y="88" on="0"/>
        <pt x="1384" y="35" on="0"/>
        <pt x="1221" y="-2" on="0"/>
        <pt x="1140" y="-2" on="1"/>
        <pt x="1031" y="-2" on="0"/>
        <pt x="912" y="110" on="0"/>
        <pt x="912" y="226" on="1"/>
        <pt x="912" y="323" on="0"/>
        <pt x="986" y="536" on="0"/>
        <pt x="1115" y="751" on="0"/>
        <pt x="1289" y="960" on="0"/>
        <pt x="1488" y="1149" on="0"/>
        <pt x="1705" y="1309" on="0"/>
        <pt x="1918" y="1427" on="0"/>
        <pt x="2119" y="1494" on="0"/>
        <pt x="2204" y="1494" on="1"/>
        <pt x="2223" y="1494" on="0"/>
        <pt x="2270" y="1491" on="0"/>
        <pt x="2316" y="1482" on="0"/>
        <pt x="2359" y="1465" on="0"/>
      </contour>
    </TTGlyph>
    <TTGlyph name="Ccaron" xMin="854" yMin="0" xMax="2610" yMax="1800">
      <contour>
        <pt x="2344" y="1682" on="1"/>
        <pt x="2610" y="1772" on="1"/>
        <pt x="2588" y="1712" on="1"/>
        <pt x="2330" y="1572" on="1"/>
        <pt x="2214" y="1740" on="1"/>
        <pt x="2192" y="1800" on="1"/>
      </contour>
      <contour>
        <pt x="2318" y="1454" on="1"/>
        <pt x="2347" y="1431" on="0"/>
        <pt x="2380" y="1361" on="0"/>
        <pt x="2380" y="1322" on="1"/>
        <pt x="2380" y="1275" on="0"/>
        <pt x="2334" y="1193" on="0"/>
        <pt x="2262" y="1132" on="0"/>
        <pt x="2177" y="1096" on="0"/>
        <pt x="2138" y="1096" on="1"/>
        <pt x="2121" y="1096" on="0"/>
        <pt x="2081" y="1102" on="0"/>
        <pt x="2047" y="1118" on="0"/>
        <pt x="2024" y="1147" on="0"/>
        <pt x="2024" y="1170" on="1"/>
        <pt x="2024" y="1189" on="0"/>
        <pt x="2041" y="1224" on="0"/>
        <pt x="2070" y="1251" on="0"/>
        <pt x="2108" y="1268" on="0"/>
        <pt x="2128" y="1268" on="1"/>
        <pt x="2154" y="1268" on="0"/>
        <pt x="2176" y="1244" on="0"/>
        <pt x="2176" y="1232" on="1"/>
        <pt x="2176" y="1212" on="0"/>
        <pt x="2151" y="1190" on="0"/>
        <pt x="2121" y="1175" on="0"/>
        <pt x="2096" y="1163" on="0"/>
        <pt x="2096" y="1154" on="1"/>
        <pt x="2096" y="1138" on="0"/>
        <pt x="2128" y="1138" on="1"/>
        <pt x="2150" y="1138" on="0"/>
        <pt x="2206" y="1161" on="0"/>
        <pt x="2256" y="1207" on="0"/>
        <pt x="2290" y="1276" on="0"/>
        <pt x="2290" y="1322" on="1"/>
        <pt x="2290" y="1364" on="0"/>
        <pt x="2234" y="1416" on="0"/>
        <pt x="2180" y="1416" on="1"/>
        <pt x="2126" y="1416" on="0"/>
        <pt x="1975" y="1363" on="0"/>
        <pt x="1801" y="1269" on="0"/>
        <pt x="1612" y="1138" on="0"/>
        <pt x="1429" y="980" on="0"/>
        <pt x="1259" y="801" on="0"/>
        <pt x="1121" y="612" on="0"/>
        <pt x="1026" y="417" on="0"/>
        <pt x="1008" y="322" on="1"/>
        <pt x="996" y="253" on="0"/>
        <pt x="996" y="206" on="1"/>
        <pt x="996" y="168" on="0"/>
        <pt x="1025" y="116" on="0"/>
        <pt x="1076" y="84" on="0"/>
        <pt x="1145" y="70" on="0"/>
        <pt x="1184" y="70" on="1"/>
        <pt x="1244" y="70" on="0"/>
        <pt x="1373" y="98" on="0"/>
        <pt x="1489" y="137" on="0"/>
        <pt x="1579" y="178" on="0"/>
        <pt x="1600" y="192" on="1"/>
        <pt x="1603" y="184" on="0"/>
        <pt x="1608" y="173" on="0"/>
        <pt x="1610" y="168" on="1"/>
        <pt x="1581" y="148" on="0"/>
        <pt x="1469" y="90" on="0"/>
        <pt x="1326" y="37" on="0"/>
        <pt x="1163" y="0" on="0"/>
        <pt x="1082" y="0" on="1"/>
        <pt x="973" y="0" on="0"/>
        <pt x="854" y="112" on="0"/>
        <pt x="854" y="228" on="1"/>
        <pt x="854" y="325" on="0"/>
        <pt x="928" y="538" on="0"/>
        <pt x="1057" y="753" on="0"/>
        <pt x="1231" y="962" on="0"/>
        <pt x="1430" y="1151" on="0"/>
        <pt x="1647" y="1311" on="0"/>
        <pt x="1860" y="1429" on="0"/>
        <pt x="2061" y="1496" on="0"/>
        <pt x="2146" y="1496" on="1"/>
        <pt x="2165" y="1496" on="0"/>
        <pt x="2212" y="1493" on="0"/>
        <pt x="2258" y="1484" on="0"/>
        <pt x="2301" y="1467" on="0"/>
      </contour>
    </TTGlyph>
    <TTGlyph name="Ccedilla" xMin="626" yMin="-414" xMax="2318" yMax="1496">
      <contour>
        <pt x="1078" y="-72" on="1"/>
        <pt x="1102" y="-87" on="0"/>
        <pt x="1120" y="-134" on="0"/>
        <pt x="1120" y="-170" on="1"/>
        <pt x="1120" y="-194" on="0"/>
        <pt x="1107" y="-242" on="0"/>
        <pt x="1096" y="-262" on="1"/>
        <pt x="1070" y="-311" on="0"/>
        <pt x="998" y="-370" on="0"/>
        <pt x="917" y="-403" on="0"/>
        <pt x="829" y="-414" on="0"/>
        <pt x="786" y="-414" on="1"/>
        <pt x="757" y="-414" on="0"/>
        <pt x="699" y="-396" on="0"/>
        <pt x="654" y="-362" on="0"/>
        <pt x="626" y="-314" on="0"/>
        <pt x="626" y="-284" on="1"/>
        <pt x="626" y="-239" on="0"/>
        <pt x="677" y="-182" on="0"/>
        <pt x="712" y="-182" on="1"/>
        <pt x="750" y="-182" on="0"/>
        <pt x="750" y="-220" on="1"/>
        <pt x="750" y="-243" on="0"/>
        <pt x="722" y="-263" on="0"/>
        <pt x="689" y="-272" on="0"/>
        <pt x="662" y="-280" on="0"/>
        <pt x="662" y="-292" on="1"/>
        <pt x="662" y="-304" on="0"/>
        <pt x="674" y="-331" on="0"/>
        <pt x="701" y="-353" on="0"/>
        <pt x="741" y="-368" on="0"/>
        <pt x="770" y="-368" on="1"/>
        <pt x="808" y="-368" on="0"/>
        <pt x="885" y="-338" on="0"/>
        <pt x="947" y="-284" on="0"/>
        <pt x="986" y="-210" on="0"/>
        <pt x="986" y="-166" on="1"/>
        <pt x="986" y="-149" on="0"/>
        <pt x="972" y="-126" on="0"/>
        <pt x="948" y="-113" on="0"/>
        <pt x="917" y="-108" on="0"/>
        <pt x="900" y="-108" on="1"/>
        <pt x="883" y="-108" on="0"/>
        <pt x="849" y="-111" on="0"/>
        <pt x="834" y="-114" on="1"/>
        <pt x="830" y="-96" on="1"/>
        <pt x="924" y="14" on="1"/>
        <pt x="861" y="35" on="0"/>
        <pt x="792" y="140" on="0"/>
        <pt x="792" y="228" on="1"/>
        <pt x="792" y="325" on="0"/>
        <pt x="866" y="538" on="0"/>
        <pt x="995" y="753" on="0"/>
        <pt x="1169" y="962" on="0"/>
        <pt x="1368" y="1151" on="0"/>
        <pt x="1585" y="1311" on="0"/>
        <pt x="1798" y="1429" on="0"/>
        <pt x="1999" y="1496" on="0"/>
        <pt x="2084" y="1496" on="1"/>
        <pt x="2103" y="1496" on="0"/>
        <pt x="2150" y="1493" on="0"/>
        <pt x="2196" y="1484" on="0"/>
        <pt x="2239" y="1467" on="0"/>
        <pt x="2256" y="1454" on="1"/>
        <pt x="2285" y="1431" on="0"/>
        <pt x="2318" y="1361" on="0"/>
        <pt x="2318" y="1322" on="1"/>
        <pt x="2318" y="1275" on="0"/>
        <pt x="2272" y="1193" on="0"/>
        <pt x="2200" y="1132" on="0"/>
        <pt x="2115" y="1096" on="0"/>
        <pt x="2076" y="1096" on="1"/>
        <pt x="2059" y="1096" on="0"/>
        <pt x="2019" y="1102" on="0"/>
        <pt x="1985" y="1118" on="0"/>
        <pt x="1962" y="1147" on="0"/>
        <pt x="1962" y="1170" on="1"/>
        <pt x="1962" y="1189" on="0"/>
        <pt x="1979" y="1224" on="0"/>
        <pt x="2008" y="1251" on="0"/>
        <pt x="2046" y="1268" on="0"/>
        <pt x="2066" y="1268" on="1"/>
        <pt x="2092" y="1268" on="0"/>
        <pt x="2114" y="1244" on="0"/>
        <pt x="2114" y="1232" on="1"/>
        <pt x="2114" y="1212" on="0"/>
        <pt x="2089" y="1190" on="0"/>
        <pt x="2059" y="1175" on="0"/>
        <pt x="2034" y="1163" on="0"/>
        <pt x="2034" y="1154" on="1"/>
        <pt x="2034" y="1138" on="0"/>
        <pt x="2066" y="1138" on="1"/>
        <pt x="2088" y="1138" on="0"/>
        <pt x="2144" y="1161" on="0"/>
        <pt x="2194" y="1207" on="0"/>
        <pt x="2228" y="1276" on="0"/>
        <pt x="2228" y="1322" on="1"/>
        <pt x="2228" y="1364" on="0"/>
        <pt x="2172" y="1416" on="0"/>
        <pt x="2118" y="1416" on="1"/>
        <pt x="2064" y="1416" on="0"/>
        <pt x="1913" y="1363" on="0"/>
        <pt x="1739" y="1269" on="0"/>
        <pt x="1550" y="1138" on="0"/>
        <pt x="1367" y="980" on="0"/>
        <pt x="1197" y="801" on="0"/>
        <pt x="1059" y="612" on="0"/>
        <pt x="964" y="417" on="0"/>
        <pt x="946" y="322" on="1"/>
        <pt x="934" y="253" on="0"/>
        <pt x="934" y="206" on="1"/>
        <pt x="934" y="168" on="0"/>
        <pt x="963" y="116" on="0"/>
        <pt x="1014" y="84" on="0"/>
        <pt x="1083" y="70" on="0"/>
        <pt x="1122" y="70" on="1"/>
        <pt x="1182" y="70" on="0"/>
        <pt x="1311" y="98" on="0"/>
        <pt x="1427" y="137" on="0"/>
        <pt x="1517" y="178" on="0"/>
        <pt x="1538" y="192" on="1"/>
        <pt x="1541" y="184" on="0"/>
        <pt x="1546" y="173" on="0"/>
        <pt x="1548" y="168" on="1"/>
        <pt x="1519" y="148" on="0"/>
        <pt x="1407" y="90" on="0"/>
        <pt x="1264" y="37" on="0"/>
        <pt x="1101" y="0" on="0"/>
        <pt x="1020" y="0" on="1"/>
        <pt x="1004" y="0" on="1"/>
        <pt x="966" y="-46" on="1"/>
        <pt x="986" y="-46" on="1"/>
        <pt x="1009" y="-46" on="0"/>
        <pt x="1055" y="-58" on="0"/>
      </contour>
    </TTGlyph>
    <TTGlyph name="D" xMin="844" yMin="-2" xMax="2822" yMax="1514">
      <contour>
        <pt x="2398" y="1514" on="1"/>
        <pt x="2475" y="1514" on="0"/>
        <pt x="2578" y="1465" on="0"/>
        <pt x="2608" y="1420" on="1"/>
        <pt x="2664" y="1452" on="0"/>
        <pt x="2767" y="1493" on="0"/>
        <pt x="2806" y="1496" on="1"/>
        <pt x="2822" y="1470" on="1"/>
        <pt x="2775" y="1443" on="0"/>
        <pt x="2685" y="1380" on="0"/>
        <pt x="2640" y="1344" on="1"/>
        <pt x="2646" y="1318" on="0"/>
        <pt x="2654" y="1260" on="0"/>
        <pt x="2654" y="1228" on="1"/>
        <pt x="2654" y="1066" on="0"/>
        <pt x="2570" y="788" on="0"/>
        <pt x="2428" y="555" on="0"/>
        <pt x="2240" y="364" on="0"/>
        <pt x="2031" y="215" on="0"/>
        <pt x="1815" y="105" on="0"/>
        <pt x="1616" y="34" on="0"/>
        <pt x="1448" y="-2" on="0"/>
        <pt x="1392" y="-2" on="1"/>
        <pt x="1344" y="-2" on="0"/>
        <pt x="1240" y="28" on="0"/>
        <pt x="1186" y="48" on="1"/>
        <pt x="1126" y="31" on="0"/>
        <pt x="1015" y="16" on="0"/>
        <pt x="964" y="16" on="1"/>
        <pt x="946" y="16" on="0"/>
        <pt x="904" y="25" on="0"/>
        <pt x="868" y="44" on="0"/>
        <pt x="844" y="74" on="0"/>
        <pt x="844" y="94" on="1"/>
        <pt x="844" y="109" on="0"/>
        <pt x="867" y="134" on="0"/>
        <pt x="901" y="152" on="0"/>
        <pt x="941" y="162" on="0"/>
        <pt x="958" y="162" on="1"/>
        <pt x="1015" y="162" on="0"/>
        <pt x="1119" y="130" on="0"/>
        <pt x="1170" y="110" on="1"/>
        <pt x="1245" y="144" on="0"/>
        <pt x="1389" y="240" on="0"/>
        <pt x="1511" y="338" on="0"/>
        <pt x="1603" y="423" on="0"/>
        <pt x="1626" y="446" on="1"/>
        <pt x="1655" y="467" on="0"/>
        <pt x="1751" y="563" on="0"/>
        <pt x="1865" y="687" on="0"/>
        <pt x="1989" y="830" on="0"/>
        <pt x="2107" y="967" on="0"/>
        <pt x="2209" y="1087" on="0"/>
        <pt x="2244" y="1128" on="1"/>
        <pt x="2268" y="1156" on="0"/>
        <pt x="2339" y="1224" on="0"/>
        <pt x="2425" y="1295" on="0"/>
        <pt x="2520" y="1365" on="0"/>
        <pt x="2568" y="1396" on="1"/>
        <pt x="2544" y="1444" on="0"/>
        <pt x="2467" y="1476" on="0"/>
        <pt x="2420" y="1476" on="1"/>
        <pt x="2308" y="1476" on="0"/>
        <pt x="2098" y="1401" on="0"/>
        <pt x="1916" y="1281" on="0"/>
        <pt x="1765" y="1129" on="0"/>
        <pt x="1657" y="973" on="0"/>
        <pt x="1598" y="828" on="0"/>
        <pt x="1598" y="776" on="1"/>
        <pt x="1598" y="755" on="0"/>
        <pt x="1629" y="734" on="0"/>
        <pt x="1658" y="734" on="1"/>
        <pt x="1692" y="734" on="0"/>
        <pt x="1776" y="758" on="0"/>
        <pt x="1878" y="830" on="0"/>
        <pt x="2002" y="965" on="0"/>
        <pt x="2078" y="1076" on="1"/>
        <pt x="2094" y="1058" on="1"/>
        <pt x="2044" y="963" on="0"/>
        <pt x="1936" y="810" on="0"/>
        <pt x="1819" y="702" on="0"/>
        <pt x="1696" y="644" on="0"/>
        <pt x="1632" y="644" on="1"/>
        <pt x="1581" y="644" on="0"/>
        <pt x="1521" y="681" on="0"/>
        <pt x="1489" y="744" on="0"/>
        <pt x="1480" y="824" on="0"/>
        <pt x="1480" y="868" on="1"/>
        <pt x="1480" y="933" on="0"/>
        <pt x="1541" y="1079" on="0"/>
        <pt x="1656" y="1223" on="0"/>
        <pt x="1819" y="1354" on="0"/>
        <pt x="2023" y="1454" on="0"/>
        <pt x="2263" y="1514" on="0"/>
      </contour>
      <contour>
        <pt x="2000" y="646" on="1"/>
        <pt x="1900" y="527" on="0"/>
        <pt x="1707" y="341" on="0"/>
        <pt x="1522" y="201" on="0"/>
        <pt x="1346" y="104" on="0"/>
        <pt x="1264" y="74" on="1"/>
        <pt x="1297" y="62" on="0"/>
        <pt x="1366" y="48" on="0"/>
        <pt x="1402" y="48" on="1"/>
        <pt x="1472" y="48" on="0"/>
        <pt x="1651" y="93" on="0"/>
        <pt x="1846" y="179" on="0"/>
        <pt x="2049" y="301" on="0"/>
        <pt x="2239" y="455" on="0"/>
        <pt x="2407" y="637" on="0"/>
        <pt x="2532" y="843" on="0"/>
        <pt x="2604" y="1068" on="0"/>
        <pt x="2604" y="1188" on="1"/>
        <pt x="2604" y="1223" on="0"/>
        <pt x="2601" y="1284" on="0"/>
        <pt x="2596" y="1308" on="1"/>
        <pt x="2521" y="1246" on="0"/>
        <pt x="2386" y="1110" on="0"/>
        <pt x="2330" y="1042" on="1"/>
      </contour>
      <contour>
        <pt x="968" y="106" on="1"/>
        <pt x="944" y="106" on="0"/>
        <pt x="914" y="95" on="0"/>
        <pt x="914" y="86" on="1"/>
        <pt x="914" y="74" on="0"/>
        <pt x="952" y="60" on="0"/>
        <pt x="970" y="60" on="1"/>
        <pt x="1000" y="60" on="0"/>
        <pt x="1062" y="71" on="0"/>
        <pt x="1094" y="80" on="1"/>
        <pt x="1061" y="91" on="0"/>
        <pt x="998" y="104" on="0"/>
      </contour>
    </TTGlyph>
    <TTGlyph name="E" xMin="1038" yMin="8" xMax="2350" yMax="1490">
      <contour>
        <pt x="1714" y="1300" on="1"/>
        <pt x="1705" y="1298" on="0"/>
        <pt x="1665" y="1279" on="0"/>
        <pt x="1614" y="1249" on="0"/>
        <pt x="1561" y="1208" on="0"/>
        <pt x="1516" y="1159" on="0"/>
        <pt x="1488" y="1103" on="0"/>
        <pt x="1488" y="1074" on="1"/>
        <pt x="1488" y="1052" on="0"/>
        <pt x="1507" y="1015" on="0"/>
        <pt x="1548" y="988" on="0"/>
        <pt x="1612" y="972" on="0"/>
        <pt x="1658" y="972" on="1"/>
        <pt x="1681" y="972" on="0"/>
        <pt x="1727" y="975" on="0"/>
        <pt x="1750" y="980" on="1"/>
        <pt x="1750" y="1006" on="1"/>
        <pt x="1750" y="1075" on="0"/>
        <pt x="1793" y="1201" on="0"/>
        <pt x="1865" y="1309" on="0"/>
        <pt x="1962" y="1396" on="0"/>
        <pt x="2068" y="1457" on="0"/>
        <pt x="2179" y="1490" on="0"/>
        <pt x="2230" y="1490" on="1"/>
        <pt x="2264" y="1490" on="0"/>
        <pt x="2310" y="1469" on="0"/>
        <pt x="2338" y="1436" on="0"/>
        <pt x="2350" y="1395" on="0"/>
        <pt x="2350" y="1376" on="1"/>
        <pt x="2350" y="1350" on="0"/>
        <pt x="2333" y="1278" on="0"/>
        <pt x="2263" y="1185" on="0"/>
        <pt x="2121" y="1071" on="0"/>
        <pt x="1996" y="1004" on="1"/>
        <pt x="1960" y="984" on="0"/>
        <pt x="1894" y="957" on="0"/>
        <pt x="1864" y="948" on="1"/>
        <pt x="1871" y="915" on="0"/>
        <pt x="1899" y="863" on="0"/>
        <pt x="1913" y="845" on="1"/>
        <pt x="1930" y="824" on="0"/>
        <pt x="1948" y="808" on="1"/>
        <pt x="1924" y="784" on="1"/>
        <pt x="1904" y="798" on="0"/>
        <pt x="1845" y="818" on="0"/>
        <pt x="1800" y="818" on="1"/>
        <pt x="1772" y="816" on="1"/>
        <pt x="1720" y="811" on="0"/>
        <pt x="1590" y="760" on="0"/>
        <pt x="1455" y="678" on="0"/>
        <pt x="1327" y="572" on="0"/>
        <pt x="1227" y="453" on="0"/>
        <pt x="1166" y="328" on="0"/>
        <pt x="1166" y="268" on="1"/>
        <pt x="1166" y="235" on="0"/>
        <pt x="1177" y="168" on="0"/>
        <pt x="1216" y="114" on="0"/>
        <pt x="1293" y="80" on="0"/>
        <pt x="1358" y="80" on="1"/>
        <pt x="1418" y="80" on="0"/>
        <pt x="1538" y="120" on="0"/>
        <pt x="1646" y="187" on="0"/>
        <pt x="1738" y="274" on="0"/>
        <pt x="1806" y="368" on="0"/>
        <pt x="1844" y="463" on="0"/>
        <pt x="1844" y="504" on="1"/>
        <pt x="1844" y="536" on="0"/>
        <pt x="1822" y="581" on="0"/>
        <pt x="1786" y="608" on="0"/>
        <pt x="1739" y="620" on="0"/>
        <pt x="1714" y="620" on="1"/>
        <pt x="1660" y="620" on="0"/>
        <pt x="1539" y="572" on="0"/>
        <pt x="1424" y="487" on="0"/>
        <pt x="1322" y="368" on="0"/>
        <pt x="1288" y="298" on="1"/>
        <pt x="1280" y="306" on="1"/>
        <pt x="1292" y="341" on="0"/>
        <pt x="1340" y="429" on="0"/>
        <pt x="1404" y="519" on="0"/>
        <pt x="1483" y="604" on="0"/>
        <pt x="1571" y="670" on="0"/>
        <pt x="1666" y="710" on="0"/>
        <pt x="1714" y="710" on="1"/>
        <pt x="1749" y="710" on="0"/>
        <pt x="1809" y="678" on="0"/>
        <pt x="1852" y="625" on="0"/>
        <pt x="1876" y="557" on="0"/>
        <pt x="1876" y="522" on="1"/>
        <pt x="1876" y="459" on="0"/>
        <pt x="1825" y="334" on="0"/>
        <pt x="1739" y="220" on="0"/>
        <pt x="1624" y="121" on="0"/>
        <pt x="1496" y="49" on="0"/>
        <pt x="1363" y="8" on="0"/>
        <pt x="1302" y="8" on="1"/>
        <pt x="1253" y="8" on="0"/>
        <pt x="1159" y="41" on="0"/>
        <pt x="1084" y="108" on="0"/>
        <pt x="1038" y="208" on="0"/>
        <pt x="1038" y="276" on="1"/>
        <pt x="1038" y="358" on="0"/>
        <pt x="1093" y="511" on="0"/>
        <pt x="1189" y="644" on="0"/>
        <pt x="1320" y="753" on="0"/>
        <pt x="1471" y="831" on="0"/>
        <pt x="1634" y="874" on="0"/>
        <pt x="1716" y="874" on="1"/>
        <pt x="1720" y="874" on="0"/>
        <pt x="1728" y="874" on="0"/>
        <pt x="1743" y="874" on="0"/>
        <pt x="1769" y="873" on="0"/>
        <pt x="1790" y="872" on="1"/>
        <pt x="1784" y="883" on="0"/>
        <pt x="1770" y="909" on="0"/>
        <pt x="1764" y="924" on="1"/>
        <pt x="1726" y="918" on="0"/>
        <pt x="1660" y="916" on="0"/>
        <pt x="1630" y="916" on="1"/>
        <pt x="1576" y="916" on="0"/>
        <pt x="1481" y="930" on="0"/>
        <pt x="1409" y="962" on="0"/>
        <pt x="1368" y="1013" on="0"/>
        <pt x="1368" y="1050" on="1"/>
        <pt x="1368" y="1087" on="0"/>
        <pt x="1410" y="1152" on="0"/>
        <pt x="1475" y="1206" on="0"/>
        <pt x="1554" y="1251" on="0"/>
        <pt x="1628" y="1283" on="0"/>
        <pt x="1687" y="1304" on="0"/>
        <pt x="1700" y="1308" on="1"/>
        <pt x="1700" y="1308" on="0"/>
        <pt x="1706" y="1310" on="1"/>
        <pt x="1708" y="1310" on="1"/>
      </contour>
      <contour>
        <pt x="1976" y="1250" on="1"/>
        <pt x="1954" y="1225" on="0"/>
        <pt x="1914" y="1169" on="0"/>
        <pt x="1882" y="1107" on="0"/>
        <pt x="1861" y="1040" on="0"/>
        <pt x="1860" y="1004" on="1"/>
        <pt x="1945" y="1031" on="0"/>
        <pt x="2097" y="1117" on="0"/>
        <pt x="2212" y="1216" on="0"/>
        <pt x="2280" y="1318" on="0"/>
        <pt x="2280" y="1362" on="1"/>
        <pt x="2280" y="1386" on="0"/>
        <pt x="2248" y="1410" on="0"/>
        <pt x="2224" y="1410" on="1"/>
        <pt x="2201" y="1410" on="0"/>
        <pt x="2140" y="1385" on="0"/>
        <pt x="2073" y="1341" on="0"/>
        <pt x="2005" y="1283" on="0"/>
      </contour>
    </TTGlyph>
    <TTGlyph name="Eacute" xMin="850" yMin="8" xMax="2468" yMax="1780">
      <contour>
        <pt x="1526" y="1300" on="1"/>
        <pt x="1517" y="1298" on="0"/>
        <pt x="1477" y="1279" on="0"/>
        <pt x="1426" y="1249" on="0"/>
        <pt x="1373" y="1208" on="0"/>
        <pt x="1328" y="1159" on="0"/>
        <pt x="1300" y="1103" on="0"/>
        <pt x="1300" y="1074" on="1"/>
        <pt x="1300" y="1052" on="0"/>
        <pt x="1319" y="1015" on="0"/>
        <pt x="1360" y="988" on="0"/>
        <pt x="1424" y="972" on="0"/>
        <pt x="1470" y="972" on="1"/>
        <pt x="1493" y="972" on="0"/>
        <pt x="1539" y="975" on="0"/>
        <pt x="1562" y="980" on="1"/>
        <pt x="1562" y="1006" on="1"/>
        <pt x="1562" y="1075" on="0"/>
        <pt x="1605" y="1201" on="0"/>
        <pt x="1677" y="1309" on="0"/>
        <pt x="1774" y="1396" on="0"/>
        <pt x="1880" y="1457" on="0"/>
        <pt x="1991" y="1490" on="0"/>
        <pt x="2042" y="1490" on="1"/>
        <pt x="2076" y="1490" on="0"/>
        <pt x="2122" y="1469" on="0"/>
        <pt x="2150" y="1436" on="0"/>
        <pt x="2162" y="1395" on="0"/>
        <pt x="2162" y="1376" on="1"/>
        <pt x="2162" y="1350" on="0"/>
        <pt x="2145" y="1278" on="0"/>
        <pt x="2075" y="1185" on="0"/>
        <pt x="1933" y="1071" on="0"/>
        <pt x="1808" y="1004" on="1"/>
        <pt x="1772" y="984" on="0"/>
        <pt x="1706" y="957" on="0"/>
        <pt x="1676" y="948" on="1"/>
        <pt x="1683" y="915" on="0"/>
        <pt x="1711" y="863" on="0"/>
        <pt x="1725" y="845" on="1"/>
        <pt x="1742" y="824" on="0"/>
        <pt x="1760" y="808" on="1"/>
        <pt x="1736" y="784" on="1"/>
        <pt x="1716" y="798" on="0"/>
        <pt x="1657" y="818" on="0"/>
        <pt x="1612" y="818" on="1"/>
        <pt x="1584" y="816" on="1"/>
        <pt x="1532" y="811" on="0"/>
        <pt x="1402" y="760" on="0"/>
        <pt x="1267" y="678" on="0"/>
        <pt x="1139" y="572" on="0"/>
        <pt x="1039" y="453" on="0"/>
        <pt x="978" y="328" on="0"/>
        <pt x="978" y="268" on="1"/>
        <pt x="978" y="235" on="0"/>
        <pt x="989" y="168" on="0"/>
        <pt x="1028" y="114" on="0"/>
        <pt x="1105" y="80" on="0"/>
        <pt x="1170" y="80" on="1"/>
        <pt x="1231" y="80" on="0"/>
        <pt x="1350" y="120" on="0"/>
        <pt x="1458" y="187" on="0"/>
        <pt x="1550" y="274" on="0"/>
        <pt x="1618" y="368" on="0"/>
        <pt x="1656" y="463" on="0"/>
        <pt x="1656" y="504" on="1"/>
        <pt x="1656" y="536" on="0"/>
        <pt x="1634" y="581" on="0"/>
        <pt x="1598" y="608" on="0"/>
        <pt x="1551" y="620" on="0"/>
        <pt x="1526" y="620" on="1"/>
        <pt x="1472" y="620" on="0"/>
        <pt x="1351" y="572" on="0"/>
        <pt x="1236" y="487" on="0"/>
        <pt x="1134" y="368" on="0"/>
        <pt x="1100" y="298" on="1"/>
        <pt x="1092" y="306" on="1"/>
        <pt x="1104" y="341" on="0"/>
        <pt x="1152" y="429" on="0"/>
        <pt x="1216" y="519" on="0"/>
        <pt x="1295" y="604" on="0"/>
        <pt x="1383" y="670" on="0"/>
        <pt x="1478" y="710" on="0"/>
        <pt x="1526" y="710" on="1"/>
        <pt x="1561" y="710" on="0"/>
        <pt x="1621" y="678" on="0"/>
        <pt x="1664" y="625" on="0"/>
        <pt x="1688" y="557" on="0"/>
        <pt x="1688" y="522" on="1"/>
        <pt x="1688" y="459" on="0"/>
        <pt x="1637" y="334" on="0"/>
        <pt x="1551" y="220" on="0"/>
        <pt x="1436" y="121" on="0"/>
        <pt x="1308" y="49" on="0"/>
        <pt x="1175" y="8" on="0"/>
        <pt x="1114" y="8" on="1"/>
        <pt x="1065" y="8" on="0"/>
        <pt x="971" y="41" on="0"/>
        <pt x="896" y="108" on="0"/>
        <pt x="850" y="208" on="0"/>
        <pt x="850" y="276" on="1"/>
        <pt x="850" y="358" on="0"/>
        <pt x="905" y="511" on="0"/>
        <pt x="1001" y="644" on="0"/>
        <pt x="1132" y="753" on="0"/>
        <pt x="1283" y="831" on="0"/>
        <pt x="1446" y="874" on="0"/>
        <pt x="1528" y="874" on="1"/>
        <pt x="1532" y="874" on="0"/>
        <pt x="1540" y="874" on="0"/>
        <pt x="1555" y="874" on="0"/>
        <pt x="1581" y="873" on="0"/>
        <pt x="1602" y="872" on="1"/>
        <pt x="1596" y="883" on="0"/>
        <pt x="1582" y="909" on="0"/>
        <pt x="1576" y="924" on="1"/>
        <pt x="1538" y="918" on="0"/>
        <pt x="1472" y="916" on="0"/>
        <pt x="1442" y="916" on="1"/>
        <pt x="1388" y="916" on="0"/>
        <pt x="1293" y="930" on="0"/>
        <pt x="1221" y="962" on="0"/>
        <pt x="1180" y="1013" on="0"/>
        <pt x="1180" y="1050" on="1"/>
        <pt x="1180" y="1087" on="0"/>
        <pt x="1222" y="1152" on="0"/>
        <pt x="1287" y="1206" on="0"/>
        <pt x="1366" y="1251" on="0"/>
        <pt x="1440" y="1283" on="0"/>
        <pt x="1499" y="1304" on="0"/>
        <pt x="1512" y="1308" on="1"/>
        <pt x="1512" y="1308" on="0"/>
        <pt x="1518" y="1310" on="1"/>
        <pt x="1520" y="1310" on="1"/>
      </contour>
      <contour>
        <pt x="1788" y="1250" on="1"/>
        <pt x="1766" y="1225" on="0"/>
        <pt x="1726" y="1169" on="0"/>
        <pt x="1694" y="1107" on="0"/>
        <pt x="1673" y="1040" on="0"/>
        <pt x="1672" y="1004" on="1"/>
        <pt x="1757" y="1031" on="0"/>
        <pt x="1909" y="1117" on="0"/>
        <pt x="2024" y="1216" on="0"/>
        <pt x="2092" y="1318" on="0"/>
        <pt x="2092" y="1362" on="1"/>
        <pt x="2092" y="1386" on="0"/>
        <pt x="2060" y="1410" on="0"/>
        <pt x="2036" y="1410" on="1"/>
        <pt x="2013" y="1410" on="0"/>
        <pt x="1952" y="1385" on="0"/>
        <pt x="1885" y="1341" on="0"/>
        <pt x="1817" y="1283" on="0"/>
      </contour>
      <contour>
        <pt x="2144" y="1578" on="1"/>
        <pt x="2166" y="1638" on="1"/>
        <pt x="2428" y="1780" on="1"/>
        <pt x="2468" y="1688" on="1"/>
      </contour>
    </TTGlyph>
    <TTGlyph name="Ecircumflex" xMin="842" yMin="8" xMax="2318" yMax="1814">
      <contour>
        <pt x="1518" y="1300" on="1"/>
        <pt x="1509" y="1298" on="0"/>
        <pt x="1469" y="1279" on="0"/>
        <pt x="1418" y="1249" on="0"/>
        <pt x="1365" y="1208" on="0"/>
        <pt x="1320" y="1159" on="0"/>
        <pt x="1292" y="1103" on="0"/>
        <pt x="1292" y="1074" on="1"/>
        <pt x="1292" y="1052" on="0"/>
        <pt x="1311" y="1015" on="0"/>
        <pt x="1352" y="988" on="0"/>
        <pt x="1416" y="972" on="0"/>
        <pt x="1462" y="972" on="1"/>
        <pt x="1485" y="972" on="0"/>
        <pt x="1531" y="975" on="0"/>
        <pt x="1554" y="980" on="1"/>
        <pt x="1554" y="1006" on="1"/>
        <pt x="1554" y="1075" on="0"/>
        <pt x="1597" y="1201" on="0"/>
        <pt x="1669" y="1309" on="0"/>
        <pt x="1766" y="1396" on="0"/>
        <pt x="1872" y="1457" on="0"/>
        <pt x="1983" y="1490" on="0"/>
        <pt x="2034" y="1490" on="1"/>
        <pt x="2068" y="1490" on="0"/>
        <pt x="2114" y="1469" on="0"/>
        <pt x="2142" y="1436" on="0"/>
        <pt x="2154" y="1395" on="0"/>
        <pt x="2154" y="1376" on="1"/>
        <pt x="2154" y="1350" on="0"/>
        <pt x="2137" y="1278" on="0"/>
        <pt x="2067" y="1185" on="0"/>
        <pt x="1925" y="1071" on="0"/>
        <pt x="1800" y="1004" on="1"/>
        <pt x="1764" y="984" on="0"/>
        <pt x="1698" y="957" on="0"/>
        <pt x="1668" y="948" on="1"/>
        <pt x="1675" y="915" on="0"/>
        <pt x="1703" y="863" on="0"/>
        <pt x="1717" y="845" on="1"/>
        <pt x="1734" y="824" on="0"/>
        <pt x="1752" y="808" on="1"/>
        <pt x="1728" y="784" on="1"/>
        <pt x="1708" y="798" on="0"/>
        <pt x="1649" y="818" on="0"/>
        <pt x="1604" y="818" on="1"/>
        <pt x="1576" y="816" on="1"/>
        <pt x="1524" y="811" on="0"/>
        <pt x="1394" y="760" on="0"/>
        <pt x="1259" y="678" on="0"/>
        <pt x="1131" y="572" on="0"/>
        <pt x="1031" y="453" on="0"/>
        <pt x="970" y="328" on="0"/>
        <pt x="970" y="268" on="1"/>
        <pt x="970" y="235" on="0"/>
        <pt x="981" y="168" on="0"/>
        <pt x="1020" y="114" on="0"/>
        <pt x="1097" y="80" on="0"/>
        <pt x="1162" y="80" on="1"/>
        <pt x="1222" y="80" on="0"/>
        <pt x="1342" y="120" on="0"/>
        <pt x="1450" y="187" on="0"/>
        <pt x="1542" y="274" on="0"/>
        <pt x="1610" y="368" on="0"/>
        <pt x="1648" y="463" on="0"/>
        <pt x="1648" y="504" on="1"/>
        <pt x="1648" y="536" on="0"/>
        <pt x="1626" y="581" on="0"/>
        <pt x="1590" y="608" on="0"/>
        <pt x="1543" y="620" on="0"/>
        <pt x="1518" y="620" on="1"/>
        <pt x="1464" y="620" on="0"/>
        <pt x="1343" y="572" on="0"/>
        <pt x="1228" y="487" on="0"/>
        <pt x="1126" y="368" on="0"/>
        <pt x="1092" y="298" on="1"/>
        <pt x="1084" y="306" on="1"/>
        <pt x="1097" y="341" on="0"/>
        <pt x="1144" y="429" on="0"/>
        <pt x="1208" y="519" on="0"/>
        <pt x="1287" y="604" on="0"/>
        <pt x="1375" y="670" on="0"/>
        <pt x="1470" y="710" on="0"/>
        <pt x="1518" y="710" on="1"/>
        <pt x="1553" y="710" on="0"/>
        <pt x="1613" y="678" on="0"/>
        <pt x="1656" y="625" on="0"/>
        <pt x="1680" y="557" on="0"/>
        <pt x="1680" y="522" on="1"/>
        <pt x="1680" y="459" on="0"/>
        <pt x="1629" y="334" on="0"/>
        <pt x="1543" y="220" on="0"/>
        <pt x="1428" y="121" on="0"/>
        <pt x="1300" y="49" on="0"/>
        <pt x="1167" y="8" on="0"/>
        <pt x="1106" y="8" on="1"/>
        <pt x="1057" y="8" on="0"/>
        <pt x="963" y="41" on="0"/>
        <pt x="888" y="108" on="0"/>
        <pt x="842" y="208" on="0"/>
        <pt x="842" y="276" on="1"/>
        <pt x="842" y="358" on="0"/>
        <pt x="897" y="511" on="0"/>
        <pt x="993" y="644" on="0"/>
        <pt x="1124" y="753" on="0"/>
        <pt x="1275" y="831" on="0"/>
        <pt x="1438" y="874" on="0"/>
        <pt x="1520" y="874" on="1"/>
        <pt x="1524" y="874" on="0"/>
        <pt x="1532" y="874" on="0"/>
        <pt x="1547" y="874" on="0"/>
        <pt x="1573" y="873" on="0"/>
        <pt x="1594" y="872" on="1"/>
        <pt x="1588" y="883" on="0"/>
        <pt x="1574" y="909" on="0"/>
        <pt x="1568" y="924" on="1"/>
        <pt x="1530" y="918" on="0"/>
        <pt x="1464" y="916" on="0"/>
        <pt x="1434" y="916" on="1"/>
        <pt x="1380" y="916" on="0"/>
        <pt x="1285" y="930" on="0"/>
        <pt x="1213" y="962" on="0"/>
        <pt x="1172" y="1013" on="0"/>
        <pt x="1172" y="1050" on="1"/>
        <pt x="1172" y="1087" on="0"/>
        <pt x="1214" y="1152" on="0"/>
        <pt x="1279" y="1206" on="0"/>
        <pt x="1358" y="1251" on="0"/>
        <pt x="1432" y="1283" on="0"/>
        <pt x="1491" y="1304" on="0"/>
        <pt x="1504" y="1308" on="1"/>
        <pt x="1504" y="1308" on="0"/>
        <pt x="1510" y="1310" on="1"/>
        <pt x="1512" y="1310" on="1"/>
      </contour>
      <contour>
        <pt x="1780" y="1250" on="1"/>
        <pt x="1758" y="1225" on="0"/>
        <pt x="1718" y="1169" on="0"/>
        <pt x="1686" y="1107" on="0"/>
        <pt x="1665" y="1040" on="0"/>
        <pt x="1664" y="1004" on="1"/>
        <pt x="1749" y="1031" on="0"/>
        <pt x="1901" y="1117" on="0"/>
        <pt x="2016" y="1216" on="0"/>
        <pt x="2084" y="1318" on="0"/>
        <pt x="2084" y="1362" on="1"/>
        <pt x="2084" y="1386" on="0"/>
        <pt x="2052" y="1410" on="0"/>
        <pt x="2028" y="1410" on="1"/>
        <pt x="2005" y="1410" on="0"/>
        <pt x="1944" y="1385" on="0"/>
        <pt x="1877" y="1341" on="0"/>
        <pt x="1809" y="1283" on="0"/>
      </contour>
      <contour>
        <pt x="2166" y="1704" on="1"/>
        <pt x="1900" y="1614" on="1"/>
        <pt x="1922" y="1674" on="1"/>
        <pt x="2180" y="1814" on="1"/>
        <pt x="2296" y="1646" on="1"/>
        <pt x="2318" y="1586" on="1"/>
      </contour>
    </TTGlyph>
    <TTGlyph name="Edieresis" xMin="850" yMin="8" xMax="2346" yMax="1716">
      <contour>
        <pt x="1526" y="1300" on="1"/>
        <pt x="1517" y="1298" on="0"/>
        <pt x="1477" y="1279" on="0"/>
        <pt x="1426" y="1249" on="0"/>
        <pt x="1373" y="1208" on="0"/>
        <pt x="1328" y="1159" on="0"/>
        <pt x="1300" y="1103" on="0"/>
        <pt x="1300" y="1074" on="1"/>
        <pt x="1300" y="1052" on="0"/>
        <pt x="1319" y="1015" on="0"/>
        <pt x="1360" y="988" on="0"/>
        <pt x="1424" y="972" on="0"/>
        <pt x="1470" y="972" on="1"/>
        <pt x="1493" y="972" on="0"/>
        <pt x="1539" y="975" on="0"/>
        <pt x="1562" y="980" on="1"/>
        <pt x="1562" y="1006" on="1"/>
        <pt x="1562" y="1075" on="0"/>
        <pt x="1605" y="1201" on="0"/>
        <pt x="1677" y="1309" on="0"/>
        <pt x="1774" y="1396" on="0"/>
        <pt x="1880" y="1457" on="0"/>
        <pt x="1991" y="1490" on="0"/>
        <pt x="2042" y="1490" on="1"/>
        <pt x="2076" y="1490" on="0"/>
        <pt x="2122" y="1469" on="0"/>
        <pt x="2150" y="1436" on="0"/>
        <pt x="2162" y="1395" on="0"/>
        <pt x="2162" y="1376" on="1"/>
        <pt x="2162" y="1350" on="0"/>
        <pt x="2145" y="1278" on="0"/>
        <pt x="2075" y="1185" on="0"/>
        <pt x="1933" y="1071" on="0"/>
        <pt x="1808" y="1004" on="1"/>
        <pt x="1772" y="984" on="0"/>
        <pt x="1706" y="957" on="0"/>
        <pt x="1676" y="948" on="1"/>
        <pt x="1683" y="915" on="0"/>
        <pt x="1711" y="863" on="0"/>
        <pt x="1725" y="845" on="1"/>
        <pt x="1742" y="824" on="0"/>
        <pt x="1760" y="808" on="1"/>
        <pt x="1736" y="784" on="1"/>
        <pt x="1716" y="798" on="0"/>
        <pt x="1657" y="818" on="0"/>
        <pt x="1612" y="818" on="1"/>
        <pt x="1584" y="816" on="1"/>
        <pt x="1532" y="811" on="0"/>
        <pt x="1402" y="760" on="0"/>
        <pt x="1267" y="678" on="0"/>
        <pt x="1139" y="572" on="0"/>
        <pt x="1039" y="453" on="0"/>
        <pt x="978" y="328" on="0"/>
        <pt x="978" y="268" on="1"/>
        <pt x="978" y="235" on="0"/>
        <pt x="989" y="168" on="0"/>
        <pt x="1028" y="114" on="0"/>
        <pt x="1105" y="80" on="0"/>
        <pt x="1170" y="80" on="1"/>
        <pt x="1231" y="80" on="0"/>
        <pt x="1350" y="120" on="0"/>
        <pt x="1458" y="187" on="0"/>
        <pt x="1550" y="274" on="0"/>
        <pt x="1618" y="368" on="0"/>
        <pt x="1656" y="463" on="0"/>
        <pt x="1656" y="504" on="1"/>
        <pt x="1656" y="536" on="0"/>
        <pt x="1634" y="581" on="0"/>
        <pt x="1598" y="608" on="0"/>
        <pt x="1551" y="620" on="0"/>
        <pt x="1526" y="620" on="1"/>
        <pt x="1472" y="620" on="0"/>
        <pt x="1351" y="572" on="0"/>
        <pt x="1236" y="487" on="0"/>
        <pt x="1134" y="368" on="0"/>
        <pt x="1100" y="298" on="1"/>
        <pt x="1092" y="306" on="1"/>
        <pt x="1104" y="341" on="0"/>
        <pt x="1152" y="429" on="0"/>
        <pt x="1216" y="519" on="0"/>
        <pt x="1295" y="604" on="0"/>
        <pt x="1383" y="670" on="0"/>
        <pt x="1478" y="710" on="0"/>
        <pt x="1526" y="710" on="1"/>
        <pt x="1561" y="710" on="0"/>
        <pt x="1621" y="678" on="0"/>
        <pt x="1664" y="625" on="0"/>
        <pt x="1688" y="557" on="0"/>
        <pt x="1688" y="522" on="1"/>
        <pt x="1688" y="459" on="0"/>
        <pt x="1637" y="334" on="0"/>
        <pt x="1551" y="220" on="0"/>
        <pt x="1436" y="121" on="0"/>
        <pt x="1308" y="49" on="0"/>
        <pt x="1175" y="8" on="0"/>
        <pt x="1114" y="8" on="1"/>
        <pt x="1065" y="8" on="0"/>
        <pt x="971" y="41" on="0"/>
        <pt x="896" y="108" on="0"/>
        <pt x="850" y="208" on="0"/>
        <pt x="850" y="276" on="1"/>
        <pt x="850" y="358" on="0"/>
        <pt x="905" y="511" on="0"/>
        <pt x="1001" y="644" on="0"/>
        <pt x="1132" y="753" on="0"/>
        <pt x="1283" y="831" on="0"/>
        <pt x="1446" y="874" on="0"/>
        <pt x="1528" y="874" on="1"/>
        <pt x="1532" y="874" on="0"/>
        <pt x="1540" y="874" on="0"/>
        <pt x="1555" y="874" on="0"/>
        <pt x="1581" y="873" on="0"/>
        <pt x="1602" y="872" on="1"/>
        <pt x="1596" y="883" on="0"/>
        <pt x="1582" y="909" on="0"/>
        <pt x="1576" y="924" on="1"/>
        <pt x="1538" y="918" on="0"/>
        <pt x="1472" y="916" on="0"/>
        <pt x="1442" y="916" on="1"/>
        <pt x="1388" y="916" on="0"/>
        <pt x="1293" y="930" on="0"/>
        <pt x="1221" y="962" on="0"/>
        <pt x="1180" y="1013" on="0"/>
        <pt x="1180" y="1050" on="1"/>
        <pt x="1180" y="1087" on="0"/>
        <pt x="1222" y="1152" on="0"/>
        <pt x="1287" y="1206" on="0"/>
        <pt x="1366" y="1251" on="0"/>
        <pt x="1440" y="1283" on="0"/>
        <pt x="1499" y="1304" on="0"/>
        <pt x="1512" y="1308" on="1"/>
        <pt x="1512" y="1308" on="0"/>
        <pt x="1518" y="1310" on="1"/>
        <pt x="1520" y="1310" on="1"/>
      </contour>
      <contour>
        <pt x="1788" y="1250" on="1"/>
        <pt x="1766" y="1225" on="0"/>
        <pt x="1726" y="1169" on="0"/>
        <pt x="1694" y="1107" on="0"/>
        <pt x="1673" y="1040" on="0"/>
        <pt x="1672" y="1004" on="1"/>
        <pt x="1757" y="1031" on="0"/>
        <pt x="1909" y="1117" on="0"/>
        <pt x="2024" y="1216" on="0"/>
        <pt x="2092" y="1318" on="0"/>
        <pt x="2092" y="1362" on="1"/>
        <pt x="2092" y="1386" on="0"/>
        <pt x="2060" y="1410" on="0"/>
        <pt x="2036" y="1410" on="1"/>
        <pt x="2013" y="1410" on="0"/>
        <pt x="1952" y="1385" on="0"/>
        <pt x="1885" y="1341" on="0"/>
        <pt x="1817" y="1283" on="0"/>
      </contour>
      <contour>
        <pt x="2108" y="1660" on="1"/>
        <pt x="2108" y="1643" on="0"/>
        <pt x="2090" y="1613" on="0"/>
        <pt x="2061" y="1591" on="0"/>
        <pt x="2023" y="1578" on="0"/>
        <pt x="2004" y="1578" on="1"/>
        <pt x="1990" y="1578" on="0"/>
        <pt x="1963" y="1584" on="0"/>
        <pt x="1940" y="1600" on="0"/>
        <pt x="1926" y="1627" on="0"/>
        <pt x="1926" y="1648" on="1"/>
        <pt x="1926" y="1666" on="0"/>
        <pt x="1946" y="1692" on="0"/>
        <pt x="1976" y="1708" on="0"/>
        <pt x="2014" y="1716" on="0"/>
        <pt x="2032" y="1716" on="1"/>
        <pt x="2062" y="1716" on="0"/>
        <pt x="2103" y="1689" on="0"/>
      </contour>
      <contour>
        <pt x="2346" y="1658" on="1"/>
        <pt x="2346" y="1641" on="0"/>
        <pt x="2328" y="1611" on="0"/>
        <pt x="2299" y="1589" on="0"/>
        <pt x="2261" y="1576" on="0"/>
        <pt x="2242" y="1576" on="1"/>
        <pt x="2228" y="1576" on="0"/>
        <pt x="2201" y="1582" on="0"/>
        <pt x="2178" y="1598" on="0"/>
        <pt x="2164" y="1625" on="0"/>
        <pt x="2164" y="1646" on="1"/>
        <pt x="2164" y="1664" on="0"/>
        <pt x="2184" y="1690" on="0"/>
        <pt x="2214" y="1706" on="0"/>
        <pt x="2252" y="1714" on="0"/>
        <pt x="2270" y="1714" on="1"/>
        <pt x="2300" y="1714" on="0"/>
        <pt x="2341" y="1687" on="0"/>
      </contour>
    </TTGlyph>
    <TTGlyph name="Egrave" xMin="960" yMin="8" xMax="2488" yMax="1752">
      <contour>
        <pt x="2164" y="1660" on="1"/>
        <pt x="2204" y="1752" on="1"/>
        <pt x="2466" y="1610" on="1"/>
        <pt x="2488" y="1550" on="1"/>
      </contour>
      <contour>
        <pt x="1636" y="1300" on="1"/>
        <pt x="1627" y="1298" on="0"/>
        <pt x="1587" y="1279" on="0"/>
        <pt x="1536" y="1249" on="0"/>
        <pt x="1483" y="1208" on="0"/>
        <pt x="1438" y="1159" on="0"/>
        <pt x="1410" y="1103" on="0"/>
        <pt x="1410" y="1074" on="1"/>
        <pt x="1410" y="1052" on="0"/>
        <pt x="1429" y="1015" on="0"/>
        <pt x="1470" y="988" on="0"/>
        <pt x="1534" y="972" on="0"/>
        <pt x="1580" y="972" on="1"/>
        <pt x="1603" y="972" on="0"/>
        <pt x="1649" y="975" on="0"/>
        <pt x="1672" y="980" on="1"/>
        <pt x="1672" y="1006" on="1"/>
        <pt x="1672" y="1075" on="0"/>
        <pt x="1715" y="1201" on="0"/>
        <pt x="1787" y="1309" on="0"/>
        <pt x="1884" y="1396" on="0"/>
        <pt x="1990" y="1457" on="0"/>
        <pt x="2101" y="1490" on="0"/>
        <pt x="2152" y="1490" on="1"/>
        <pt x="2186" y="1490" on="0"/>
        <pt x="2232" y="1469" on="0"/>
        <pt x="2260" y="1436" on="0"/>
        <pt x="2272" y="1395" on="0"/>
        <pt x="2272" y="1376" on="1"/>
        <pt x="2272" y="1350" on="0"/>
        <pt x="2255" y="1278" on="0"/>
        <pt x="2185" y="1185" on="0"/>
        <pt x="2043" y="1071" on="0"/>
        <pt x="1918" y="1004" on="1"/>
        <pt x="1882" y="984" on="0"/>
        <pt x="1816" y="957" on="0"/>
        <pt x="1786" y="948" on="1"/>
        <pt x="1793" y="915" on="0"/>
        <pt x="1821" y="863" on="0"/>
        <pt x="1835" y="845" on="1"/>
        <pt x="1852" y="824" on="0"/>
        <pt x="1870" y="808" on="1"/>
        <pt x="1846" y="784" on="1"/>
        <pt x="1826" y="798" on="0"/>
        <pt x="1767" y="818" on="0"/>
        <pt x="1722" y="818" on="1"/>
        <pt x="1694" y="816" on="1"/>
        <pt x="1642" y="811" on="0"/>
        <pt x="1512" y="760" on="0"/>
        <pt x="1377" y="678" on="0"/>
        <pt x="1249" y="572" on="0"/>
        <pt x="1149" y="453" on="0"/>
        <pt x="1088" y="328" on="0"/>
        <pt x="1088" y="268" on="1"/>
        <pt x="1088" y="235" on="0"/>
        <pt x="1099" y="168" on="0"/>
        <pt x="1138" y="114" on="0"/>
        <pt x="1215" y="80" on="0"/>
        <pt x="1280" y="80" on="1"/>
        <pt x="1340" y="80" on="0"/>
        <pt x="1460" y="120" on="0"/>
        <pt x="1568" y="187" on="0"/>
        <pt x="1660" y="274" on="0"/>
        <pt x="1728" y="368" on="0"/>
        <pt x="1766" y="463" on="0"/>
        <pt x="1766" y="504" on="1"/>
        <pt x="1766" y="536" on="0"/>
        <pt x="1744" y="581" on="0"/>
        <pt x="1708" y="608" on="0"/>
        <pt x="1661" y="620" on="0"/>
        <pt x="1636" y="620" on="1"/>
        <pt x="1582" y="620" on="0"/>
        <pt x="1461" y="572" on="0"/>
        <pt x="1346" y="487" on="0"/>
        <pt x="1244" y="368" on="0"/>
        <pt x="1210" y="298" on="1"/>
        <pt x="1202" y="306" on="1"/>
        <pt x="1214" y="341" on="0"/>
        <pt x="1262" y="429" on="0"/>
        <pt x="1326" y="519" on="0"/>
        <pt x="1405" y="604" on="0"/>
        <pt x="1493" y="670" on="0"/>
        <pt x="1588" y="710" on="0"/>
        <pt x="1636" y="710" on="1"/>
        <pt x="1671" y="710" on="0"/>
        <pt x="1731" y="678" on="0"/>
        <pt x="1774" y="625" on="0"/>
        <pt x="1798" y="557" on="0"/>
        <pt x="1798" y="522" on="1"/>
        <pt x="1798" y="459" on="0"/>
        <pt x="1747" y="334" on="0"/>
        <pt x="1661" y="220" on="0"/>
        <pt x="1546" y="121" on="0"/>
        <pt x="1418" y="49" on="0"/>
        <pt x="1285" y="8" on="0"/>
        <pt x="1224" y="8" on="1"/>
        <pt x="1175" y="8" on="0"/>
        <pt x="1081" y="41" on="0"/>
        <pt x="1006" y="108" on="0"/>
        <pt x="960" y="208" on="0"/>
        <pt x="960" y="276" on="1"/>
        <pt x="960" y="358" on="0"/>
        <pt x="1015" y="511" on="0"/>
        <pt x="1111" y="644" on="0"/>
        <pt x="1242" y="753" on="0"/>
        <pt x="1393" y="831" on="0"/>
        <pt x="1556" y="874" on="0"/>
        <pt x="1638" y="874" on="1"/>
        <pt x="1642" y="874" on="0"/>
        <pt x="1650" y="874" on="0"/>
        <pt x="1665" y="874" on="0"/>
        <pt x="1691" y="873" on="0"/>
        <pt x="1712" y="872" on="1"/>
        <pt x="1706" y="883" on="0"/>
        <pt x="1692" y="909" on="0"/>
        <pt x="1686" y="924" on="1"/>
        <pt x="1648" y="918" on="0"/>
        <pt x="1582" y="916" on="0"/>
        <pt x="1552" y="916" on="1"/>
        <pt x="1498" y="916" on="0"/>
        <pt x="1403" y="930" on="0"/>
        <pt x="1331" y="962" on="0"/>
        <pt x="1290" y="1013" on="0"/>
        <pt x="1290" y="1050" on="1"/>
        <pt x="1290" y="1087" on="0"/>
        <pt x="1332" y="1152" on="0"/>
        <pt x="1397" y="1206" on="0"/>
        <pt x="1476" y="1251" on="0"/>
        <pt x="1550" y="1283" on="0"/>
        <pt x="1609" y="1304" on="0"/>
        <pt x="1622" y="1308" on="1"/>
        <pt x="1622" y="1308" on="0"/>
        <pt x="1628" y="1310" on="1"/>
        <pt x="1630" y="1310" on="1"/>
      </contour>
      <contour>
        <pt x="1898" y="1250" on="1"/>
        <pt x="1876" y="1225" on="0"/>
        <pt x="1836" y="1169" on="0"/>
        <pt x="1804" y="1107" on="0"/>
        <pt x="1783" y="1040" on="0"/>
        <pt x="1782" y="1004" on="1"/>
        <pt x="1867" y="1031" on="0"/>
        <pt x="2019" y="1117" on="0"/>
        <pt x="2134" y="1216" on="0"/>
        <pt x="2202" y="1318" on="0"/>
        <pt x="2202" y="1362" on="1"/>
        <pt x="2202" y="1386" on="0"/>
        <pt x="2170" y="1410" on="0"/>
        <pt x="2146" y="1410" on="1"/>
        <pt x="2123" y="1410" on="0"/>
        <pt x="2062" y="1385" on="0"/>
        <pt x="1995" y="1341" on="0"/>
        <pt x="1927" y="1283" on="0"/>
      </contour>
    </TTGlyph>
    <TTGlyph name="Eth" xMin="-166" yMin="-2" xMax="1812" yMax="1514">
      <contour>
        <pt x="1812" y="1470" on="1"/>
        <pt x="1765" y="1443" on="0"/>
        <pt x="1675" y="1380" on="0"/>
        <pt x="1630" y="1344" on="1"/>
        <pt x="1636" y="1318" on="0"/>
        <pt x="1644" y="1260" on="0"/>
        <pt x="1644" y="1228" on="1"/>
        <pt x="1644" y="1066" on="0"/>
        <pt x="1560" y="788" on="0"/>
        <pt x="1418" y="555" on="0"/>
        <pt x="1230" y="364" on="0"/>
        <pt x="1021" y="215" on="0"/>
        <pt x="805" y="105" on="0"/>
        <pt x="606" y="34" on="0"/>
        <pt x="438" y="-2" on="0"/>
        <pt x="382" y="-2" on="1"/>
        <pt x="334" y="-2" on="0"/>
        <pt x="230" y="28" on="0"/>
        <pt x="176" y="48" on="1"/>
        <pt x="116" y="31" on="0"/>
        <pt x="5" y="16" on="0"/>
        <pt x="-46" y="16" on="1"/>
        <pt x="-64" y="16" on="0"/>
        <pt x="-106" y="25" on="0"/>
        <pt x="-142" y="44" on="0"/>
        <pt x="-166" y="74" on="0"/>
        <pt x="-166" y="94" on="1"/>
        <pt x="-166" y="109" on="0"/>
        <pt x="-143" y="134" on="0"/>
        <pt x="-109" y="152" on="0"/>
        <pt x="-69" y="162" on="0"/>
        <pt x="-52" y="162" on="1"/>
        <pt x="5" y="162" on="0"/>
        <pt x="109" y="130" on="0"/>
        <pt x="160" y="110" on="1"/>
        <pt x="213" y="134" on="0"/>
        <pt x="317" y="198" on="0"/>
        <pt x="413" y="267" on="0"/>
        <pt x="498" y="337" on="0"/>
        <pt x="532" y="368" on="1"/>
        <pt x="300" y="368" on="1"/>
        <pt x="388" y="468" on="1"/>
        <pt x="616" y="446" on="1"/>
        <pt x="646" y="468" on="0"/>
        <pt x="741" y="564" on="0"/>
        <pt x="855" y="688" on="0"/>
        <pt x="980" y="830" on="0"/>
        <pt x="1097" y="967" on="0"/>
        <pt x="1199" y="1087" on="0"/>
        <pt x="1234" y="1128" on="1"/>
        <pt x="1258" y="1156" on="0"/>
        <pt x="1329" y="1224" on="0"/>
        <pt x="1415" y="1295" on="0"/>
        <pt x="1510" y="1365" on="0"/>
        <pt x="1558" y="1396" on="1"/>
        <pt x="1534" y="1444" on="0"/>
        <pt x="1457" y="1476" on="0"/>
        <pt x="1410" y="1476" on="1"/>
        <pt x="1297" y="1476" on="0"/>
        <pt x="1088" y="1401" on="0"/>
        <pt x="906" y="1281" on="0"/>
        <pt x="755" y="1129" on="0"/>
        <pt x="647" y="973" on="0"/>
        <pt x="588" y="829" on="0"/>
        <pt x="588" y="776" on="1"/>
        <pt x="588" y="755" on="0"/>
        <pt x="619" y="734" on="0"/>
        <pt x="648" y="734" on="1"/>
        <pt x="682" y="734" on="0"/>
        <pt x="766" y="758" on="0"/>
        <pt x="868" y="830" on="0"/>
        <pt x="992" y="965" on="0"/>
        <pt x="1068" y="1076" on="1"/>
        <pt x="1084" y="1058" on="1"/>
        <pt x="1034" y="963" on="0"/>
        <pt x="926" y="810" on="0"/>
        <pt x="809" y="702" on="0"/>
        <pt x="686" y="644" on="0"/>
        <pt x="622" y="644" on="1"/>
        <pt x="571" y="644" on="0"/>
        <pt x="511" y="681" on="0"/>
        <pt x="479" y="744" on="0"/>
        <pt x="470" y="824" on="0"/>
        <pt x="470" y="868" on="1"/>
        <pt x="470" y="933" on="0"/>
        <pt x="531" y="1079" on="0"/>
        <pt x="646" y="1223" on="0"/>
        <pt x="809" y="1354" on="0"/>
        <pt x="1013" y="1454" on="0"/>
        <pt x="1253" y="1514" on="0"/>
        <pt x="1388" y="1514" on="1"/>
        <pt x="1465" y="1514" on="0"/>
        <pt x="1568" y="1465" on="0"/>
        <pt x="1598" y="1420" on="1"/>
        <pt x="1654" y="1452" on="0"/>
        <pt x="1757" y="1493" on="0"/>
        <pt x="1796" y="1496" on="1"/>
      </contour>
      <contour>
        <pt x="952" y="416" on="1"/>
        <pt x="910" y="368" on="1"/>
        <pt x="722" y="368" on="1"/>
        <pt x="597" y="256" on="0"/>
        <pt x="363" y="113" on="0"/>
        <pt x="254" y="74" on="1"/>
        <pt x="287" y="62" on="0"/>
        <pt x="356" y="48" on="0"/>
        <pt x="392" y="48" on="1"/>
        <pt x="462" y="48" on="0"/>
        <pt x="641" y="93" on="0"/>
        <pt x="836" y="179" on="0"/>
        <pt x="1039" y="301" on="0"/>
        <pt x="1229" y="455" on="0"/>
        <pt x="1397" y="637" on="0"/>
        <pt x="1522" y="843" on="0"/>
        <pt x="1594" y="1068" on="0"/>
        <pt x="1594" y="1188" on="1"/>
        <pt x="1594" y="1223" on="0"/>
        <pt x="1591" y="1284" on="0"/>
        <pt x="1586" y="1308" on="1"/>
        <pt x="1511" y="1246" on="0"/>
        <pt x="1376" y="1110" on="0"/>
        <pt x="1320" y="1042" on="1"/>
        <pt x="990" y="646" on="1"/>
        <pt x="939" y="584" on="0"/>
        <pt x="838" y="478" on="0"/>
        <pt x="790" y="430" on="1"/>
      </contour>
      <contour>
        <pt x="-42" y="106" on="1"/>
        <pt x="-66" y="106" on="0"/>
        <pt x="-96" y="95" on="0"/>
        <pt x="-96" y="86" on="1"/>
        <pt x="-96" y="74" on="0"/>
        <pt x="-58" y="60" on="0"/>
        <pt x="-40" y="60" on="1"/>
        <pt x="-10" y="60" on="0"/>
        <pt x="52" y="71" on="0"/>
        <pt x="84" y="80" on="1"/>
        <pt x="51" y="91" on="0"/>
        <pt x="-12" y="104" on="0"/>
      </contour>
    </TTGlyph>
    <TTGlyph name="F" xMin="784" yMin="2" xMax="3046" yMax="1500">
      <contour>
        <pt x="3020" y="1366" on="1"/>
        <pt x="2920" y="1348" on="0"/>
        <pt x="2724" y="1332" on="0"/>
        <pt x="2624" y="1332" on="1"/>
        <pt x="2570" y="1332" on="1"/>
        <pt x="2512" y="1285" on="0"/>
        <pt x="2411" y="1186" on="0"/>
        <pt x="2321" y="1090" on="0"/>
        <pt x="2242" y="1000" on="0"/>
        <pt x="2206" y="960" on="1"/>
        <pt x="2183" y="936" on="0"/>
        <pt x="2130" y="874" on="0"/>
        <pt x="2098" y="838" on="1"/>
        <pt x="2246" y="828" on="1"/>
        <pt x="2212" y="772" on="1"/>
        <pt x="2042" y="772" on="1"/>
        <pt x="1995" y="719" on="0"/>
        <pt x="1895" y="604" on="0"/>
        <pt x="1793" y="490" on="0"/>
        <pt x="1694" y="382" on="0"/>
        <pt x="1650" y="336" on="1"/>
        <pt x="1580" y="263" on="0"/>
        <pt x="1434" y="141" on="0"/>
        <pt x="1276" y="52" on="0"/>
        <pt x="1106" y="2" on="0"/>
        <pt x="1012" y="2" on="1"/>
        <pt x="903" y="2" on="0"/>
        <pt x="784" y="86" on="0"/>
        <pt x="784" y="154" on="1"/>
        <pt x="784" y="179" on="0"/>
        <pt x="800" y="232" on="0"/>
        <pt x="833" y="275" on="0"/>
        <pt x="882" y="302" on="0"/>
        <pt x="914" y="302" on="1"/>
        <pt x="950" y="302" on="0"/>
        <pt x="990" y="264" on="0"/>
        <pt x="990" y="228" on="1"/>
        <pt x="990" y="195" on="0"/>
        <pt x="959" y="154" on="0"/>
        <pt x="923" y="126" on="0"/>
        <pt x="892" y="103" on="0"/>
        <pt x="892" y="88" on="1"/>
        <pt x="892" y="67" on="0"/>
        <pt x="940" y="46" on="0"/>
        <pt x="982" y="46" on="1"/>
        <pt x="1062" y="46" on="0"/>
        <pt x="1200" y="94" on="0"/>
        <pt x="1326" y="180" on="0"/>
        <pt x="1447" y="300" on="0"/>
        <pt x="1510" y="372" on="1"/>
        <pt x="1588" y="463" on="0"/>
        <pt x="1769" y="663" on="0"/>
        <pt x="1866" y="772" on="1"/>
        <pt x="1706" y="772" on="1"/>
        <pt x="1770" y="862" on="1"/>
        <pt x="1934" y="850" on="1"/>
        <pt x="1957" y="875" on="0"/>
        <pt x="2004" y="928" on="0"/>
        <pt x="2055" y="985" on="0"/>
        <pt x="2112" y="1047" on="0"/>
        <pt x="2146" y="1082" on="1"/>
        <pt x="2214" y="1153" on="0"/>
        <pt x="2362" y="1285" on="0"/>
        <pt x="2442" y="1342" on="1"/>
        <pt x="2408" y="1346" on="0"/>
        <pt x="2340" y="1356" on="0"/>
        <pt x="2256" y="1365" on="0"/>
        <pt x="2148" y="1370" on="0"/>
        <pt x="2074" y="1370" on="1"/>
        <pt x="1947" y="1370" on="0"/>
        <pt x="1731" y="1312" on="0"/>
        <pt x="1573" y="1224" on="0"/>
        <pt x="1484" y="1120" on="0"/>
        <pt x="1484" y="1074" on="1"/>
        <pt x="1484" y="1055" on="0"/>
        <pt x="1498" y="1022" on="0"/>
        <pt x="1533" y="997" on="0"/>
        <pt x="1590" y="982" on="0"/>
        <pt x="1634" y="982" on="1"/>
        <pt x="1669" y="982" on="0"/>
        <pt x="1738" y="1003" on="0"/>
        <pt x="1803" y="1038" on="0"/>
        <pt x="1863" y="1083" on="0"/>
        <pt x="1889" y="1107" on="1"/>
        <pt x="1950" y="1162" on="0"/>
        <pt x="2004" y="1232" on="1"/>
        <pt x="2018" y="1206" on="1"/>
        <pt x="1979" y="1113" on="0"/>
        <pt x="1882" y="997" on="0"/>
        <pt x="1780" y="933" on="0"/>
        <pt x="1677" y="910" on="0"/>
        <pt x="1632" y="910" on="1"/>
        <pt x="1597" y="910" on="0"/>
        <pt x="1526" y="925" on="0"/>
        <pt x="1469" y="963" on="0"/>
        <pt x="1434" y="1027" on="0"/>
        <pt x="1434" y="1076" on="1"/>
        <pt x="1434" y="1124" on="0"/>
        <pt x="1495" y="1219" on="0"/>
        <pt x="1598" y="1307" on="0"/>
        <pt x="1734" y="1383" on="0"/>
        <pt x="1885" y="1440" on="0"/>
        <pt x="2042" y="1472" on="0"/>
        <pt x="2114" y="1472" on="1"/>
        <pt x="2154" y="1472" on="0"/>
        <pt x="2248" y="1461" on="0"/>
        <pt x="2358" y="1444" on="0"/>
        <pt x="2486" y="1424" on="0"/>
        <pt x="2560" y="1416" on="1"/>
        <pt x="2608" y="1443" on="0"/>
        <pt x="2707" y="1486" on="0"/>
        <pt x="2758" y="1500" on="1"/>
        <pt x="2774" y="1474" on="1"/>
        <pt x="2745" y="1457" on="0"/>
        <pt x="2694" y="1424" on="0"/>
        <pt x="2668" y="1406" on="1"/>
        <pt x="2719" y="1403" on="0"/>
        <pt x="2832" y="1398" on="0"/>
        <pt x="2894" y="1398" on="1"/>
        <pt x="2933" y="1398" on="0"/>
        <pt x="3010" y="1400" on="0"/>
        <pt x="3046" y="1402" on="1"/>
      </contour>
    </TTGlyph>
    <TTGlyph name="G" xMin="876" yMin="0" xMax="2350" yMax="1500">
      <contour>
        <pt x="2272" y="932" on="1"/>
        <pt x="2210" y="876" on="0"/>
        <pt x="2122" y="777" on="0"/>
        <pt x="2043" y="678" on="0"/>
        <pt x="1960" y="572" on="0"/>
        <pt x="1902" y="510" on="1"/>
        <pt x="1742" y="334" on="1"/>
        <pt x="1674" y="260" on="0"/>
        <pt x="1529" y="137" on="0"/>
        <pt x="1370" y="49" on="0"/>
        <pt x="1198" y="0" on="0"/>
        <pt x="1104" y="0" on="1"/>
        <pt x="995" y="0" on="0"/>
        <pt x="876" y="84" on="0"/>
        <pt x="876" y="152" on="1"/>
        <pt x="876" y="177" on="0"/>
        <pt x="892" y="230" on="0"/>
        <pt x="925" y="273" on="0"/>
        <pt x="974" y="300" on="0"/>
        <pt x="1006" y="300" on="1"/>
        <pt x="1042" y="300" on="0"/>
        <pt x="1082" y="262" on="0"/>
        <pt x="1082" y="226" on="1"/>
        <pt x="1082" y="193" on="0"/>
        <pt x="1051" y="152" on="0"/>
        <pt x="1015" y="124" on="0"/>
        <pt x="984" y="101" on="0"/>
        <pt x="984" y="86" on="1"/>
        <pt x="984" y="65" on="0"/>
        <pt x="1032" y="44" on="0"/>
        <pt x="1074" y="44" on="1"/>
        <pt x="1154" y="44" on="0"/>
        <pt x="1292" y="92" on="0"/>
        <pt x="1418" y="178" on="0"/>
        <pt x="1539" y="298" on="0"/>
        <pt x="1602" y="370" on="1"/>
        <pt x="1770" y="558" on="1"/>
        <pt x="1818" y="614" on="0"/>
        <pt x="1943" y="728" on="0"/>
        <pt x="2006" y="782" on="1"/>
        <pt x="1995" y="780" on="0"/>
        <pt x="1973" y="780" on="0"/>
        <pt x="1962" y="780" on="1"/>
        <pt x="1929" y="780" on="0"/>
        <pt x="1862" y="795" on="0"/>
        <pt x="1804" y="830" on="0"/>
        <pt x="1759" y="888" on="0"/>
        <pt x="1748" y="932" on="1"/>
        <pt x="1716" y="927" on="0"/>
        <pt x="1657" y="926" on="0"/>
        <pt x="1630" y="926" on="1"/>
        <pt x="1576" y="926" on="0"/>
        <pt x="1481" y="940" on="0"/>
        <pt x="1409" y="972" on="0"/>
        <pt x="1368" y="1023" on="0"/>
        <pt x="1368" y="1060" on="1"/>
        <pt x="1368" y="1097" on="0"/>
        <pt x="1410" y="1162" on="0"/>
        <pt x="1475" y="1216" on="0"/>
        <pt x="1554" y="1261" on="0"/>
        <pt x="1628" y="1293" on="0"/>
        <pt x="1687" y="1314" on="0"/>
        <pt x="1700" y="1318" on="1"/>
        <pt x="1706" y="1320" on="0"/>
        <pt x="1706" y="1320" on="1"/>
        <pt x="1708" y="1320" on="1"/>
        <pt x="1714" y="1310" on="1"/>
        <pt x="1705" y="1308" on="0"/>
        <pt x="1665" y="1289" on="0"/>
        <pt x="1614" y="1259" on="0"/>
        <pt x="1561" y="1218" on="0"/>
        <pt x="1516" y="1169" on="0"/>
        <pt x="1488" y="1113" on="0"/>
        <pt x="1488" y="1084" on="1"/>
        <pt x="1488" y="1062" on="0"/>
        <pt x="1507" y="1025" on="0"/>
        <pt x="1548" y="998" on="0"/>
        <pt x="1612" y="982" on="0"/>
        <pt x="1658" y="982" on="1"/>
        <pt x="1698" y="982" on="0"/>
        <pt x="1740" y="988" on="1"/>
        <pt x="1740" y="1010" on="1"/>
        <pt x="1740" y="1068" on="0"/>
        <pt x="1777" y="1186" on="0"/>
        <pt x="1844" y="1295" on="0"/>
        <pt x="1936" y="1389" on="0"/>
        <pt x="2045" y="1460" on="0"/>
        <pt x="2166" y="1500" on="0"/>
        <pt x="2230" y="1500" on="1"/>
        <pt x="2264" y="1500" on="0"/>
        <pt x="2310" y="1479" on="0"/>
        <pt x="2338" y="1446" on="0"/>
        <pt x="2350" y="1405" on="0"/>
        <pt x="2350" y="1386" on="1"/>
        <pt x="2350" y="1360" on="0"/>
        <pt x="2333" y="1288" on="0"/>
        <pt x="2263" y="1195" on="0"/>
        <pt x="2121" y="1081" on="0"/>
        <pt x="1996" y="1014" on="1"/>
        <pt x="1960" y="994" on="0"/>
        <pt x="1894" y="967" on="0"/>
        <pt x="1864" y="958" on="1"/>
        <pt x="1868" y="936" on="0"/>
        <pt x="1887" y="896" on="0"/>
        <pt x="1926" y="866" on="0"/>
        <pt x="1986" y="848" on="0"/>
        <pt x="2030" y="848" on="1"/>
        <pt x="2046" y="848" on="0"/>
        <pt x="2094" y="873" on="0"/>
        <pt x="2145" y="909" on="0"/>
        <pt x="2192" y="951" on="0"/>
        <pt x="2208" y="968" on="1"/>
        <pt x="2213" y="971" on="0"/>
        <pt x="2216" y="976" on="1"/>
      </contour>
      <contour>
        <pt x="1874" y="1078" on="1"/>
        <pt x="1868" y="1061" on="0"/>
        <pt x="1860" y="1029" on="0"/>
        <pt x="1860" y="1014" on="1"/>
        <pt x="1945" y="1041" on="0"/>
        <pt x="2097" y="1127" on="0"/>
        <pt x="2212" y="1226" on="0"/>
        <pt x="2280" y="1328" on="0"/>
        <pt x="2280" y="1372" on="1"/>
        <pt x="2280" y="1396" on="0"/>
        <pt x="2248" y="1420" on="0"/>
        <pt x="2224" y="1420" on="1"/>
        <pt x="2199" y="1420" on="0"/>
        <pt x="2136" y="1390" on="0"/>
        <pt x="2067" y="1339" on="0"/>
        <pt x="1997" y="1271" on="0"/>
        <pt x="1935" y="1195" on="0"/>
        <pt x="1887" y="1115" on="0"/>
      </contour>
    </TTGlyph>
    <TTGlyph name="H" xMin="538" yMin="0" xMax="2926" yMax="1496">
      <contour>
        <pt x="2052" y="918" on="1"/>
        <pt x="2123" y="999" on="0"/>
        <pt x="2279" y="1147" on="0"/>
        <pt x="2436" y="1273" on="0"/>
        <pt x="2586" y="1374" on="0"/>
        <pt x="2717" y="1445" on="0"/>
        <pt x="2821" y="1484" on="0"/>
        <pt x="2854" y="1484" on="1"/>
        <pt x="2868" y="1484" on="0"/>
        <pt x="2894" y="1474" on="0"/>
        <pt x="2914" y="1450" on="0"/>
        <pt x="2926" y="1411" on="0"/>
        <pt x="2926" y="1382" on="1"/>
        <pt x="2926" y="1311" on="0"/>
        <pt x="2850" y="1179" on="0"/>
        <pt x="2721" y="1057" on="0"/>
        <pt x="2550" y="946" on="0"/>
        <pt x="2359" y="845" on="0"/>
        <pt x="2161" y="752" on="0"/>
        <pt x="2070" y="710" on="1"/>
        <pt x="2056" y="704" on="0"/>
        <pt x="2032" y="693" on="0"/>
        <pt x="2020" y="688" on="1"/>
        <pt x="1971" y="632" on="0"/>
        <pt x="1864" y="516" on="0"/>
        <pt x="1762" y="405" on="0"/>
        <pt x="1671" y="301" on="0"/>
        <pt x="1602" y="211" on="0"/>
        <pt x="1562" y="138" on="0"/>
        <pt x="1562" y="114" on="1"/>
        <pt x="1562" y="73" on="0"/>
        <pt x="1590" y="48" on="0"/>
        <pt x="1628" y="48" on="1"/>
        <pt x="1670" y="48" on="0"/>
        <pt x="1778" y="75" on="0"/>
        <pt x="1891" y="115" on="0"/>
        <pt x="2000" y="163" on="0"/>
        <pt x="2044" y="184" on="1"/>
        <pt x="2054" y="160" on="1"/>
        <pt x="1902" y="86" on="0"/>
        <pt x="1656" y="0" on="0"/>
        <pt x="1570" y="0" on="1"/>
        <pt x="1546" y="0" on="0"/>
        <pt x="1494" y="8" on="0"/>
        <pt x="1450" y="34" on="0"/>
        <pt x="1422" y="82" on="0"/>
        <pt x="1422" y="122" on="1"/>
        <pt x="1422" y="152" on="0"/>
        <pt x="1474" y="244" on="0"/>
        <pt x="1566" y="364" on="0"/>
        <pt x="1690" y="508" on="0"/>
        <pt x="1762" y="590" on="1"/>
        <pt x="1697" y="567" on="0"/>
        <pt x="1571" y="525" on="0"/>
        <pt x="1514" y="504" on="1"/>
        <pt x="1484" y="493" on="0"/>
        <pt x="1424" y="473" on="0"/>
        <pt x="1392" y="462" on="1"/>
        <pt x="1360" y="427" on="0"/>
        <pt x="1301" y="361" on="0"/>
        <pt x="1272" y="332" on="1"/>
        <pt x="1210" y="267" on="0"/>
        <pt x="1072" y="147" on="0"/>
        <pt x="922" y="56" on="0"/>
        <pt x="763" y="2" on="0"/>
        <pt x="680" y="2" on="1"/>
        <pt x="654" y="2" on="0"/>
        <pt x="603" y="13" on="0"/>
        <pt x="563" y="38" on="0"/>
        <pt x="538" y="79" on="0"/>
        <pt x="538" y="110" on="1"/>
        <pt x="538" y="151" on="0"/>
        <pt x="605" y="223" on="0"/>
        <pt x="714" y="286" on="0"/>
        <pt x="854" y="341" on="0"/>
        <pt x="1001" y="388" on="0"/>
        <pt x="1143" y="427" on="0"/>
        <pt x="1200" y="444" on="1"/>
        <pt x="1572" y="864" on="1"/>
        <pt x="1661" y="965" on="0"/>
        <pt x="1853" y="1169" on="0"/>
        <pt x="1972" y="1260" on="1"/>
        <pt x="1960" y="1252" on="0"/>
        <pt x="1921" y="1232" on="0"/>
        <pt x="1875" y="1215" on="0"/>
        <pt x="1826" y="1204" on="0"/>
        <pt x="1804" y="1204" on="1"/>
        <pt x="1772" y="1204" on="0"/>
        <pt x="1730" y="1234" on="0"/>
        <pt x="1730" y="1272" on="1"/>
        <pt x="1730" y="1358" on="1"/>
        <pt x="1730" y="1367" on="0"/>
        <pt x="1720" y="1376" on="0"/>
        <pt x="1712" y="1376" on="1"/>
        <pt x="1701" y="1376" on="0"/>
        <pt x="1670" y="1358" on="0"/>
        <pt x="1644" y="1332" on="1"/>
        <pt x="1624" y="1350" on="1"/>
        <pt x="1658" y="1389" on="0"/>
        <pt x="1718" y="1418" on="0"/>
        <pt x="1760" y="1418" on="1"/>
        <pt x="1807" y="1418" on="0"/>
        <pt x="1848" y="1387" on="0"/>
        <pt x="1848" y="1358" on="1"/>
        <pt x="1848" y="1339" on="0"/>
        <pt x="1856" y="1316" on="0"/>
        <pt x="1869" y="1304" on="0"/>
        <pt x="1884" y="1300" on="0"/>
        <pt x="1892" y="1300" on="1"/>
        <pt x="1925" y="1300" on="0"/>
        <pt x="2007" y="1320" on="0"/>
        <pt x="2097" y="1353" on="0"/>
        <pt x="2190" y="1395" on="0"/>
        <pt x="2276" y="1439" on="0"/>
        <pt x="2352" y="1480" on="0"/>
        <pt x="2380" y="1496" on="1"/>
        <pt x="2400" y="1478" on="1"/>
        <pt x="2317" y="1425" on="0"/>
        <pt x="2156" y="1291" on="0"/>
        <pt x="2008" y="1150" on="0"/>
        <pt x="1878" y="1013" on="0"/>
        <pt x="1828" y="956" on="1"/>
        <pt x="1450" y="526" on="1"/>
        <pt x="1536" y="553" on="0"/>
        <pt x="1727" y="616" on="0"/>
        <pt x="1812" y="646" on="1"/>
        <pt x="1832" y="667" on="0"/>
        <pt x="1871" y="712" on="0"/>
        <pt x="1892" y="736" on="1"/>
        <pt x="1915" y="762" on="0"/>
        <pt x="1954" y="807" on="0"/>
        <pt x="1974" y="828" on="1"/>
      </contour>
      <contour>
        <pt x="2144" y="838" on="1"/>
        <pt x="2127" y="818" on="0"/>
        <pt x="2098" y="782" on="0"/>
        <pt x="2084" y="764" on="1"/>
        <pt x="2078" y="758" on="0"/>
        <pt x="2074" y="750" on="1"/>
        <pt x="2120" y="770" on="0"/>
        <pt x="2233" y="822" on="0"/>
        <pt x="2356" y="882" on="0"/>
        <pt x="2482" y="948" on="0"/>
        <pt x="2598" y="1018" on="0"/>
        <pt x="2698" y="1090" on="0"/>
        <pt x="2734" y="1126" on="1"/>
        <pt x="2772" y="1165" on="0"/>
        <pt x="2829" y="1232" on="0"/>
        <pt x="2866" y="1295" on="0"/>
        <pt x="2884" y="1359" on="0"/>
        <pt x="2884" y="1394" on="1"/>
        <pt x="2884" y="1414" on="0"/>
        <pt x="2868" y="1440" on="0"/>
        <pt x="2860" y="1440" on="1"/>
        <pt x="2818" y="1440" on="0"/>
        <pt x="2680" y="1373" on="0"/>
        <pt x="2497" y="1228" on="0"/>
        <pt x="2273" y="999" on="0"/>
      </contour>
      <contour>
        <pt x="588" y="104" on="1"/>
        <pt x="588" y="90" on="0"/>
        <pt x="603" y="70" on="0"/>
        <pt x="628" y="58" on="0"/>
        <pt x="659" y="52" on="0"/>
        <pt x="676" y="52" on="1"/>
        <pt x="742" y="52" on="0"/>
        <pt x="860" y="105" on="0"/>
        <pt x="971" y="193" on="0"/>
        <pt x="1078" y="307" on="0"/>
        <pt x="1132" y="368" on="1"/>
        <pt x="1135" y="373" on="0"/>
        <pt x="1141" y="379" on="0"/>
        <pt x="1146" y="384" on="1"/>
        <pt x="1074" y="361" on="0"/>
        <pt x="936" y="319" on="0"/>
        <pt x="812" y="277" on="0"/>
        <pt x="707" y="235" on="0"/>
        <pt x="631" y="188" on="0"/>
        <pt x="588" y="135" on="0"/>
      </contour>
    </TTGlyph>
    <TTGlyph name="I" xMin="680" yMin="2" xMax="2674" yMax="1500">
      <contour>
        <pt x="1898" y="1354" on="1"/>
        <pt x="1932" y="1393" on="0"/>
        <pt x="1992" y="1422" on="0"/>
        <pt x="2034" y="1422" on="1"/>
        <pt x="2081" y="1422" on="0"/>
        <pt x="2122" y="1391" on="0"/>
        <pt x="2122" y="1362" on="1"/>
        <pt x="2122" y="1343" on="0"/>
        <pt x="2130" y="1320" on="0"/>
        <pt x="2143" y="1308" on="0"/>
        <pt x="2158" y="1304" on="0"/>
        <pt x="2166" y="1304" on="1"/>
        <pt x="2199" y="1304" on="0"/>
        <pt x="2281" y="1324" on="0"/>
        <pt x="2371" y="1357" on="0"/>
        <pt x="2464" y="1399" on="0"/>
        <pt x="2550" y="1443" on="0"/>
        <pt x="2626" y="1484" on="0"/>
        <pt x="2654" y="1500" on="1"/>
        <pt x="2674" y="1482" on="1"/>
        <pt x="2591" y="1429" on="0"/>
        <pt x="2430" y="1294" on="0"/>
        <pt x="2283" y="1153" on="0"/>
        <pt x="2153" y="1016" on="0"/>
        <pt x="2102" y="960" on="1"/>
        <pt x="2072" y="926" on="0"/>
        <pt x="1992" y="834" on="0"/>
        <pt x="1898" y="727" on="0"/>
        <pt x="1796" y="611" on="0"/>
        <pt x="1693" y="494" on="0"/>
        <pt x="1591" y="383" on="0"/>
        <pt x="1546" y="336" on="1"/>
        <pt x="1476" y="263" on="0"/>
        <pt x="1330" y="141" on="0"/>
        <pt x="1172" y="52" on="0"/>
        <pt x="1002" y="2" on="0"/>
        <pt x="908" y="2" on="1"/>
        <pt x="799" y="2" on="0"/>
        <pt x="680" y="86" on="0"/>
        <pt x="680" y="154" on="1"/>
        <pt x="680" y="179" on="0"/>
        <pt x="696" y="232" on="0"/>
        <pt x="729" y="275" on="0"/>
        <pt x="778" y="302" on="0"/>
        <pt x="810" y="302" on="1"/>
        <pt x="846" y="302" on="0"/>
        <pt x="886" y="264" on="0"/>
        <pt x="886" y="228" on="1"/>
        <pt x="886" y="195" on="0"/>
        <pt x="855" y="154" on="0"/>
        <pt x="819" y="126" on="0"/>
        <pt x="788" y="103" on="0"/>
        <pt x="788" y="88" on="1"/>
        <pt x="788" y="67" on="0"/>
        <pt x="836" y="46" on="0"/>
        <pt x="878" y="46" on="1"/>
        <pt x="958" y="46" on="0"/>
        <pt x="1096" y="94" on="0"/>
        <pt x="1222" y="180" on="0"/>
        <pt x="1343" y="300" on="0"/>
        <pt x="1406" y="372" on="1"/>
        <pt x="1503" y="482" on="0"/>
        <pt x="1728" y="734" on="0"/>
        <pt x="1846" y="868" on="1"/>
        <pt x="1935" y="969" on="0"/>
        <pt x="2127" y="1173" on="0"/>
        <pt x="2246" y="1264" on="1"/>
        <pt x="2234" y="1256" on="0"/>
        <pt x="2195" y="1236" on="0"/>
        <pt x="2149" y="1219" on="0"/>
        <pt x="2100" y="1208" on="0"/>
        <pt x="2078" y="1208" on="1"/>
        <pt x="2046" y="1208" on="0"/>
        <pt x="2004" y="1238" on="0"/>
        <pt x="2004" y="1276" on="1"/>
        <pt x="2004" y="1362" on="1"/>
        <pt x="2004" y="1371" on="0"/>
        <pt x="1994" y="1380" on="0"/>
        <pt x="1986" y="1380" on="1"/>
        <pt x="1975" y="1380" on="0"/>
        <pt x="1944" y="1362" on="0"/>
        <pt x="1918" y="1336" on="1"/>
      </contour>
    </TTGlyph>
    <TTGlyph name="Iacute" xMin="618" yMin="2" xMax="2612" yMax="1692">
      <contour>
        <pt x="1836" y="1354" on="1"/>
        <pt x="1870" y="1393" on="0"/>
        <pt x="1930" y="1422" on="0"/>
        <pt x="1972" y="1422" on="1"/>
        <pt x="2019" y="1422" on="0"/>
        <pt x="2060" y="1391" on="0"/>
        <pt x="2060" y="1362" on="1"/>
        <pt x="2060" y="1343" on="0"/>
        <pt x="2068" y="1320" on="0"/>
        <pt x="2081" y="1308" on="0"/>
        <pt x="2096" y="1304" on="0"/>
        <pt x="2104" y="1304" on="1"/>
        <pt x="2137" y="1304" on="0"/>
        <pt x="2219" y="1324" on="0"/>
        <pt x="2309" y="1357" on="0"/>
        <pt x="2402" y="1399" on="0"/>
        <pt x="2488" y="1443" on="0"/>
        <pt x="2564" y="1484" on="0"/>
        <pt x="2592" y="1500" on="1"/>
        <pt x="2612" y="1482" on="1"/>
        <pt x="2529" y="1429" on="0"/>
        <pt x="2368" y="1294" on="0"/>
        <pt x="2221" y="1153" on="0"/>
        <pt x="2091" y="1016" on="0"/>
        <pt x="2040" y="960" on="1"/>
        <pt x="2010" y="926" on="0"/>
        <pt x="1930" y="834" on="0"/>
        <pt x="1836" y="727" on="0"/>
        <pt x="1734" y="611" on="0"/>
        <pt x="1631" y="494" on="0"/>
        <pt x="1529" y="383" on="0"/>
        <pt x="1484" y="336" on="1"/>
        <pt x="1414" y="263" on="0"/>
        <pt x="1268" y="141" on="0"/>
        <pt x="1110" y="52" on="0"/>
        <pt x="940" y="2" on="0"/>
        <pt x="846" y="2" on="1"/>
        <pt x="737" y="2" on="0"/>
        <pt x="618" y="86" on="0"/>
        <pt x="618" y="154" on="1"/>
        <pt x="618" y="179" on="0"/>
        <pt x="634" y="232" on="0"/>
        <pt x="667" y="275" on="0"/>
        <pt x="716" y="302" on="0"/>
        <pt x="748" y="302" on="1"/>
        <pt x="784" y="302" on="0"/>
        <pt x="824" y="264" on="0"/>
        <pt x="824" y="228" on="1"/>
        <pt x="824" y="195" on="0"/>
        <pt x="793" y="154" on="0"/>
        <pt x="757" y="126" on="0"/>
        <pt x="726" y="103" on="0"/>
        <pt x="726" y="88" on="1"/>
        <pt x="726" y="67" on="0"/>
        <pt x="774" y="46" on="0"/>
        <pt x="816" y="46" on="1"/>
        <pt x="896" y="46" on="0"/>
        <pt x="1034" y="94" on="0"/>
        <pt x="1160" y="180" on="0"/>
        <pt x="1281" y="300" on="0"/>
        <pt x="1344" y="372" on="1"/>
        <pt x="1441" y="482" on="0"/>
        <pt x="1666" y="734" on="0"/>
        <pt x="1784" y="868" on="1"/>
        <pt x="1873" y="969" on="0"/>
        <pt x="2065" y="1173" on="0"/>
        <pt x="2184" y="1264" on="1"/>
        <pt x="2172" y="1256" on="0"/>
        <pt x="2133" y="1236" on="0"/>
        <pt x="2087" y="1219" on="0"/>
        <pt x="2038" y="1208" on="0"/>
        <pt x="2016" y="1208" on="1"/>
        <pt x="1984" y="1208" on="0"/>
        <pt x="1942" y="1238" on="0"/>
        <pt x="1942" y="1276" on="1"/>
        <pt x="1942" y="1362" on="1"/>
        <pt x="1942" y="1371" on="0"/>
        <pt x="1932" y="1380" on="0"/>
        <pt x="1924" y="1380" on="1"/>
        <pt x="1913" y="1380" on="0"/>
        <pt x="1882" y="1362" on="0"/>
        <pt x="1856" y="1336" on="1"/>
      </contour>
      <contour>
        <pt x="2168" y="1490" on="1"/>
        <pt x="2190" y="1550" on="1"/>
        <pt x="2452" y="1692" on="1"/>
        <pt x="2492" y="1600" on="1"/>
      </contour>
    </TTGlyph>
    <TTGlyph name="Icircumflex" xMin="680" yMin="2" xMax="2674" yMax="1792">
      <contour>
        <pt x="2424" y="1682" on="1"/>
        <pt x="2158" y="1592" on="1"/>
        <pt x="2180" y="1652" on="1"/>
        <pt x="2438" y="1792" on="1"/>
        <pt x="2554" y="1624" on="1"/>
        <pt x="2576" y="1564" on="1"/>
      </contour>
      <contour>
        <pt x="1898" y="1354" on="1"/>
        <pt x="1932" y="1393" on="0"/>
        <pt x="1992" y="1422" on="0"/>
        <pt x="2034" y="1422" on="1"/>
        <pt x="2081" y="1422" on="0"/>
        <pt x="2122" y="1391" on="0"/>
        <pt x="2122" y="1362" on="1"/>
        <pt x="2122" y="1343" on="0"/>
        <pt x="2130" y="1320" on="0"/>
        <pt x="2143" y="1308" on="0"/>
        <pt x="2158" y="1304" on="0"/>
        <pt x="2166" y="1304" on="1"/>
        <pt x="2199" y="1304" on="0"/>
        <pt x="2281" y="1324" on="0"/>
        <pt x="2371" y="1357" on="0"/>
        <pt x="2464" y="1399" on="0"/>
        <pt x="2550" y="1443" on="0"/>
        <pt x="2626" y="1484" on="0"/>
        <pt x="2654" y="1500" on="1"/>
        <pt x="2674" y="1482" on="1"/>
        <pt x="2591" y="1429" on="0"/>
        <pt x="2430" y="1294" on="0"/>
        <pt x="2283" y="1153" on="0"/>
        <pt x="2153" y="1016" on="0"/>
        <pt x="2102" y="960" on="1"/>
        <pt x="2072" y="926" on="0"/>
        <pt x="1992" y="834" on="0"/>
        <pt x="1898" y="727" on="0"/>
        <pt x="1796" y="611" on="0"/>
        <pt x="1693" y="494" on="0"/>
        <pt x="1591" y="383" on="0"/>
        <pt x="1546" y="336" on="1"/>
        <pt x="1476" y="263" on="0"/>
        <pt x="1330" y="141" on="0"/>
        <pt x="1172" y="52" on="0"/>
        <pt x="1002" y="2" on="0"/>
        <pt x="908" y="2" on="1"/>
        <pt x="799" y="2" on="0"/>
        <pt x="680" y="86" on="0"/>
        <pt x="680" y="154" on="1"/>
        <pt x="680" y="179" on="0"/>
        <pt x="696" y="232" on="0"/>
        <pt x="729" y="275" on="0"/>
        <pt x="778" y="302" on="0"/>
        <pt x="810" y="302" on="1"/>
        <pt x="846" y="302" on="0"/>
        <pt x="886" y="264" on="0"/>
        <pt x="886" y="228" on="1"/>
        <pt x="886" y="195" on="0"/>
        <pt x="855" y="154" on="0"/>
        <pt x="819" y="126" on="0"/>
        <pt x="788" y="103" on="0"/>
        <pt x="788" y="88" on="1"/>
        <pt x="788" y="67" on="0"/>
        <pt x="836" y="46" on="0"/>
        <pt x="878" y="46" on="1"/>
        <pt x="958" y="46" on="0"/>
        <pt x="1096" y="94" on="0"/>
        <pt x="1222" y="180" on="0"/>
        <pt x="1343" y="300" on="0"/>
        <pt x="1406" y="372" on="1"/>
        <pt x="1503" y="482" on="0"/>
        <pt x="1728" y="734" on="0"/>
        <pt x="1846" y="868" on="1"/>
        <pt x="1935" y="969" on="0"/>
        <pt x="2127" y="1173" on="0"/>
        <pt x="2246" y="1264" on="1"/>
        <pt x="2234" y="1256" on="0"/>
        <pt x="2195" y="1236" on="0"/>
        <pt x="2149" y="1219" on="0"/>
        <pt x="2100" y="1208" on="0"/>
        <pt x="2078" y="1208" on="1"/>
        <pt x="2046" y="1208" on="0"/>
        <pt x="2004" y="1238" on="0"/>
        <pt x="2004" y="1276" on="1"/>
        <pt x="2004" y="1362" on="1"/>
        <pt x="2004" y="1371" on="0"/>
        <pt x="1994" y="1380" on="0"/>
        <pt x="1986" y="1380" on="1"/>
        <pt x="1975" y="1380" on="0"/>
        <pt x="1944" y="1362" on="0"/>
        <pt x="1918" y="1336" on="1"/>
      </contour>
    </TTGlyph>
    <TTGlyph name="Idieresis" xMin="712" yMin="2" xMax="2706" yMax="1728">
      <contour>
        <pt x="1930" y="1354" on="1"/>
        <pt x="1964" y="1393" on="0"/>
        <pt x="2024" y="1422" on="0"/>
        <pt x="2066" y="1422" on="1"/>
        <pt x="2113" y="1422" on="0"/>
        <pt x="2154" y="1391" on="0"/>
        <pt x="2154" y="1362" on="1"/>
        <pt x="2154" y="1343" on="0"/>
        <pt x="2162" y="1320" on="0"/>
        <pt x="2175" y="1308" on="0"/>
        <pt x="2190" y="1304" on="0"/>
        <pt x="2198" y="1304" on="1"/>
        <pt x="2231" y="1304" on="0"/>
        <pt x="2313" y="1324" on="0"/>
        <pt x="2403" y="1357" on="0"/>
        <pt x="2496" y="1399" on="0"/>
        <pt x="2582" y="1443" on="0"/>
        <pt x="2658" y="1484" on="0"/>
        <pt x="2686" y="1500" on="1"/>
        <pt x="2706" y="1482" on="1"/>
        <pt x="2623" y="1429" on="0"/>
        <pt x="2462" y="1294" on="0"/>
        <pt x="2315" y="1153" on="0"/>
        <pt x="2185" y="1016" on="0"/>
        <pt x="2134" y="960" on="1"/>
        <pt x="2104" y="926" on="0"/>
        <pt x="2024" y="834" on="0"/>
        <pt x="1930" y="727" on="0"/>
        <pt x="1828" y="611" on="0"/>
        <pt x="1725" y="494" on="0"/>
        <pt x="1623" y="383" on="0"/>
        <pt x="1578" y="336" on="1"/>
        <pt x="1508" y="263" on="0"/>
        <pt x="1362" y="141" on="0"/>
        <pt x="1204" y="52" on="0"/>
        <pt x="1034" y="2" on="0"/>
        <pt x="940" y="2" on="1"/>
        <pt x="831" y="2" on="0"/>
        <pt x="712" y="86" on="0"/>
        <pt x="712" y="154" on="1"/>
        <pt x="712" y="179" on="0"/>
        <pt x="728" y="232" on="0"/>
        <pt x="761" y="275" on="0"/>
        <pt x="810" y="302" on="0"/>
        <pt x="842" y="302" on="1"/>
        <pt x="878" y="302" on="0"/>
        <pt x="918" y="264" on="0"/>
        <pt x="918" y="228" on="1"/>
        <pt x="918" y="195" on="0"/>
        <pt x="887" y="154" on="0"/>
        <pt x="851" y="126" on="0"/>
        <pt x="820" y="103" on="0"/>
        <pt x="820" y="88" on="1"/>
        <pt x="820" y="67" on="0"/>
        <pt x="868" y="46" on="0"/>
        <pt x="910" y="46" on="1"/>
        <pt x="990" y="46" on="0"/>
        <pt x="1128" y="94" on="0"/>
        <pt x="1254" y="180" on="0"/>
        <pt x="1375" y="300" on="0"/>
        <pt x="1438" y="372" on="1"/>
        <pt x="1535" y="482" on="0"/>
        <pt x="1760" y="734" on="0"/>
        <pt x="1878" y="868" on="1"/>
        <pt x="1967" y="969" on="0"/>
        <pt x="2159" y="1173" on="0"/>
        <pt x="2278" y="1264" on="1"/>
        <pt x="2266" y="1256" on="0"/>
        <pt x="2227" y="1236" on="0"/>
        <pt x="2181" y="1219" on="0"/>
        <pt x="2132" y="1208" on="0"/>
        <pt x="2110" y="1208" on="1"/>
        <pt x="2078" y="1208" on="0"/>
        <pt x="2036" y="1238" on="0"/>
        <pt x="2036" y="1276" on="1"/>
        <pt x="2036" y="1362" on="1"/>
        <pt x="2036" y="1371" on="0"/>
        <pt x="2026" y="1380" on="0"/>
        <pt x="2018" y="1380" on="1"/>
        <pt x="2007" y="1380" on="0"/>
        <pt x="1976" y="1362" on="0"/>
        <pt x="1950" y="1336" on="1"/>
      </contour>
      <contour>
        <pt x="2458" y="1672" on="1"/>
        <pt x="2458" y="1655" on="0"/>
        <pt x="2440" y="1625" on="0"/>
        <pt x="2411" y="1603" on="0"/>
        <pt x="2373" y="1590" on="0"/>
        <pt x="2354" y="1590" on="1"/>
        <pt x="2340" y="1590" on="0"/>
        <pt x="2313" y="1596" on="0"/>
        <pt x="2290" y="1612" on="0"/>
        <pt x="2276" y="1639" on="0"/>
        <pt x="2276" y="1660" on="1"/>
        <pt x="2276" y="1678" on="0"/>
        <pt x="2296" y="1704" on="0"/>
        <pt x="2326" y="1720" on="0"/>
        <pt x="2364" y="1728" on="0"/>
        <pt x="2382" y="1728" on="1"/>
        <pt x="2412" y="1728" on="0"/>
        <pt x="2453" y="1701" on="0"/>
      </contour>
      <contour>
        <pt x="2696" y="1670" on="1"/>
        <pt x="2696" y="1653" on="0"/>
        <pt x="2678" y="1623" on="0"/>
        <pt x="2649" y="1601" on="0"/>
        <pt x="2611" y="1588" on="0"/>
        <pt x="2592" y="1588" on="1"/>
        <pt x="2578" y="1588" on="0"/>
        <pt x="2551" y="1594" on="0"/>
        <pt x="2528" y="1610" on="0"/>
        <pt x="2514" y="1637" on="0"/>
        <pt x="2514" y="1658" on="1"/>
        <pt x="2514" y="1676" on="0"/>
        <pt x="2534" y="1702" on="0"/>
        <pt x="2564" y="1718" on="0"/>
        <pt x="2602" y="1726" on="0"/>
        <pt x="2620" y="1726" on="1"/>
        <pt x="2650" y="1726" on="0"/>
        <pt x="2691" y="1699" on="0"/>
      </contour>
    </TTGlyph>
    <TTGlyph name="Igrave" xMin="552" yMin="2" xMax="2546" yMax="1702">
      <contour>
        <pt x="1770" y="1354" on="1"/>
        <pt x="1804" y="1393" on="0"/>
        <pt x="1864" y="1422" on="0"/>
        <pt x="1906" y="1422" on="1"/>
        <pt x="1953" y="1422" on="0"/>
        <pt x="1994" y="1391" on="0"/>
        <pt x="1994" y="1362" on="1"/>
        <pt x="1994" y="1343" on="0"/>
        <pt x="2002" y="1320" on="0"/>
        <pt x="2015" y="1308" on="0"/>
        <pt x="2030" y="1304" on="0"/>
        <pt x="2038" y="1304" on="1"/>
        <pt x="2071" y="1304" on="0"/>
        <pt x="2153" y="1324" on="0"/>
        <pt x="2243" y="1357" on="0"/>
        <pt x="2336" y="1399" on="0"/>
        <pt x="2422" y="1443" on="0"/>
        <pt x="2498" y="1484" on="0"/>
        <pt x="2526" y="1500" on="1"/>
        <pt x="2546" y="1482" on="1"/>
        <pt x="2463" y="1429" on="0"/>
        <pt x="2302" y="1294" on="0"/>
        <pt x="2155" y="1153" on="0"/>
        <pt x="2025" y="1016" on="0"/>
        <pt x="1974" y="960" on="1"/>
        <pt x="1944" y="926" on="0"/>
        <pt x="1864" y="834" on="0"/>
        <pt x="1770" y="727" on="0"/>
        <pt x="1668" y="611" on="0"/>
        <pt x="1565" y="494" on="0"/>
        <pt x="1463" y="383" on="0"/>
        <pt x="1418" y="336" on="1"/>
        <pt x="1348" y="263" on="0"/>
        <pt x="1202" y="141" on="0"/>
        <pt x="1044" y="52" on="0"/>
        <pt x="874" y="2" on="0"/>
        <pt x="780" y="2" on="1"/>
        <pt x="671" y="2" on="0"/>
        <pt x="552" y="86" on="0"/>
        <pt x="552" y="154" on="1"/>
        <pt x="552" y="179" on="0"/>
        <pt x="568" y="232" on="0"/>
        <pt x="601" y="275" on="0"/>
        <pt x="650" y="302" on="0"/>
        <pt x="682" y="302" on="1"/>
        <pt x="718" y="302" on="0"/>
        <pt x="758" y="264" on="0"/>
        <pt x="758" y="228" on="1"/>
        <pt x="758" y="195" on="0"/>
        <pt x="727" y="154" on="0"/>
        <pt x="691" y="126" on="0"/>
        <pt x="660" y="103" on="0"/>
        <pt x="660" y="88" on="1"/>
        <pt x="660" y="67" on="0"/>
        <pt x="708" y="46" on="0"/>
        <pt x="750" y="46" on="1"/>
        <pt x="830" y="46" on="0"/>
        <pt x="968" y="94" on="0"/>
        <pt x="1094" y="180" on="0"/>
        <pt x="1215" y="300" on="0"/>
        <pt x="1278" y="372" on="1"/>
        <pt x="1375" y="482" on="0"/>
        <pt x="1600" y="734" on="0"/>
        <pt x="1718" y="868" on="1"/>
        <pt x="1807" y="969" on="0"/>
        <pt x="1999" y="1173" on="0"/>
        <pt x="2118" y="1264" on="1"/>
        <pt x="2106" y="1256" on="0"/>
        <pt x="2067" y="1236" on="0"/>
        <pt x="2021" y="1219" on="0"/>
        <pt x="1972" y="1208" on="0"/>
        <pt x="1950" y="1208" on="1"/>
        <pt x="1918" y="1208" on="0"/>
        <pt x="1876" y="1238" on="0"/>
        <pt x="1876" y="1276" on="1"/>
        <pt x="1876" y="1362" on="1"/>
        <pt x="1876" y="1371" on="0"/>
        <pt x="1866" y="1380" on="0"/>
        <pt x="1858" y="1380" on="1"/>
        <pt x="1847" y="1380" on="0"/>
        <pt x="1816" y="1362" on="0"/>
        <pt x="1790" y="1336" on="1"/>
      </contour>
      <contour>
        <pt x="1994" y="1610" on="1"/>
        <pt x="2034" y="1702" on="1"/>
        <pt x="2296" y="1560" on="1"/>
        <pt x="2318" y="1500" on="1"/>
      </contour>
    </TTGlyph>
    <TTGlyph name="J" xMin="658" yMin="2" xMax="2652" yMax="1500">
      <contour>
        <pt x="1876" y="1354" on="1"/>
        <pt x="1910" y="1393" on="0"/>
        <pt x="1970" y="1422" on="0"/>
        <pt x="2012" y="1422" on="1"/>
        <pt x="2059" y="1422" on="0"/>
        <pt x="2100" y="1391" on="0"/>
        <pt x="2100" y="1362" on="1"/>
        <pt x="2100" y="1343" on="0"/>
        <pt x="2108" y="1320" on="0"/>
        <pt x="2121" y="1308" on="0"/>
        <pt x="2136" y="1304" on="0"/>
        <pt x="2144" y="1304" on="1"/>
        <pt x="2177" y="1304" on="0"/>
        <pt x="2259" y="1324" on="0"/>
        <pt x="2349" y="1357" on="0"/>
        <pt x="2442" y="1399" on="0"/>
        <pt x="2528" y="1443" on="0"/>
        <pt x="2604" y="1484" on="0"/>
        <pt x="2632" y="1500" on="1"/>
        <pt x="2652" y="1482" on="1"/>
        <pt x="2569" y="1429" on="0"/>
        <pt x="2408" y="1295" on="0"/>
        <pt x="2260" y="1154" on="0"/>
        <pt x="2130" y="1017" on="0"/>
        <pt x="2080" y="960" on="1"/>
        <pt x="1822" y="666" on="1"/>
        <pt x="1968" y="656" on="1"/>
        <pt x="1934" y="600" on="1"/>
        <pt x="1764" y="600" on="1"/>
        <pt x="1702" y="529" on="0"/>
        <pt x="1578" y="393" on="0"/>
        <pt x="1524" y="336" on="1"/>
        <pt x="1454" y="263" on="0"/>
        <pt x="1308" y="141" on="0"/>
        <pt x="1150" y="52" on="0"/>
        <pt x="980" y="2" on="0"/>
        <pt x="886" y="2" on="1"/>
        <pt x="777" y="2" on="0"/>
        <pt x="658" y="86" on="0"/>
        <pt x="658" y="154" on="1"/>
        <pt x="658" y="179" on="0"/>
        <pt x="674" y="232" on="0"/>
        <pt x="707" y="275" on="0"/>
        <pt x="756" y="302" on="0"/>
        <pt x="788" y="302" on="1"/>
        <pt x="824" y="302" on="0"/>
        <pt x="864" y="264" on="0"/>
        <pt x="864" y="228" on="1"/>
        <pt x="864" y="195" on="0"/>
        <pt x="833" y="154" on="0"/>
        <pt x="797" y="126" on="0"/>
        <pt x="766" y="103" on="0"/>
        <pt x="766" y="88" on="1"/>
        <pt x="766" y="67" on="0"/>
        <pt x="814" y="46" on="0"/>
        <pt x="856" y="46" on="1"/>
        <pt x="936" y="46" on="0"/>
        <pt x="1074" y="94" on="0"/>
        <pt x="1200" y="180" on="0"/>
        <pt x="1321" y="300" on="0"/>
        <pt x="1384" y="372" on="1"/>
        <pt x="1431" y="425" on="0"/>
        <pt x="1532" y="538" on="0"/>
        <pt x="1586" y="600" on="1"/>
        <pt x="1428" y="600" on="1"/>
        <pt x="1492" y="690" on="1"/>
        <pt x="1656" y="678" on="1"/>
        <pt x="1824" y="868" on="1"/>
        <pt x="1913" y="969" on="0"/>
        <pt x="2105" y="1173" on="0"/>
        <pt x="2224" y="1264" on="1"/>
        <pt x="2212" y="1256" on="0"/>
        <pt x="2173" y="1236" on="0"/>
        <pt x="2127" y="1219" on="0"/>
        <pt x="2078" y="1208" on="0"/>
        <pt x="2056" y="1208" on="1"/>
        <pt x="2024" y="1208" on="0"/>
        <pt x="1982" y="1238" on="0"/>
        <pt x="1982" y="1276" on="1"/>
        <pt x="1982" y="1362" on="1"/>
        <pt x="1982" y="1371" on="0"/>
        <pt x="1972" y="1380" on="0"/>
        <pt x="1964" y="1380" on="1"/>
        <pt x="1953" y="1380" on="0"/>
        <pt x="1922" y="1362" on="0"/>
        <pt x="1896" y="1336" on="1"/>
      </contour>
    </TTGlyph>
    <TTGlyph name="K" xMin="572" yMin="-2" xMax="3110" yMax="1496">
      <contour>
        <pt x="1790" y="1350" on="1"/>
        <pt x="1824" y="1389" on="0"/>
        <pt x="1884" y="1418" on="0"/>
        <pt x="1926" y="1418" on="1"/>
        <pt x="1973" y="1418" on="0"/>
        <pt x="2014" y="1387" on="0"/>
        <pt x="2014" y="1358" on="1"/>
        <pt x="2014" y="1339" on="0"/>
        <pt x="2022" y="1316" on="0"/>
        <pt x="2035" y="1304" on="0"/>
        <pt x="2050" y="1300" on="0"/>
        <pt x="2058" y="1300" on="1"/>
        <pt x="2091" y="1300" on="0"/>
        <pt x="2173" y="1320" on="0"/>
        <pt x="2263" y="1353" on="0"/>
        <pt x="2356" y="1395" on="0"/>
        <pt x="2442" y="1439" on="0"/>
        <pt x="2518" y="1480" on="0"/>
        <pt x="2546" y="1496" on="1"/>
        <pt x="2566" y="1478" on="1"/>
        <pt x="2483" y="1425" on="0"/>
        <pt x="2322" y="1290" on="0"/>
        <pt x="2175" y="1149" on="0"/>
        <pt x="2045" y="1012" on="0"/>
        <pt x="1994" y="956" on="1"/>
        <pt x="1964" y="922" on="0"/>
        <pt x="1884" y="830" on="0"/>
        <pt x="1790" y="723" on="0"/>
        <pt x="1688" y="607" on="0"/>
        <pt x="1585" y="490" on="0"/>
        <pt x="1483" y="379" on="0"/>
        <pt x="1438" y="332" on="1"/>
        <pt x="1368" y="259" on="0"/>
        <pt x="1222" y="137" on="0"/>
        <pt x="1064" y="48" on="0"/>
        <pt x="894" y="-2" on="0"/>
        <pt x="800" y="-2" on="1"/>
        <pt x="691" y="-2" on="0"/>
        <pt x="572" y="82" on="0"/>
        <pt x="572" y="150" on="1"/>
        <pt x="572" y="175" on="0"/>
        <pt x="588" y="228" on="0"/>
        <pt x="621" y="271" on="0"/>
        <pt x="670" y="298" on="0"/>
        <pt x="702" y="298" on="1"/>
        <pt x="738" y="298" on="0"/>
        <pt x="778" y="260" on="0"/>
        <pt x="778" y="224" on="1"/>
        <pt x="778" y="191" on="0"/>
        <pt x="747" y="150" on="0"/>
        <pt x="711" y="122" on="0"/>
        <pt x="680" y="99" on="0"/>
        <pt x="680" y="84" on="1"/>
        <pt x="680" y="63" on="0"/>
        <pt x="728" y="42" on="0"/>
        <pt x="770" y="42" on="1"/>
        <pt x="850" y="42" on="0"/>
        <pt x="988" y="90" on="0"/>
        <pt x="1114" y="176" on="0"/>
        <pt x="1235" y="296" on="0"/>
        <pt x="1298" y="368" on="1"/>
        <pt x="1395" y="478" on="0"/>
        <pt x="1620" y="730" on="0"/>
        <pt x="1738" y="864" on="1"/>
        <pt x="1827" y="965" on="0"/>
        <pt x="2019" y="1169" on="0"/>
        <pt x="2138" y="1260" on="1"/>
        <pt x="2126" y="1252" on="0"/>
        <pt x="2087" y="1232" on="0"/>
        <pt x="2041" y="1215" on="0"/>
        <pt x="1992" y="1204" on="0"/>
        <pt x="1970" y="1204" on="1"/>
        <pt x="1938" y="1204" on="0"/>
        <pt x="1896" y="1234" on="0"/>
        <pt x="1896" y="1272" on="1"/>
        <pt x="1896" y="1358" on="1"/>
        <pt x="1896" y="1367" on="0"/>
        <pt x="1886" y="1376" on="0"/>
        <pt x="1878" y="1376" on="1"/>
        <pt x="1867" y="1376" on="0"/>
        <pt x="1836" y="1358" on="0"/>
        <pt x="1810" y="1332" on="1"/>
      </contour>
      <contour>
        <pt x="2280" y="686" on="1"/>
        <pt x="2280" y="618" on="0"/>
        <pt x="2214" y="494" on="0"/>
        <pt x="2115" y="383" on="0"/>
        <pt x="1999" y="286" on="0"/>
        <pt x="1900" y="202" on="0"/>
        <pt x="1834" y="133" on="0"/>
        <pt x="1834" y="106" on="1"/>
        <pt x="1834" y="86" on="0"/>
        <pt x="1849" y="63" on="0"/>
        <pt x="1874" y="51" on="0"/>
        <pt x="1907" y="48" on="0"/>
        <pt x="1926" y="48" on="1"/>
        <pt x="1968" y="48" on="0"/>
        <pt x="2076" y="75" on="0"/>
        <pt x="2189" y="115" on="0"/>
        <pt x="2298" y="163" on="0"/>
        <pt x="2342" y="184" on="1"/>
        <pt x="2352" y="160" on="1"/>
        <pt x="2200" y="86" on="0"/>
        <pt x="1954" y="0" on="0"/>
        <pt x="1868" y="0" on="1"/>
        <pt x="1844" y="0" on="0"/>
        <pt x="1792" y="8" on="0"/>
        <pt x="1748" y="34" on="0"/>
        <pt x="1720" y="82" on="0"/>
        <pt x="1720" y="122" on="1"/>
        <pt x="1720" y="172" on="0"/>
        <pt x="1785" y="265" on="0"/>
        <pt x="1883" y="355" on="0"/>
        <pt x="1997" y="446" on="0"/>
        <pt x="2095" y="542" on="0"/>
        <pt x="2160" y="647" on="0"/>
        <pt x="2160" y="706" on="1"/>
        <pt x="2160" y="723" on="0"/>
        <pt x="2150" y="736" on="1"/>
        <pt x="2136" y="726" on="0"/>
        <pt x="2108" y="716" on="0"/>
        <pt x="2083" y="711" on="0"/>
        <pt x="2064" y="710" on="0"/>
        <pt x="2060" y="710" on="1"/>
        <pt x="2037" y="710" on="0"/>
        <pt x="2002" y="725" on="0"/>
        <pt x="1978" y="746" on="0"/>
        <pt x="1966" y="771" on="0"/>
        <pt x="1966" y="782" on="1"/>
        <pt x="1966" y="809" on="0"/>
        <pt x="2013" y="852" on="0"/>
        <pt x="2064" y="852" on="1"/>
        <pt x="2090" y="852" on="0"/>
        <pt x="2135" y="844" on="0"/>
        <pt x="2156" y="836" on="1"/>
        <pt x="2197" y="856" on="0"/>
        <pt x="2275" y="931" on="0"/>
        <pt x="2355" y="1028" on="0"/>
        <pt x="2439" y="1137" on="0"/>
        <pt x="2532" y="1246" on="0"/>
        <pt x="2637" y="1346" on="0"/>
        <pt x="2757" y="1422" on="0"/>
        <pt x="2897" y="1468" on="0"/>
        <pt x="2978" y="1468" on="1"/>
        <pt x="3009" y="1468" on="0"/>
        <pt x="3058" y="1451" on="0"/>
        <pt x="3092" y="1423" on="0"/>
        <pt x="3110" y="1386" on="0"/>
        <pt x="3110" y="1366" on="1"/>
        <pt x="3110" y="1341" on="0"/>
        <pt x="3087" y="1284" on="0"/>
        <pt x="3044" y="1236" on="0"/>
        <pt x="2980" y="1204" on="0"/>
        <pt x="2940" y="1204" on="1"/>
        <pt x="2928" y="1204" on="0"/>
        <pt x="2901" y="1210" on="0"/>
        <pt x="2877" y="1224" on="0"/>
        <pt x="2862" y="1247" on="0"/>
        <pt x="2862" y="1264" on="1"/>
        <pt x="2862" y="1295" on="0"/>
        <pt x="2903" y="1333" on="0"/>
        <pt x="2953" y="1358" on="0"/>
        <pt x="2994" y="1378" on="0"/>
        <pt x="2994" y="1392" on="1"/>
        <pt x="2994" y="1403" on="0"/>
        <pt x="2968" y="1408" on="0"/>
        <pt x="2956" y="1408" on="1"/>
        <pt x="2874" y="1408" on="0"/>
        <pt x="2737" y="1342" on="0"/>
        <pt x="2618" y="1235" on="0"/>
        <pt x="2511" y="1099" on="0"/>
        <pt x="2405" y="962" on="0"/>
        <pt x="2295" y="834" on="0"/>
        <pt x="2234" y="788" on="1"/>
        <pt x="2257" y="765" on="0"/>
        <pt x="2280" y="712" on="0"/>
      </contour>
    </TTGlyph>
    <TTGlyph name="L" xMin="658" yMin="-2" xMax="2806" yMax="1502">
      <contour>
        <pt x="2050" y="1150" on="1"/>
        <pt x="2138" y="1250" on="0"/>
        <pt x="2313" y="1385" on="0"/>
        <pt x="2475" y="1467" on="0"/>
        <pt x="2620" y="1502" on="0"/>
        <pt x="2678" y="1502" on="1"/>
        <pt x="2698" y="1502" on="0"/>
        <pt x="2743" y="1498" on="0"/>
        <pt x="2781" y="1482" on="0"/>
        <pt x="2806" y="1450" on="0"/>
        <pt x="2806" y="1422" on="1"/>
        <pt x="2806" y="1347" on="0"/>
        <pt x="2721" y="1201" on="0"/>
        <pt x="2583" y="1069" on="0"/>
        <pt x="2407" y="952" on="0"/>
        <pt x="2228" y="862" on="0"/>
        <pt x="2060" y="800" on="0"/>
        <pt x="1998" y="788" on="1"/>
        <pt x="1944" y="776" on="0"/>
        <pt x="1884" y="770" on="1"/>
        <pt x="1864" y="747" on="0"/>
        <pt x="1829" y="709" on="0"/>
        <pt x="1814" y="692" on="1"/>
        <pt x="1739" y="609" on="0"/>
        <pt x="1596" y="446" on="0"/>
        <pt x="1455" y="297" on="0"/>
        <pt x="1312" y="169" on="0"/>
        <pt x="1236" y="120" on="1"/>
        <pt x="1294" y="106" on="0"/>
        <pt x="1411" y="79" on="0"/>
        <pt x="1521" y="58" on="0"/>
        <pt x="1621" y="46" on="0"/>
        <pt x="1662" y="46" on="1"/>
        <pt x="1678" y="46" on="0"/>
        <pt x="1738" y="53" on="0"/>
        <pt x="1840" y="80" on="0"/>
        <pt x="1991" y="135" on="0"/>
        <pt x="2098" y="182" on="1"/>
        <pt x="2100" y="176" on="0"/>
        <pt x="2103" y="172" on="1"/>
        <pt x="2105" y="168" on="0"/>
        <pt x="2108" y="160" on="0"/>
        <pt x="2108" y="158" on="1"/>
        <pt x="2055" y="134" on="0"/>
        <pt x="1940" y="78" on="0"/>
        <pt x="1818" y="30" on="0"/>
        <pt x="1691" y="-2" on="0"/>
        <pt x="1626" y="-2" on="1"/>
        <pt x="1579" y="-2" on="0"/>
        <pt x="1470" y="14" on="0"/>
        <pt x="1353" y="38" on="0"/>
        <pt x="1232" y="68" on="0"/>
        <pt x="1172" y="82" on="1"/>
        <pt x="1097" y="41" on="0"/>
        <pt x="937" y="-2" on="0"/>
        <pt x="848" y="-2" on="1"/>
        <pt x="808" y="-2" on="0"/>
        <pt x="739" y="15" on="0"/>
        <pt x="688" y="42" on="0"/>
        <pt x="658" y="78" on="0"/>
        <pt x="658" y="98" on="1"/>
        <pt x="658" y="129" on="0"/>
        <pt x="688" y="168" on="0"/>
        <pt x="736" y="189" on="0"/>
        <pt x="797" y="196" on="0"/>
        <pt x="828" y="196" on="1"/>
        <pt x="881" y="196" on="0"/>
        <pt x="1032" y="168" on="0"/>
        <pt x="1120" y="148" on="1"/>
        <pt x="1175" y="189" on="0"/>
        <pt x="1285" y="296" on="0"/>
        <pt x="1393" y="414" on="0"/>
        <pt x="1496" y="536" on="0"/>
        <pt x="1546" y="592" on="1"/>
        <pt x="1578" y="627" on="0"/>
        <pt x="1655" y="717" on="0"/>
        <pt x="1700" y="768" on="1"/>
        <pt x="1652" y="772" on="0"/>
        <pt x="1534" y="793" on="0"/>
        <pt x="1430" y="835" on="0"/>
        <pt x="1360" y="898" on="0"/>
        <pt x="1360" y="944" on="1"/>
        <pt x="1360" y="982" on="0"/>
        <pt x="1401" y="1041" on="0"/>
        <pt x="1467" y="1085" on="0"/>
        <pt x="1551" y="1116" on="0"/>
        <pt x="1637" y="1136" on="0"/>
        <pt x="1718" y="1147" on="0"/>
        <pt x="1748" y="1150" on="1"/>
        <pt x="1754" y="1138" on="1"/>
        <pt x="1722" y="1136" on="0"/>
        <pt x="1630" y="1106" on="0"/>
        <pt x="1543" y="1055" on="0"/>
        <pt x="1482" y="986" on="0"/>
        <pt x="1482" y="946" on="1"/>
        <pt x="1482" y="908" on="0"/>
        <pt x="1533" y="860" on="0"/>
        <pt x="1611" y="830" on="0"/>
        <pt x="1702" y="816" on="0"/>
        <pt x="1742" y="814" on="1"/>
        <pt x="1814" y="897" on="0"/>
        <pt x="1972" y="1070" on="0"/>
      </contour>
      <contour>
        <pt x="1930" y="824" on="1"/>
        <pt x="1956" y="829" on="0"/>
        <pt x="2006" y="838" on="0"/>
        <pt x="2032" y="846" on="1"/>
        <pt x="2080" y="859" on="0"/>
        <pt x="2220" y="918" on="0"/>
        <pt x="2374" y="1001" on="0"/>
        <pt x="2526" y="1104" on="0"/>
        <pt x="2647" y="1215" on="0"/>
        <pt x="2722" y="1330" on="0"/>
        <pt x="2722" y="1384" on="1"/>
        <pt x="2722" y="1397" on="0"/>
        <pt x="2708" y="1413" on="0"/>
        <pt x="2686" y="1422" on="0"/>
        <pt x="2660" y="1424" on="0"/>
        <pt x="2648" y="1424" on="1"/>
        <pt x="2603" y="1424" on="0"/>
        <pt x="2512" y="1393" on="0"/>
        <pt x="2422" y="1339" on="0"/>
        <pt x="2335" y="1269" on="0"/>
        <pt x="2294" y="1230" on="1"/>
        <pt x="2270" y="1204" on="0"/>
        <pt x="2224" y="1156" on="0"/>
        <pt x="2206" y="1136" on="1"/>
      </contour>
      <contour>
        <pt x="878" y="48" on="1"/>
        <pt x="923" y="48" on="0"/>
        <pt x="1013" y="79" on="0"/>
        <pt x="1060" y="106" on="1"/>
        <pt x="1000" y="120" on="0"/>
        <pt x="886" y="136" on="0"/>
        <pt x="838" y="136" on="1"/>
        <pt x="826" y="136" on="0"/>
        <pt x="798" y="134" on="0"/>
        <pt x="774" y="127" on="0"/>
        <pt x="758" y="113" on="0"/>
        <pt x="758" y="102" on="1"/>
        <pt x="758" y="91" on="0"/>
        <pt x="780" y="72" on="0"/>
        <pt x="814" y="57" on="0"/>
        <pt x="857" y="48" on="0"/>
      </contour>
    </TTGlyph>
    <TTGlyph name="M" xMin="212" yMin="0" xMax="3100" yMax="1518">
      <contour>
        <pt x="342" y="302" on="1"/>
        <pt x="356" y="302" on="0"/>
        <pt x="384" y="295" on="0"/>
        <pt x="405" y="278" on="0"/>
        <pt x="418" y="248" on="0"/>
        <pt x="418" y="226" on="1"/>
        <pt x="418" y="194" on="0"/>
        <pt x="387" y="154" on="0"/>
        <pt x="351" y="126" on="0"/>
        <pt x="320" y="103" on="0"/>
        <pt x="320" y="88" on="1"/>
        <pt x="320" y="77" on="0"/>
        <pt x="338" y="62" on="0"/>
        <pt x="364" y="53" on="0"/>
        <pt x="394" y="50" on="0"/>
        <pt x="406" y="50" on="1"/>
        <pt x="454" y="50" on="0"/>
        <pt x="535" y="61" on="0"/>
        <pt x="612" y="83" on="0"/>
        <pt x="691" y="116" on="0"/>
        <pt x="738" y="138" on="1"/>
        <pt x="767" y="151" on="0"/>
        <pt x="845" y="200" on="0"/>
        <pt x="933" y="262" on="0"/>
        <pt x="1026" y="332" on="0"/>
        <pt x="1111" y="402" on="0"/>
        <pt x="1185" y="467" on="0"/>
        <pt x="1210" y="492" on="1"/>
        <pt x="1630" y="904" on="1"/>
        <pt x="1837" y="1108" on="0"/>
        <pt x="2290" y="1412" on="0"/>
        <pt x="2536" y="1512" on="1"/>
        <pt x="2541" y="1514" on="0"/>
        <pt x="2561" y="1518" on="0"/>
        <pt x="2572" y="1518" on="1"/>
        <pt x="2581" y="1518" on="0"/>
        <pt x="2594" y="1513" on="0"/>
        <pt x="2594" y="1504" on="1"/>
        <pt x="2594" y="1488" on="0"/>
        <pt x="2583" y="1466" on="0"/>
        <pt x="2567" y="1451" on="0"/>
        <pt x="2550" y="1441" on="0"/>
        <pt x="2544" y="1438" on="1"/>
        <pt x="2505" y="1419" on="0"/>
        <pt x="2403" y="1339" on="0"/>
        <pt x="2287" y="1230" on="0"/>
        <pt x="2162" y="1099" on="0"/>
        <pt x="2040" y="963" on="0"/>
        <pt x="1926" y="827" on="0"/>
        <pt x="1878" y="768" on="1"/>
        <pt x="1835" y="715" on="0"/>
        <pt x="1737" y="605" on="0"/>
        <pt x="1637" y="495" on="0"/>
        <pt x="1540" y="389" on="0"/>
        <pt x="1498" y="340" on="1"/>
        <pt x="1481" y="319" on="0"/>
        <pt x="1457" y="289" on="0"/>
        <pt x="1435" y="264" on="0"/>
        <pt x="1410" y="240" on="0"/>
        <pt x="1392" y="224" on="1"/>
        <pt x="1436" y="254" on="0"/>
        <pt x="1529" y="325" on="0"/>
        <pt x="1616" y="396" on="0"/>
        <pt x="1690" y="462" on="0"/>
        <pt x="1716" y="488" on="1"/>
        <pt x="2136" y="900" on="1"/>
        <pt x="2343" y="1104" on="0"/>
        <pt x="2796" y="1408" on="0"/>
        <pt x="3042" y="1508" on="1"/>
        <pt x="3047" y="1510" on="0"/>
        <pt x="3067" y="1514" on="0"/>
        <pt x="3078" y="1514" on="1"/>
        <pt x="3087" y="1514" on="0"/>
        <pt x="3100" y="1509" on="0"/>
        <pt x="3100" y="1500" on="1"/>
        <pt x="3100" y="1484" on="0"/>
        <pt x="3089" y="1462" on="0"/>
        <pt x="3073" y="1447" on="0"/>
        <pt x="3056" y="1437" on="0"/>
        <pt x="3050" y="1434" on="1"/>
        <pt x="3011" y="1416" on="0"/>
        <pt x="2909" y="1335" on="0"/>
        <pt x="2793" y="1226" on="0"/>
        <pt x="2668" y="1095" on="0"/>
        <pt x="2546" y="959" on="0"/>
        <pt x="2432" y="823" on="0"/>
        <pt x="2384" y="764" on="1"/>
        <pt x="2334" y="703" on="0"/>
        <pt x="2219" y="575" on="0"/>
        <pt x="2103" y="448" on="0"/>
        <pt x="1995" y="329" on="0"/>
        <pt x="1912" y="225" on="0"/>
        <pt x="1862" y="141" on="0"/>
        <pt x="1862" y="114" on="1"/>
        <pt x="1862" y="73" on="0"/>
        <pt x="1890" y="48" on="0"/>
        <pt x="1928" y="48" on="1"/>
        <pt x="1970" y="48" on="0"/>
        <pt x="2078" y="75" on="0"/>
        <pt x="2191" y="115" on="0"/>
        <pt x="2300" y="163" on="0"/>
        <pt x="2344" y="184" on="1"/>
        <pt x="2354" y="160" on="1"/>
        <pt x="2202" y="86" on="0"/>
        <pt x="1956" y="0" on="0"/>
        <pt x="1870" y="0" on="1"/>
        <pt x="1846" y="0" on="0"/>
        <pt x="1794" y="8" on="0"/>
        <pt x="1750" y="34" on="0"/>
        <pt x="1722" y="82" on="0"/>
        <pt x="1722" y="122" on="1"/>
        <pt x="1722" y="159" on="0"/>
        <pt x="1798" y="279" on="0"/>
        <pt x="1927" y="438" on="0"/>
        <pt x="2097" y="629" on="0"/>
        <pt x="2192" y="736" on="1"/>
        <pt x="2243" y="794" on="0"/>
        <pt x="2328" y="890" on="0"/>
        <pt x="2404" y="974" on="0"/>
        <pt x="2478" y="1055" on="0"/>
        <pt x="2560" y="1141" on="0"/>
        <pt x="2657" y="1240" on="0"/>
        <pt x="2718" y="1302" on="1"/>
        <pt x="2657" y="1267" on="0"/>
        <pt x="2509" y="1164" on="0"/>
        <pt x="2359" y="1046" on="0"/>
        <pt x="2220" y="924" on="0"/>
        <pt x="2168" y="872" on="1"/>
        <pt x="2099" y="801" on="0"/>
        <pt x="1955" y="652" on="0"/>
        <pt x="1805" y="502" on="0"/>
        <pt x="1647" y="357" on="0"/>
        <pt x="1564" y="292" on="1"/>
        <pt x="1554" y="284" on="1"/>
        <pt x="1503" y="245" on="0"/>
        <pt x="1446" y="206" on="1"/>
        <pt x="1405" y="177" on="0"/>
        <pt x="1314" y="120" on="0"/>
        <pt x="1266" y="96" on="1"/>
        <pt x="1207" y="66" on="0"/>
        <pt x="1125" y="30" on="0"/>
        <pt x="1068" y="10" on="0"/>
        <pt x="1031" y="4" on="0"/>
        <pt x="1018" y="4" on="1"/>
        <pt x="1013" y="4" on="0"/>
        <pt x="998" y="6" on="0"/>
        <pt x="984" y="12" on="0"/>
        <pt x="974" y="22" on="0"/>
        <pt x="974" y="30" on="1"/>
        <pt x="974" y="48" on="0"/>
        <pt x="1039" y="88" on="0"/>
        <pt x="1092" y="114" on="1"/>
        <pt x="1152" y="143" on="0"/>
        <pt x="1255" y="234" on="0"/>
        <pt x="1312" y="308" on="1"/>
        <pt x="1345" y="351" on="0"/>
        <pt x="1428" y="449" on="0"/>
        <pt x="1524" y="558" on="0"/>
        <pt x="1630" y="677" on="0"/>
        <pt x="1686" y="740" on="1"/>
        <pt x="1737" y="798" on="0"/>
        <pt x="1822" y="894" on="0"/>
        <pt x="1898" y="978" on="0"/>
        <pt x="1972" y="1059" on="0"/>
        <pt x="2054" y="1145" on="0"/>
        <pt x="2151" y="1244" on="0"/>
        <pt x="2212" y="1306" on="1"/>
        <pt x="2151" y="1271" on="0"/>
        <pt x="2003" y="1168" on="0"/>
        <pt x="1853" y="1050" on="0"/>
        <pt x="1714" y="928" on="0"/>
        <pt x="1662" y="876" on="1"/>
        <pt x="1564" y="775" on="0"/>
        <pt x="1355" y="559" on="0"/>
        <pt x="1131" y="353" on="0"/>
        <pt x="889" y="169" on="0"/>
        <pt x="758" y="102" on="1"/>
        <pt x="702" y="74" on="0"/>
        <pt x="606" y="37" on="0"/>
        <pt x="519" y="14" on="0"/>
        <pt x="438" y="4" on="0"/>
        <pt x="398" y="4" on="1"/>
        <pt x="347" y="4" on="0"/>
        <pt x="276" y="33" on="0"/>
        <pt x="232" y="78" on="0"/>
        <pt x="212" y="132" on="0"/>
        <pt x="212" y="158" on="1"/>
        <pt x="212" y="189" on="0"/>
        <pt x="234" y="242" on="0"/>
        <pt x="270" y="281" on="0"/>
        <pt x="317" y="302" on="0"/>
      </contour>
    </TTGlyph>
    <TTGlyph name="N" xMin="216" yMin="8" xMax="3178" yMax="1522">
      <contour>
        <pt x="1316" y="312" on="1"/>
        <pt x="1349" y="355" on="0"/>
        <pt x="1432" y="453" on="0"/>
        <pt x="1528" y="562" on="0"/>
        <pt x="1634" y="681" on="0"/>
        <pt x="1690" y="744" on="1"/>
        <pt x="1741" y="802" on="0"/>
        <pt x="1826" y="898" on="0"/>
        <pt x="1902" y="982" on="0"/>
        <pt x="1976" y="1063" on="0"/>
        <pt x="2058" y="1149" on="0"/>
        <pt x="2155" y="1248" on="0"/>
        <pt x="2216" y="1310" on="1"/>
        <pt x="2155" y="1275" on="0"/>
        <pt x="2007" y="1172" on="0"/>
        <pt x="1857" y="1054" on="0"/>
        <pt x="1718" y="932" on="0"/>
        <pt x="1666" y="880" on="1"/>
        <pt x="1568" y="779" on="0"/>
        <pt x="1359" y="563" on="0"/>
        <pt x="1135" y="357" on="0"/>
        <pt x="893" y="173" on="0"/>
        <pt x="762" y="106" on="1"/>
        <pt x="706" y="78" on="0"/>
        <pt x="610" y="41" on="0"/>
        <pt x="523" y="18" on="0"/>
        <pt x="442" y="8" on="0"/>
        <pt x="402" y="8" on="1"/>
        <pt x="351" y="8" on="0"/>
        <pt x="280" y="37" on="0"/>
        <pt x="236" y="82" on="0"/>
        <pt x="216" y="136" on="0"/>
        <pt x="216" y="162" on="1"/>
        <pt x="216" y="193" on="0"/>
        <pt x="238" y="246" on="0"/>
        <pt x="274" y="285" on="0"/>
        <pt x="321" y="306" on="0"/>
        <pt x="346" y="306" on="1"/>
        <pt x="360" y="306" on="0"/>
        <pt x="388" y="299" on="0"/>
        <pt x="409" y="282" on="0"/>
        <pt x="422" y="252" on="0"/>
        <pt x="422" y="230" on="1"/>
        <pt x="422" y="198" on="0"/>
        <pt x="391" y="158" on="0"/>
        <pt x="355" y="130" on="0"/>
        <pt x="324" y="107" on="0"/>
        <pt x="324" y="92" on="1"/>
        <pt x="324" y="81" on="0"/>
        <pt x="342" y="66" on="0"/>
        <pt x="368" y="57" on="0"/>
        <pt x="398" y="54" on="0"/>
        <pt x="410" y="54" on="1"/>
        <pt x="458" y="54" on="0"/>
        <pt x="539" y="65" on="0"/>
        <pt x="616" y="87" on="0"/>
        <pt x="695" y="120" on="0"/>
        <pt x="742" y="142" on="1"/>
        <pt x="770" y="155" on="0"/>
        <pt x="849" y="204" on="0"/>
        <pt x="937" y="266" on="0"/>
        <pt x="1030" y="336" on="0"/>
        <pt x="1115" y="406" on="0"/>
        <pt x="1189" y="471" on="0"/>
        <pt x="1214" y="496" on="1"/>
        <pt x="1634" y="908" on="1"/>
        <pt x="1841" y="1112" on="0"/>
        <pt x="2294" y="1416" on="0"/>
        <pt x="2540" y="1516" on="1"/>
        <pt x="2545" y="1518" on="0"/>
        <pt x="2565" y="1522" on="0"/>
        <pt x="2576" y="1522" on="1"/>
        <pt x="2585" y="1522" on="0"/>
        <pt x="2598" y="1517" on="0"/>
        <pt x="2598" y="1508" on="1"/>
        <pt x="2598" y="1492" on="0"/>
        <pt x="2587" y="1470" on="0"/>
        <pt x="2571" y="1455" on="0"/>
        <pt x="2554" y="1445" on="0"/>
        <pt x="2548" y="1442" on="1"/>
        <pt x="2509" y="1424" on="0"/>
        <pt x="2407" y="1343" on="0"/>
        <pt x="2291" y="1234" on="0"/>
        <pt x="2166" y="1103" on="0"/>
        <pt x="2044" y="967" on="0"/>
        <pt x="1930" y="831" on="0"/>
        <pt x="1882" y="772" on="1"/>
        <pt x="1839" y="719" on="0"/>
        <pt x="1741" y="609" on="0"/>
        <pt x="1641" y="499" on="0"/>
        <pt x="1544" y="393" on="0"/>
        <pt x="1502" y="344" on="1"/>
        <pt x="1485" y="323" on="0"/>
        <pt x="1461" y="293" on="0"/>
        <pt x="1439" y="268" on="0"/>
        <pt x="1414" y="244" on="0"/>
        <pt x="1396" y="228" on="1"/>
        <pt x="1482" y="275" on="0"/>
        <pt x="1640" y="375" on="0"/>
        <pt x="1798" y="492" on="0"/>
        <pt x="1963" y="633" on="0"/>
        <pt x="2147" y="807" on="0"/>
        <pt x="2359" y="1020" on="0"/>
        <pt x="2486" y="1152" on="1"/>
        <pt x="2592" y="1263" on="0"/>
        <pt x="2756" y="1400" on="0"/>
        <pt x="2888" y="1476" on="0"/>
        <pt x="2997" y="1502" on="0"/>
        <pt x="3050" y="1502" on="1"/>
        <pt x="3112" y="1502" on="0"/>
        <pt x="3178" y="1447" on="0"/>
        <pt x="3178" y="1406" on="1"/>
        <pt x="3178" y="1381" on="0"/>
        <pt x="3155" y="1324" on="0"/>
        <pt x="3112" y="1276" on="0"/>
        <pt x="3048" y="1244" on="0"/>
        <pt x="3008" y="1244" on="1"/>
        <pt x="2996" y="1244" on="0"/>
        <pt x="2969" y="1250" on="0"/>
        <pt x="2945" y="1264" on="0"/>
        <pt x="2930" y="1287" on="0"/>
        <pt x="2930" y="1304" on="1"/>
        <pt x="2930" y="1335" on="0"/>
        <pt x="2971" y="1373" on="0"/>
        <pt x="3021" y="1398" on="0"/>
        <pt x="3062" y="1418" on="0"/>
        <pt x="3062" y="1432" on="1"/>
        <pt x="3062" y="1443" on="0"/>
        <pt x="3036" y="1448" on="0"/>
        <pt x="3024" y="1448" on="1"/>
        <pt x="2980" y="1448" on="0"/>
        <pt x="2894" y="1422" on="0"/>
        <pt x="2811" y="1378" on="0"/>
        <pt x="2732" y="1320" on="0"/>
        <pt x="2696" y="1288" on="1"/>
        <pt x="2642" y="1240" on="0"/>
        <pt x="2551" y="1142" on="0"/>
        <pt x="2516" y="1106" on="1"/>
        <pt x="2393" y="975" on="0"/>
        <pt x="2180" y="758" on="0"/>
        <pt x="1983" y="574" on="0"/>
        <pt x="1794" y="418" on="0"/>
        <pt x="1599" y="281" on="0"/>
        <pt x="1389" y="159" on="0"/>
        <pt x="1270" y="100" on="1"/>
        <pt x="1210" y="71" on="0"/>
        <pt x="1128" y="35" on="0"/>
        <pt x="1071" y="15" on="0"/>
        <pt x="1035" y="8" on="0"/>
        <pt x="1022" y="8" on="1"/>
        <pt x="1017" y="8" on="0"/>
        <pt x="1002" y="10" on="0"/>
        <pt x="988" y="16" on="0"/>
        <pt x="978" y="26" on="0"/>
        <pt x="978" y="34" on="1"/>
        <pt x="978" y="52" on="0"/>
        <pt x="1043" y="92" on="0"/>
        <pt x="1096" y="118" on="1"/>
        <pt x="1156" y="147" on="0"/>
        <pt x="1259" y="238" on="0"/>
      </contour>
    </TTGlyph>
    <TTGlyph name="Ntilde" xMin="-124" yMin="8" xMax="2838" yMax="1736">
      <contour>
        <pt x="976" y="312" on="1"/>
        <pt x="1009" y="355" on="0"/>
        <pt x="1092" y="453" on="0"/>
        <pt x="1188" y="562" on="0"/>
        <pt x="1294" y="681" on="0"/>
        <pt x="1350" y="744" on="1"/>
        <pt x="1401" y="802" on="0"/>
        <pt x="1486" y="898" on="0"/>
        <pt x="1562" y="982" on="0"/>
        <pt x="1636" y="1063" on="0"/>
        <pt x="1718" y="1149" on="0"/>
        <pt x="1815" y="1248" on="0"/>
        <pt x="1876" y="1310" on="1"/>
        <pt x="1815" y="1275" on="0"/>
        <pt x="1667" y="1172" on="0"/>
        <pt x="1517" y="1054" on="0"/>
        <pt x="1378" y="932" on="0"/>
        <pt x="1326" y="880" on="1"/>
        <pt x="1228" y="779" on="0"/>
        <pt x="1019" y="563" on="0"/>
        <pt x="795" y="357" on="0"/>
        <pt x="553" y="173" on="0"/>
        <pt x="422" y="106" on="1"/>
        <pt x="366" y="78" on="0"/>
        <pt x="270" y="41" on="0"/>
        <pt x="183" y="18" on="0"/>
        <pt x="102" y="8" on="0"/>
        <pt x="62" y="8" on="1"/>
        <pt x="11" y="8" on="0"/>
        <pt x="-60" y="37" on="0"/>
        <pt x="-104" y="82" on="0"/>
        <pt x="-124" y="136" on="0"/>
        <pt x="-124" y="162" on="1"/>
        <pt x="-124" y="193" on="0"/>
        <pt x="-102" y="246" on="0"/>
        <pt x="-66" y="285" on="0"/>
        <pt x="-19" y="306" on="0"/>
        <pt x="6" y="306" on="1"/>
        <pt x="20" y="306" on="0"/>
        <pt x="48" y="299" on="0"/>
        <pt x="69" y="282" on="0"/>
        <pt x="82" y="252" on="0"/>
        <pt x="82" y="230" on="1"/>
        <pt x="82" y="198" on="0"/>
        <pt x="51" y="158" on="0"/>
        <pt x="15" y="130" on="0"/>
        <pt x="-16" y="107" on="0"/>
        <pt x="-16" y="92" on="1"/>
        <pt x="-16" y="81" on="0"/>
        <pt x="2" y="66" on="0"/>
        <pt x="28" y="57" on="0"/>
        <pt x="58" y="54" on="0"/>
        <pt x="70" y="54" on="1"/>
        <pt x="118" y="54" on="0"/>
        <pt x="199" y="65" on="0"/>
        <pt x="276" y="87" on="0"/>
        <pt x="355" y="120" on="0"/>
        <pt x="402" y="142" on="1"/>
        <pt x="430" y="155" on="0"/>
        <pt x="509" y="204" on="0"/>
        <pt x="597" y="266" on="0"/>
        <pt x="690" y="336" on="0"/>
        <pt x="775" y="406" on="0"/>
        <pt x="849" y="471" on="0"/>
        <pt x="874" y="496" on="1"/>
        <pt x="1294" y="908" on="1"/>
        <pt x="1501" y="1112" on="0"/>
        <pt x="1954" y="1416" on="0"/>
        <pt x="2200" y="1516" on="1"/>
        <pt x="2205" y="1518" on="0"/>
        <pt x="2225" y="1522" on="0"/>
        <pt x="2236" y="1522" on="1"/>
        <pt x="2245" y="1522" on="0"/>
        <pt x="2258" y="1517" on="0"/>
        <pt x="2258" y="1508" on="1"/>
        <pt x="2258" y="1492" on="0"/>
        <pt x="2247" y="1470" on="0"/>
        <pt x="2231" y="1455" on="0"/>
        <pt x="2214" y="1445" on="0"/>
        <pt x="2208" y="1442" on="1"/>
        <pt x="2169" y="1424" on="0"/>
        <pt x="2067" y="1343" on="0"/>
        <pt x="1951" y="1234" on="0"/>
        <pt x="1826" y="1103" on="0"/>
        <pt x="1704" y="967" on="0"/>
        <pt x="1590" y="831" on="0"/>
        <pt x="1542" y="772" on="1"/>
        <pt x="1499" y="719" on="0"/>
        <pt x="1401" y="609" on="0"/>
        <pt x="1301" y="499" on="0"/>
        <pt x="1204" y="393" on="0"/>
        <pt x="1162" y="344" on="1"/>
        <pt x="1145" y="323" on="0"/>
        <pt x="1121" y="293" on="0"/>
        <pt x="1099" y="268" on="0"/>
        <pt x="1074" y="244" on="0"/>
        <pt x="1056" y="228" on="1"/>
        <pt x="1142" y="275" on="0"/>
        <pt x="1300" y="375" on="0"/>
        <pt x="1458" y="492" on="0"/>
        <pt x="1623" y="633" on="0"/>
        <pt x="1807" y="807" on="0"/>
        <pt x="2019" y="1020" on="0"/>
        <pt x="2146" y="1152" on="1"/>
        <pt x="2252" y="1263" on="0"/>
        <pt x="2416" y="1400" on="0"/>
        <pt x="2548" y="1476" on="0"/>
        <pt x="2657" y="1502" on="0"/>
        <pt x="2710" y="1502" on="1"/>
        <pt x="2772" y="1502" on="0"/>
        <pt x="2838" y="1447" on="0"/>
        <pt x="2838" y="1406" on="1"/>
        <pt x="2838" y="1381" on="0"/>
        <pt x="2815" y="1324" on="0"/>
        <pt x="2772" y="1276" on="0"/>
        <pt x="2708" y="1244" on="0"/>
        <pt x="2668" y="1244" on="1"/>
        <pt x="2656" y="1244" on="0"/>
        <pt x="2629" y="1250" on="0"/>
        <pt x="2605" y="1264" on="0"/>
        <pt x="2590" y="1287" on="0"/>
        <pt x="2590" y="1304" on="1"/>
        <pt x="2590" y="1335" on="0"/>
        <pt x="2631" y="1373" on="0"/>
        <pt x="2681" y="1398" on="0"/>
        <pt x="2722" y="1418" on="0"/>
        <pt x="2722" y="1432" on="1"/>
        <pt x="2722" y="1443" on="0"/>
        <pt x="2696" y="1448" on="0"/>
        <pt x="2684" y="1448" on="1"/>
        <pt x="2640" y="1448" on="0"/>
        <pt x="2554" y="1422" on="0"/>
        <pt x="2471" y="1378" on="0"/>
        <pt x="2392" y="1320" on="0"/>
        <pt x="2356" y="1288" on="1"/>
        <pt x="2302" y="1240" on="0"/>
        <pt x="2211" y="1142" on="0"/>
        <pt x="2176" y="1106" on="1"/>
        <pt x="2054" y="975" on="0"/>
        <pt x="1840" y="758" on="0"/>
        <pt x="1643" y="574" on="0"/>
        <pt x="1454" y="418" on="0"/>
        <pt x="1259" y="281" on="0"/>
        <pt x="1049" y="159" on="0"/>
        <pt x="930" y="100" on="1"/>
        <pt x="870" y="71" on="0"/>
        <pt x="788" y="35" on="0"/>
        <pt x="731" y="15" on="0"/>
        <pt x="695" y="8" on="0"/>
        <pt x="682" y="8" on="1"/>
        <pt x="677" y="8" on="0"/>
        <pt x="662" y="10" on="0"/>
        <pt x="648" y="16" on="0"/>
        <pt x="638" y="26" on="0"/>
        <pt x="638" y="34" on="1"/>
        <pt x="638" y="52" on="0"/>
        <pt x="703" y="92" on="0"/>
        <pt x="756" y="118" on="1"/>
        <pt x="816" y="147" on="0"/>
        <pt x="919" y="238" on="0"/>
      </contour>
      <contour>
        <pt x="2798" y="1702" on="1"/>
        <pt x="2764" y="1646" on="1"/>
        <pt x="2402" y="1646" on="1"/>
        <pt x="2466" y="1736" on="1"/>
      </contour>
    </TTGlyph>
    <TTGlyph name="O" xMin="1048" yMin="0" xMax="2506" yMax="1498">
      <contour>
        <pt x="1564" y="884" on="1"/>
        <pt x="1599" y="952" on="0"/>
        <pt x="1703" y="1096" on="0"/>
        <pt x="1831" y="1232" on="0"/>
        <pt x="1977" y="1354" on="0"/>
        <pt x="2126" y="1445" on="0"/>
        <pt x="2273" y="1498" on="0"/>
        <pt x="2340" y="1498" on="1"/>
        <pt x="2374" y="1498" on="0"/>
        <pt x="2434" y="1475" on="0"/>
        <pt x="2479" y="1433" on="0"/>
        <pt x="2506" y="1371" on="0"/>
        <pt x="2506" y="1332" on="1"/>
        <pt x="2506" y="1241" on="0"/>
        <pt x="2435" y="1030" on="0"/>
        <pt x="2312" y="809" on="0"/>
        <pt x="2146" y="587" on="0"/>
        <pt x="1956" y="382" on="0"/>
        <pt x="1751" y="205" on="0"/>
        <pt x="1550" y="75" on="0"/>
        <pt x="1362" y="0" on="0"/>
        <pt x="1284" y="0" on="1"/>
        <pt x="1219" y="0" on="0"/>
        <pt x="1129" y="37" on="0"/>
        <pt x="1073" y="99" on="0"/>
        <pt x="1048" y="181" on="0"/>
        <pt x="1048" y="226" on="1"/>
        <pt x="1048" y="291" on="0"/>
        <pt x="1080" y="426" on="0"/>
        <pt x="1133" y="560" on="0"/>
        <pt x="1202" y="688" on="0"/>
        <pt x="1275" y="804" on="0"/>
        <pt x="1346" y="903" on="0"/>
        <pt x="1376" y="942" on="1"/>
        <pt x="1437" y="1024" on="0"/>
        <pt x="1584" y="1171" on="0"/>
        <pt x="1736" y="1293" on="0"/>
        <pt x="1884" y="1386" on="0"/>
        <pt x="1946" y="1414" on="1"/>
        <pt x="1974" y="1384" on="1"/>
        <pt x="1886" y="1322" on="0"/>
        <pt x="1732" y="1181" on="0"/>
        <pt x="1594" y="1028" on="0"/>
        <pt x="1469" y="862" on="0"/>
        <pt x="1410" y="774" on="1"/>
        <pt x="1372" y="719" on="0"/>
        <pt x="1294" y="587" on="0"/>
        <pt x="1229" y="438" on="0"/>
        <pt x="1188" y="275" on="0"/>
        <pt x="1188" y="190" on="1"/>
        <pt x="1188" y="137" on="0"/>
        <pt x="1247" y="88" on="0"/>
        <pt x="1306" y="88" on="1"/>
        <pt x="1322" y="88" on="0"/>
        <pt x="1405" y="113" on="0"/>
        <pt x="1523" y="169" on="0"/>
        <pt x="1671" y="258" on="0"/>
        <pt x="1835" y="387" on="0"/>
        <pt x="2007" y="557" on="0"/>
        <pt x="2092" y="666" on="1"/>
        <pt x="2119" y="701" on="0"/>
        <pt x="2188" y="797" on="0"/>
        <pt x="2260" y="906" on="0"/>
        <pt x="2329" y="1025" on="0"/>
        <pt x="2383" y="1142" on="0"/>
        <pt x="2416" y="1254" on="0"/>
        <pt x="2416" y="1302" on="1"/>
        <pt x="2416" y="1347" on="0"/>
        <pt x="2359" y="1398" on="0"/>
        <pt x="2296" y="1398" on="1"/>
        <pt x="2269" y="1398" on="0"/>
        <pt x="2184" y="1360" on="0"/>
        <pt x="2076" y="1291" on="0"/>
        <pt x="1948" y="1194" on="0"/>
        <pt x="1811" y="1075" on="0"/>
        <pt x="1667" y="937" on="0"/>
        <pt x="1596" y="862" on="1"/>
      </contour>
    </TTGlyph>
    <TTGlyph name="Oacute" xMin="856" yMin="0" xMax="2590" yMax="1810">
      <contour>
        <pt x="1372" y="884" on="1"/>
        <pt x="1407" y="952" on="0"/>
        <pt x="1511" y="1096" on="0"/>
        <pt x="1639" y="1232" on="0"/>
        <pt x="1785" y="1354" on="0"/>
        <pt x="1934" y="1445" on="0"/>
        <pt x="2081" y="1498" on="0"/>
        <pt x="2148" y="1498" on="1"/>
        <pt x="2182" y="1498" on="0"/>
        <pt x="2242" y="1475" on="0"/>
        <pt x="2287" y="1433" on="0"/>
        <pt x="2314" y="1371" on="0"/>
        <pt x="2314" y="1332" on="1"/>
        <pt x="2314" y="1241" on="0"/>
        <pt x="2243" y="1030" on="0"/>
        <pt x="2120" y="809" on="0"/>
        <pt x="1954" y="587" on="0"/>
        <pt x="1764" y="382" on="0"/>
        <pt x="1559" y="205" on="0"/>
        <pt x="1358" y="75" on="0"/>
        <pt x="1170" y="0" on="0"/>
        <pt x="1092" y="0" on="1"/>
        <pt x="1027" y="0" on="0"/>
        <pt x="937" y="37" on="0"/>
        <pt x="881" y="99" on="0"/>
        <pt x="856" y="181" on="0"/>
        <pt x="856" y="226" on="1"/>
        <pt x="856" y="291" on="0"/>
        <pt x="888" y="426" on="0"/>
        <pt x="941" y="560" on="0"/>
        <pt x="1010" y="688" on="0"/>
        <pt x="1083" y="804" on="0"/>
        <pt x="1154" y="904" on="0"/>
        <pt x="1183" y="943" on="1"/>
        <pt x="1245" y="1024" on="0"/>
        <pt x="1392" y="1171" on="0"/>
        <pt x="1544" y="1293" on="0"/>
        <pt x="1692" y="1386" on="0"/>
        <pt x="1754" y="1414" on="1"/>
        <pt x="1782" y="1384" on="1"/>
        <pt x="1694" y="1322" on="0"/>
        <pt x="1540" y="1181" on="0"/>
        <pt x="1402" y="1028" on="0"/>
        <pt x="1277" y="862" on="0"/>
        <pt x="1217" y="774" on="1"/>
        <pt x="1180" y="719" on="0"/>
        <pt x="1102" y="587" on="0"/>
        <pt x="1037" y="438" on="0"/>
        <pt x="996" y="275" on="0"/>
        <pt x="996" y="190" on="1"/>
        <pt x="996" y="137" on="0"/>
        <pt x="1055" y="88" on="0"/>
        <pt x="1114" y="88" on="1"/>
        <pt x="1130" y="88" on="0"/>
        <pt x="1213" y="113" on="0"/>
        <pt x="1331" y="169" on="0"/>
        <pt x="1479" y="258" on="0"/>
        <pt x="1642" y="387" on="0"/>
        <pt x="1815" y="558" on="0"/>
        <pt x="1899" y="667" on="1"/>
        <pt x="1926" y="702" on="0"/>
        <pt x="1996" y="797" on="0"/>
        <pt x="2068" y="906" on="0"/>
        <pt x="2137" y="1025" on="0"/>
        <pt x="2191" y="1142" on="0"/>
        <pt x="2224" y="1254" on="0"/>
        <pt x="2224" y="1302" on="1"/>
        <pt x="2224" y="1347" on="0"/>
        <pt x="2167" y="1398" on="0"/>
        <pt x="2104" y="1398" on="1"/>
        <pt x="2077" y="1398" on="0"/>
        <pt x="1992" y="1360" on="0"/>
        <pt x="1884" y="1291" on="0"/>
        <pt x="1756" y="1194" on="0"/>
        <pt x="1619" y="1075" on="0"/>
        <pt x="1475" y="937" on="0"/>
        <pt x="1404" y="862" on="1"/>
      </contour>
      <contour>
        <pt x="2266" y="1608" on="1"/>
        <pt x="2288" y="1668" on="1"/>
        <pt x="2550" y="1810" on="1"/>
        <pt x="2590" y="1718" on="1"/>
      </contour>
    </TTGlyph>
    <TTGlyph name="Ocircumflex" xMin="924" yMin="0" xMax="2498" yMax="1800">
      <contour>
        <pt x="1440" y="884" on="1"/>
        <pt x="1474" y="952" on="0"/>
        <pt x="1579" y="1096" on="0"/>
        <pt x="1707" y="1232" on="0"/>
        <pt x="1853" y="1354" on="0"/>
        <pt x="2002" y="1445" on="0"/>
        <pt x="2149" y="1498" on="0"/>
        <pt x="2216" y="1498" on="1"/>
        <pt x="2250" y="1498" on="0"/>
        <pt x="2310" y="1475" on="0"/>
        <pt x="2355" y="1433" on="0"/>
        <pt x="2382" y="1371" on="0"/>
        <pt x="2382" y="1332" on="1"/>
        <pt x="2382" y="1241" on="0"/>
        <pt x="2311" y="1030" on="0"/>
        <pt x="2188" y="809" on="0"/>
        <pt x="2022" y="587" on="0"/>
        <pt x="1832" y="382" on="0"/>
        <pt x="1627" y="205" on="0"/>
        <pt x="1426" y="75" on="0"/>
        <pt x="1238" y="0" on="0"/>
        <pt x="1160" y="0" on="1"/>
        <pt x="1095" y="0" on="0"/>
        <pt x="1005" y="37" on="0"/>
        <pt x="949" y="99" on="0"/>
        <pt x="924" y="181" on="0"/>
        <pt x="924" y="226" on="1"/>
        <pt x="924" y="291" on="0"/>
        <pt x="956" y="426" on="0"/>
        <pt x="1009" y="560" on="0"/>
        <pt x="1078" y="688" on="0"/>
        <pt x="1151" y="804" on="0"/>
        <pt x="1222" y="903" on="0"/>
        <pt x="1252" y="942" on="1"/>
        <pt x="1313" y="1024" on="0"/>
        <pt x="1460" y="1171" on="0"/>
        <pt x="1612" y="1293" on="0"/>
        <pt x="1760" y="1386" on="0"/>
        <pt x="1822" y="1414" on="1"/>
        <pt x="1850" y="1384" on="1"/>
        <pt x="1762" y="1322" on="0"/>
        <pt x="1608" y="1181" on="0"/>
        <pt x="1470" y="1028" on="0"/>
        <pt x="1345" y="862" on="0"/>
        <pt x="1286" y="774" on="1"/>
        <pt x="1248" y="719" on="0"/>
        <pt x="1170" y="587" on="0"/>
        <pt x="1105" y="438" on="0"/>
        <pt x="1064" y="275" on="0"/>
        <pt x="1064" y="190" on="1"/>
        <pt x="1064" y="137" on="0"/>
        <pt x="1123" y="88" on="0"/>
        <pt x="1182" y="88" on="1"/>
        <pt x="1198" y="88" on="0"/>
        <pt x="1281" y="113" on="0"/>
        <pt x="1399" y="169" on="0"/>
        <pt x="1547" y="258" on="0"/>
        <pt x="1711" y="387" on="0"/>
        <pt x="1883" y="557" on="0"/>
        <pt x="1968" y="666" on="1"/>
        <pt x="1995" y="701" on="0"/>
        <pt x="2064" y="797" on="0"/>
        <pt x="2136" y="906" on="0"/>
        <pt x="2205" y="1025" on="0"/>
        <pt x="2259" y="1142" on="0"/>
        <pt x="2292" y="1254" on="0"/>
        <pt x="2292" y="1302" on="1"/>
        <pt x="2292" y="1347" on="0"/>
        <pt x="2235" y="1398" on="0"/>
        <pt x="2172" y="1398" on="1"/>
        <pt x="2145" y="1398" on="0"/>
        <pt x="2060" y="1360" on="0"/>
        <pt x="1952" y="1291" on="0"/>
        <pt x="1824" y="1194" on="0"/>
        <pt x="1687" y="1075" on="0"/>
        <pt x="1543" y="937" on="0"/>
        <pt x="1472" y="862" on="1"/>
      </contour>
      <contour>
        <pt x="2346" y="1690" on="1"/>
        <pt x="2080" y="1600" on="1"/>
        <pt x="2102" y="1660" on="1"/>
        <pt x="2360" y="1800" on="1"/>
        <pt x="2476" y="1632" on="1"/>
        <pt x="2498" y="1572" on="1"/>
      </contour>
    </TTGlyph>
    <TTGlyph name="Odieresis" xMin="900" yMin="0" xMax="2556" yMax="1764">
      <contour>
        <pt x="1416" y="884" on="1"/>
        <pt x="1450" y="952" on="0"/>
        <pt x="1555" y="1096" on="0"/>
        <pt x="1683" y="1232" on="0"/>
        <pt x="1829" y="1354" on="0"/>
        <pt x="1978" y="1445" on="0"/>
        <pt x="2125" y="1498" on="0"/>
        <pt x="2192" y="1498" on="1"/>
        <pt x="2226" y="1498" on="0"/>
        <pt x="2286" y="1475" on="0"/>
        <pt x="2331" y="1433" on="0"/>
        <pt x="2358" y="1371" on="0"/>
        <pt x="2358" y="1332" on="1"/>
        <pt x="2358" y="1241" on="0"/>
        <pt x="2287" y="1030" on="0"/>
        <pt x="2164" y="809" on="0"/>
        <pt x="1998" y="587" on="0"/>
        <pt x="1808" y="382" on="0"/>
        <pt x="1603" y="205" on="0"/>
        <pt x="1402" y="75" on="0"/>
        <pt x="1214" y="0" on="0"/>
        <pt x="1136" y="0" on="1"/>
        <pt x="1071" y="0" on="0"/>
        <pt x="981" y="37" on="0"/>
        <pt x="925" y="99" on="0"/>
        <pt x="900" y="181" on="0"/>
        <pt x="900" y="226" on="1"/>
        <pt x="900" y="291" on="0"/>
        <pt x="932" y="426" on="0"/>
        <pt x="985" y="560" on="0"/>
        <pt x="1054" y="688" on="0"/>
        <pt x="1127" y="804" on="0"/>
        <pt x="1198" y="903" on="0"/>
        <pt x="1228" y="942" on="1"/>
        <pt x="1289" y="1024" on="0"/>
        <pt x="1436" y="1171" on="0"/>
        <pt x="1588" y="1293" on="0"/>
        <pt x="1736" y="1386" on="0"/>
        <pt x="1798" y="1414" on="1"/>
        <pt x="1826" y="1384" on="1"/>
        <pt x="1738" y="1322" on="0"/>
        <pt x="1584" y="1181" on="0"/>
        <pt x="1446" y="1028" on="0"/>
        <pt x="1321" y="862" on="0"/>
        <pt x="1262" y="774" on="1"/>
        <pt x="1224" y="719" on="0"/>
        <pt x="1146" y="587" on="0"/>
        <pt x="1081" y="438" on="0"/>
        <pt x="1040" y="275" on="0"/>
        <pt x="1040" y="190" on="1"/>
        <pt x="1040" y="137" on="0"/>
        <pt x="1099" y="88" on="0"/>
        <pt x="1158" y="88" on="1"/>
        <pt x="1174" y="88" on="0"/>
        <pt x="1257" y="113" on="0"/>
        <pt x="1375" y="169" on="0"/>
        <pt x="1523" y="258" on="0"/>
        <pt x="1687" y="387" on="0"/>
        <pt x="1859" y="557" on="0"/>
        <pt x="1944" y="666" on="1"/>
        <pt x="1971" y="701" on="0"/>
        <pt x="2040" y="797" on="0"/>
        <pt x="2112" y="906" on="0"/>
        <pt x="2181" y="1025" on="0"/>
        <pt x="2235" y="1142" on="0"/>
        <pt x="2268" y="1254" on="0"/>
        <pt x="2268" y="1302" on="1"/>
        <pt x="2268" y="1347" on="0"/>
        <pt x="2211" y="1398" on="0"/>
        <pt x="2148" y="1398" on="1"/>
        <pt x="2121" y="1398" on="0"/>
        <pt x="2036" y="1360" on="0"/>
        <pt x="1928" y="1291" on="0"/>
        <pt x="1800" y="1194" on="0"/>
        <pt x="1663" y="1075" on="0"/>
        <pt x="1519" y="937" on="0"/>
        <pt x="1448" y="862" on="1"/>
      </contour>
      <contour>
        <pt x="2318" y="1708" on="1"/>
        <pt x="2318" y="1691" on="0"/>
        <pt x="2300" y="1661" on="0"/>
        <pt x="2271" y="1639" on="0"/>
        <pt x="2233" y="1626" on="0"/>
        <pt x="2214" y="1626" on="1"/>
        <pt x="2200" y="1626" on="0"/>
        <pt x="2173" y="1632" on="0"/>
        <pt x="2150" y="1648" on="0"/>
        <pt x="2136" y="1675" on="0"/>
        <pt x="2136" y="1696" on="1"/>
        <pt x="2136" y="1714" on="0"/>
        <pt x="2156" y="1740" on="0"/>
        <pt x="2186" y="1756" on="0"/>
        <pt x="2224" y="1764" on="0"/>
        <pt x="2242" y="1764" on="1"/>
        <pt x="2272" y="1764" on="0"/>
        <pt x="2313" y="1737" on="0"/>
      </contour>
      <contour>
        <pt x="2556" y="1706" on="1"/>
        <pt x="2556" y="1689" on="0"/>
        <pt x="2538" y="1659" on="0"/>
        <pt x="2509" y="1637" on="0"/>
        <pt x="2471" y="1624" on="0"/>
        <pt x="2452" y="1624" on="1"/>
        <pt x="2438" y="1624" on="0"/>
        <pt x="2411" y="1630" on="0"/>
        <pt x="2388" y="1646" on="0"/>
        <pt x="2374" y="1673" on="0"/>
        <pt x="2374" y="1694" on="1"/>
        <pt x="2374" y="1712" on="0"/>
        <pt x="2394" y="1738" on="0"/>
        <pt x="2424" y="1754" on="0"/>
        <pt x="2462" y="1762" on="0"/>
        <pt x="2480" y="1762" on="1"/>
        <pt x="2510" y="1762" on="0"/>
        <pt x="2551" y="1735" on="0"/>
      </contour>
    </TTGlyph>
    <TTGlyph name="Ograve" xMin="928" yMin="0" xMax="2490" yMax="1784">
      <contour>
        <pt x="1444" y="884" on="1"/>
        <pt x="1479" y="952" on="0"/>
        <pt x="1583" y="1096" on="0"/>
        <pt x="1711" y="1232" on="0"/>
        <pt x="1857" y="1354" on="0"/>
        <pt x="2006" y="1445" on="0"/>
        <pt x="2153" y="1498" on="0"/>
        <pt x="2220" y="1498" on="1"/>
        <pt x="2254" y="1498" on="0"/>
        <pt x="2314" y="1475" on="0"/>
        <pt x="2359" y="1433" on="0"/>
        <pt x="2386" y="1371" on="0"/>
        <pt x="2386" y="1332" on="1"/>
        <pt x="2386" y="1241" on="0"/>
        <pt x="2315" y="1030" on="0"/>
        <pt x="2192" y="809" on="0"/>
        <pt x="2026" y="587" on="0"/>
        <pt x="1836" y="382" on="0"/>
        <pt x="1631" y="205" on="0"/>
        <pt x="1430" y="75" on="0"/>
        <pt x="1242" y="0" on="0"/>
        <pt x="1164" y="0" on="1"/>
        <pt x="1099" y="0" on="0"/>
        <pt x="1009" y="37" on="0"/>
        <pt x="953" y="99" on="0"/>
        <pt x="928" y="181" on="0"/>
        <pt x="928" y="226" on="1"/>
        <pt x="928" y="291" on="0"/>
        <pt x="960" y="426" on="0"/>
        <pt x="1013" y="560" on="0"/>
        <pt x="1082" y="688" on="0"/>
        <pt x="1155" y="804" on="0"/>
        <pt x="1226" y="903" on="0"/>
        <pt x="1256" y="942" on="1"/>
        <pt x="1317" y="1024" on="0"/>
        <pt x="1464" y="1171" on="0"/>
        <pt x="1616" y="1293" on="0"/>
        <pt x="1764" y="1386" on="0"/>
        <pt x="1826" y="1414" on="1"/>
        <pt x="1854" y="1384" on="1"/>
        <pt x="1766" y="1322" on="0"/>
        <pt x="1612" y="1181" on="0"/>
        <pt x="1474" y="1028" on="0"/>
        <pt x="1349" y="862" on="0"/>
        <pt x="1290" y="774" on="1"/>
        <pt x="1252" y="719" on="0"/>
        <pt x="1174" y="587" on="0"/>
        <pt x="1109" y="438" on="0"/>
        <pt x="1068" y="275" on="0"/>
        <pt x="1068" y="190" on="1"/>
        <pt x="1068" y="137" on="0"/>
        <pt x="1127" y="88" on="0"/>
        <pt x="1186" y="88" on="1"/>
        <pt x="1202" y="88" on="0"/>
        <pt x="1285" y="113" on="0"/>
        <pt x="1403" y="169" on="0"/>
        <pt x="1551" y="258" on="0"/>
        <pt x="1715" y="387" on="0"/>
        <pt x="1887" y="557" on="0"/>
        <pt x="1972" y="666" on="1"/>
        <pt x="1999" y="701" on="0"/>
        <pt x="2068" y="797" on="0"/>
        <pt x="2140" y="906" on="0"/>
        <pt x="2209" y="1025" on="0"/>
        <pt x="2263" y="1142" on="0"/>
        <pt x="2296" y="1254" on="0"/>
        <pt x="2296" y="1302" on="1"/>
        <pt x="2296" y="1347" on="0"/>
        <pt x="2239" y="1398" on="0"/>
        <pt x="2176" y="1398" on="1"/>
        <pt x="2149" y="1398" on="0"/>
        <pt x="2064" y="1360" on="0"/>
        <pt x="1956" y="1291" on="0"/>
        <pt x="1828" y="1194" on="0"/>
        <pt x="1691" y="1075" on="0"/>
        <pt x="1547" y="937" on="0"/>
        <pt x="1476" y="862" on="1"/>
      </contour>
      <contour>
        <pt x="2166" y="1692" on="1"/>
        <pt x="2206" y="1784" on="1"/>
        <pt x="2468" y="1642" on="1"/>
        <pt x="2490" y="1582" on="1"/>
      </contour>
    </TTGlyph>
    <TTGlyph name="Oslash" xMin="278" yMin="0" xMax="1736" yMax="1498">
      <contour>
        <pt x="794" y="884" on="1"/>
        <pt x="828" y="952" on="0"/>
        <pt x="933" y="1096" on="0"/>
        <pt x="1061" y="1232" on="0"/>
        <pt x="1207" y="1354" on="0"/>
        <pt x="1356" y="1445" on="0"/>
        <pt x="1503" y="1498" on="0"/>
        <pt x="1570" y="1498" on="1"/>
        <pt x="1604" y="1498" on="0"/>
        <pt x="1664" y="1475" on="0"/>
        <pt x="1709" y="1433" on="0"/>
        <pt x="1736" y="1371" on="0"/>
        <pt x="1736" y="1332" on="1"/>
        <pt x="1736" y="1241" on="0"/>
        <pt x="1665" y="1030" on="0"/>
        <pt x="1542" y="809" on="0"/>
        <pt x="1376" y="587" on="0"/>
        <pt x="1186" y="382" on="0"/>
        <pt x="981" y="205" on="0"/>
        <pt x="780" y="75" on="0"/>
        <pt x="592" y="0" on="0"/>
        <pt x="514" y="0" on="1"/>
        <pt x="449" y="0" on="0"/>
        <pt x="359" y="37" on="0"/>
        <pt x="303" y="99" on="0"/>
        <pt x="278" y="181" on="0"/>
        <pt x="278" y="226" on="1"/>
        <pt x="278" y="291" on="0"/>
        <pt x="310" y="426" on="0"/>
        <pt x="363" y="560" on="0"/>
        <pt x="432" y="688" on="0"/>
        <pt x="505" y="804" on="0"/>
        <pt x="576" y="903" on="0"/>
        <pt x="606" y="942" on="1"/>
        <pt x="667" y="1024" on="0"/>
        <pt x="814" y="1171" on="0"/>
        <pt x="966" y="1293" on="0"/>
        <pt x="1114" y="1386" on="0"/>
        <pt x="1176" y="1414" on="1"/>
        <pt x="1204" y="1384" on="1"/>
        <pt x="1116" y="1322" on="0"/>
        <pt x="962" y="1181" on="0"/>
        <pt x="824" y="1028" on="0"/>
        <pt x="699" y="862" on="0"/>
        <pt x="640" y="774" on="1"/>
        <pt x="602" y="719" on="0"/>
        <pt x="524" y="587" on="0"/>
        <pt x="459" y="438" on="0"/>
        <pt x="418" y="275" on="0"/>
        <pt x="418" y="190" on="1"/>
        <pt x="418" y="125" on="0"/>
        <pt x="464" y="102" on="1"/>
        <pt x="1494" y="1392" on="1"/>
        <pt x="1446" y="1378" on="0"/>
        <pt x="1298" y="1287" on="0"/>
        <pt x="1121" y="1146" on="0"/>
        <pt x="923" y="965" on="0"/>
        <pt x="826" y="862" on="1"/>
      </contour>
      <contour>
        <pt x="1646" y="1302" on="1"/>
        <pt x="1646" y="1319" on="0"/>
        <pt x="1637" y="1349" on="0"/>
        <pt x="1628" y="1360" on="1"/>
        <pt x="514" y="88" on="1"/>
        <pt x="536" y="88" on="1"/>
        <pt x="553" y="88" on="0"/>
        <pt x="635" y="113" on="0"/>
        <pt x="753" y="169" on="0"/>
        <pt x="901" y="258" on="0"/>
        <pt x="1065" y="387" on="0"/>
        <pt x="1237" y="557" on="0"/>
        <pt x="1322" y="666" on="1"/>
        <pt x="1349" y="701" on="0"/>
        <pt x="1418" y="797" on="0"/>
        <pt x="1490" y="906" on="0"/>
        <pt x="1559" y="1025" on="0"/>
        <pt x="1613" y="1142" on="0"/>
        <pt x="1646" y="1254" on="0"/>
      </contour>
    </TTGlyph>
</ttFont>
